<?xml version="1.0" encoding="utf-8" standalone="no"?>
<!DOCTYPE svg PUBLIC "-//W3C//DTD SVG 1.1//EN"
  "http://www.w3.org/Graphics/SVG/1.1/DTD/svg11.dtd">
<svg xmlns:xlink="http://www.w3.org/1999/xlink" width="352.745032pt" height="244.376562pt" viewBox="0 0 352.745032 244.376562" xmlns="http://www.w3.org/2000/svg" version="1.1">
 <metadata>
  <rdf:RDF xmlns:dc="http://purl.org/dc/elements/1.1/" xmlns:cc="http://creativecommons.org/ns#" xmlns:rdf="http://www.w3.org/1999/02/22-rdf-syntax-ns#">
   <cc:Work>
    <dc:type rdf:resource="http://purl.org/dc/dcmitype/StillImage"/>
    <dc:date>2025-01-07T06:31:47.054568</dc:date>
    <dc:format>image/svg+xml</dc:format>
    <dc:creator>
     <cc:Agent>
      <dc:title>Matplotlib v3.7.2, https://matplotlib.org/</dc:title>
     </cc:Agent>
    </dc:creator>
   </cc:Work>
  </rdf:RDF>
 </metadata>
 <defs>
  <style type="text/css">*{stroke-linejoin: round; stroke-linecap: butt}</style>
 </defs>
 <g id="figure_1">
  <g id="patch_1">
   <path d="M 0 244.376562 
L 352.745032 244.376562 
L 352.745032 0 
L 0 0 
z
" style="fill: #ffffff"/>
  </g>
  <g id="axes_1">
   <g id="patch_2">
    <path d="M 58.471875 199.077812 
L 263.051257 199.077812 
L 263.051257 23.837812 
L 58.471875 23.837812 
z
" style="fill: #ffffff"/>
   </g>
   <g id="line2d_1">
    <path d="M 58.471875 199.077812 
L 263.051257 23.837812 
" clip-path="url(#p1f1ee5820a)" style="fill: none; stroke-dasharray: 7.4,3.2; stroke-dashoffset: 0; stroke: #808080; stroke-width: 2"/>
   </g>
   <g id="PathCollection_1">
    <defs>
     <path id="m0af7de8198" d="M 0 5 
C 1.326016 5 2.597899 4.473168 3.535534 3.535534 
C 4.473168 2.597899 5 1.326016 5 0 
C 5 -1.326016 4.473168 -2.597899 3.535534 -3.535534 
C 2.597899 -4.473168 1.326016 -5 0 -5 
C -1.326016 -5 -2.597899 -4.473168 -3.535534 -3.535534 
C -4.473168 -2.597899 -5 -1.326016 -5 0 
C -5 1.326016 -4.473168 2.597899 -3.535534 3.535534 
C -2.597899 4.473168 -1.326016 5 0 5 
z
" style="stroke: #3e356b"/>
    </defs>
    <g clip-path="url(#p1f1ee5820a)">
     <use xlink:href="#m0af7de8198" x="177.367531" y="96.398341" style="fill: #3e356b; stroke: #3e356b"/>
     <use xlink:href="#m0af7de8198" x="169.050691" y="106.591073" style="fill: #3e356b; stroke: #3e356b"/>
     <use xlink:href="#m0af7de8198" x="160.059351" y="111.574566" style="fill: #3e356b; stroke: #3e356b"/>
     <use xlink:href="#m0af7de8198" x="180.220123" y="95.910315" style="fill: #3e356b; stroke: #3e356b"/>
     <use xlink:href="#m0af7de8198" x="189.044396" y="88.907642" style="fill: #3e356b; stroke: #3e356b"/>
     <use xlink:href="#m0af7de8198" x="143.017347" y="120.381649" style="fill: #3e356b; stroke: #3e356b"/>
     <use xlink:href="#m0af7de8198" x="163.445543" y="107.767649" style="fill: #3e356b; stroke: #3e356b"/>
     <use xlink:href="#m0af7de8198" x="178.84206" y="94.689945" style="fill: #3e356b; stroke: #3e356b"/>
     <use xlink:href="#m0af7de8198" x="193.21367" y="85.771663" style="fill: #3e356b; stroke: #3e356b"/>
     <use xlink:href="#m0af7de8198" x="150.000097" y="118.526875" style="fill: #3e356b; stroke: #3e356b"/>
     <use xlink:href="#m0af7de8198" x="197.526429" y="81.498222" style="fill: #3e356b; stroke: #3e356b"/>
     <use xlink:href="#m0af7de8198" x="166.587544" y="106.118873" style="fill: #3e356b; stroke: #3e356b"/>
     <use xlink:href="#m0af7de8198" x="197.390375" y="83.141521" style="fill: #3e356b; stroke: #3e356b"/>
     <use xlink:href="#m0af7de8198" x="168.427173" y="105.698639" style="fill: #3e356b; stroke: #3e356b"/>
     <use xlink:href="#m0af7de8198" x="184.776977" y="91.676371" style="fill: #3e356b; stroke: #3e356b"/>
     <use xlink:href="#m0af7de8198" x="176.279107" y="96.358519" style="fill: #3e356b; stroke: #3e356b"/>
     <use xlink:href="#m0af7de8198" x="182.300152" y="92.161982" style="fill: #3e356b; stroke: #3e356b"/>
     <use xlink:href="#m0af7de8198" x="168.501508" y="106.981243" style="fill: #3e356b; stroke: #3e356b"/>
     <use xlink:href="#m0af7de8198" x="166.641076" y="106.678377" style="fill: #3e356b; stroke: #3e356b"/>
     <use xlink:href="#m0af7de8198" x="187.225392" y="88.52065" style="fill: #3e356b; stroke: #3e356b"/>
     <use xlink:href="#m0af7de8198" x="197.267389" y="84.922483" style="fill: #3e356b; stroke: #3e356b"/>
     <use xlink:href="#m0af7de8198" x="183.387325" y="91.14999" style="fill: #3e356b; stroke: #3e356b"/>
     <use xlink:href="#m0af7de8198" x="178.457496" y="94.720478" style="fill: #3e356b; stroke: #3e356b"/>
     <use xlink:href="#m0af7de8198" x="164.619581" y="104.576045" style="fill: #3e356b; stroke: #3e356b"/>
     <use xlink:href="#m0af7de8198" x="179.040685" y="98.620591" style="fill: #3e356b; stroke: #3e356b"/>
     <use xlink:href="#m0af7de8198" x="110.706686" y="145.389889" style="fill: #3e356b; stroke: #3e356b"/>
     <use xlink:href="#m0af7de8198" x="144.69602" y="121.303687" style="fill: #3e356b; stroke: #3e356b"/>
     <use xlink:href="#m0af7de8198" x="180.174276" y="96.501263" style="fill: #3e356b; stroke: #3e356b"/>
     <use xlink:href="#m0af7de8198" x="186.24941" y="92.103977" style="fill: #3e356b; stroke: #3e356b"/>
     <use xlink:href="#m0af7de8198" x="162.80847" y="104.494805" style="fill: #3e356b; stroke: #3e356b"/>
     <use xlink:href="#m0af7de8198" x="97.124971" y="155.421589" style="fill: #3e356b; stroke: #3e356b"/>
     <use xlink:href="#m0af7de8198" x="202.528735" y="76.879072" style="fill: #3e356b; stroke: #3e356b"/>
     <use xlink:href="#m0af7de8198" x="148.522782" y="121.056836" style="fill: #3e356b; stroke: #3e356b"/>
     <use xlink:href="#m0af7de8198" x="176.797779" y="95.597136" style="fill: #3e356b; stroke: #3e356b"/>
     <use xlink:href="#m0af7de8198" x="175.87357" y="97.819737" style="fill: #3e356b; stroke: #3e356b"/>
     <use xlink:href="#m0af7de8198" x="160.942896" y="110.413635" style="fill: #3e356b; stroke: #3e356b"/>
     <use xlink:href="#m0af7de8198" x="165.675985" y="111.78794" style="fill: #3e356b; stroke: #3e356b"/>
     <use xlink:href="#m0af7de8198" x="196.01105" y="88.348953" style="fill: #3e356b; stroke: #3e356b"/>
     <use xlink:href="#m0af7de8198" x="163.195525" y="112.527528" style="fill: #3e356b; stroke: #3e356b"/>
     <use xlink:href="#m0af7de8198" x="202.941749" y="77.045043" style="fill: #3e356b; stroke: #3e356b"/>
     <use xlink:href="#m0af7de8198" x="164.591229" y="119.123342" style="fill: #3e356b; stroke: #3e356b"/>
     <use xlink:href="#m0af7de8198" x="141.217478" y="120.283269" style="fill: #3e356b; stroke: #3e356b"/>
     <use xlink:href="#m0af7de8198" x="184.095488" y="92.879423" style="fill: #3e356b; stroke: #3e356b"/>
     <use xlink:href="#m0af7de8198" x="176.367445" y="97.673478" style="fill: #3e356b; stroke: #3e356b"/>
     <use xlink:href="#m0af7de8198" x="180.019043" y="92.174537" style="fill: #3e356b; stroke: #3e356b"/>
     <use xlink:href="#m0af7de8198" x="159.820008" y="111.429212" style="fill: #3e356b; stroke: #3e356b"/>
     <use xlink:href="#m0af7de8198" x="145.511652" y="122.382045" style="fill: #3e356b; stroke: #3e356b"/>
     <use xlink:href="#m0af7de8198" x="172.919604" y="108.388954" style="fill: #3e356b; stroke: #3e356b"/>
     <use xlink:href="#m0af7de8198" x="164.224066" y="106.762581" style="fill: #3e356b; stroke: #3e356b"/>
     <use xlink:href="#m0af7de8198" x="180.323668" y="93.040688" style="fill: #3e356b; stroke: #3e356b"/>
     <use xlink:href="#m0af7de8198" x="179.323856" y="97.490108" style="fill: #3e356b; stroke: #3e356b"/>
     <use xlink:href="#m0af7de8198" x="158.453268" y="113.892018" style="fill: #3e356b; stroke: #3e356b"/>
     <use xlink:href="#m0af7de8198" x="201.830195" y="76.827755" style="fill: #3e356b; stroke: #3e356b"/>
     <use xlink:href="#m0af7de8198" x="167.221129" y="107.716564" style="fill: #3e356b; stroke: #3e356b"/>
     <use xlink:href="#m0af7de8198" x="107.779187" y="140.956105" style="fill: #3e356b; stroke: #3e356b"/>
     <use xlink:href="#m0af7de8198" x="198.259196" y="82.097472" style="fill: #3e356b; stroke: #3e356b"/>
     <use xlink:href="#m0af7de8198" x="190.327903" y="88.500893" style="fill: #3e356b; stroke: #3e356b"/>
     <use xlink:href="#m0af7de8198" x="196.782598" y="85.708315" style="fill: #3e356b; stroke: #3e356b"/>
     <use xlink:href="#m0af7de8198" x="178.69705" y="98.119287" style="fill: #3e356b; stroke: #3e356b"/>
     <use xlink:href="#m0af7de8198" x="179.756862" y="96.412291" style="fill: #3e356b; stroke: #3e356b"/>
     <use xlink:href="#m0af7de8198" x="187.866443" y="87.337689" style="fill: #3e356b; stroke: #3e356b"/>
     <use xlink:href="#m0af7de8198" x="187.750697" y="85.813379" style="fill: #3e356b; stroke: #3e356b"/>
     <use xlink:href="#m0af7de8198" x="159.564406" y="111.735002" style="fill: #3e356b; stroke: #3e356b"/>
     <use xlink:href="#m0af7de8198" x="176.232528" y="97.333148" style="fill: #3e356b; stroke: #3e356b"/>
     <use xlink:href="#m0af7de8198" x="109.158063" y="149.453224" style="fill: #3e356b; stroke: #3e356b"/>
     <use xlink:href="#m0af7de8198" x="150.96407" y="131.646894" style="fill: #3e356b; stroke: #3e356b"/>
     <use xlink:href="#m0af7de8198" x="182.557639" y="91.248363" style="fill: #3e356b; stroke: #3e356b"/>
     <use xlink:href="#m0af7de8198" x="145.512333" y="122.261699" style="fill: #3e356b; stroke: #3e356b"/>
     <use xlink:href="#m0af7de8198" x="181.257366" y="92.228856" style="fill: #3e356b; stroke: #3e356b"/>
     <use xlink:href="#m0af7de8198" x="163.904805" y="108.16584" style="fill: #3e356b; stroke: #3e356b"/>
     <use xlink:href="#m0af7de8198" x="193.273951" y="86.128083" style="fill: #3e356b; stroke: #3e356b"/>
     <use xlink:href="#m0af7de8198" x="163.823474" y="108.001981" style="fill: #3e356b; stroke: #3e356b"/>
     <use xlink:href="#m0af7de8198" x="164.15301" y="107.395891" style="fill: #3e356b; stroke: #3e356b"/>
     <use xlink:href="#m0af7de8198" x="184.886119" y="89.461335" style="fill: #3e356b; stroke: #3e356b"/>
     <use xlink:href="#m0af7de8198" x="173.567517" y="103.722047" style="fill: #3e356b; stroke: #3e356b"/>
     <use xlink:href="#m0af7de8198" x="174.193819" y="98.752584" style="fill: #3e356b; stroke: #3e356b"/>
    </g>
   </g>
   <g id="PathCollection_2">
    <defs>
     <path id="m5986aaaf0b" d="M -2.5 5 
L 0 2.5 
L 2.5 5 
L 5 2.5 
L 2.5 0 
L 5 -2.5 
L 2.5 -5 
L 0 -2.5 
L -2.5 -5 
L -5 -2.5 
L -2.5 0 
L -5 2.5 
z
" style="stroke: #357ba3"/>
    </defs>
    <g clip-path="url(#p1f1ee5820a)">
     <use xlink:href="#m5986aaaf0b" x="173.552107" y="102.839456" style="fill: #357ba3; stroke: #357ba3"/>
     <use xlink:href="#m5986aaaf0b" x="145.006136" y="121.132053" style="fill: #357ba3; stroke: #357ba3"/>
     <use xlink:href="#m5986aaaf0b" x="154.864081" y="113.638589" style="fill: #357ba3; stroke: #357ba3"/>
     <use xlink:href="#m5986aaaf0b" x="198.724825" y="85.697832" style="fill: #357ba3; stroke: #357ba3"/>
     <use xlink:href="#m5986aaaf0b" x="110.031229" y="141.685861" style="fill: #357ba3; stroke: #357ba3"/>
     <use xlink:href="#m5986aaaf0b" x="204.006851" y="81.74526" style="fill: #357ba3; stroke: #357ba3"/>
     <use xlink:href="#m5986aaaf0b" x="155.141734" y="112.686462" style="fill: #357ba3; stroke: #357ba3"/>
     <use xlink:href="#m5986aaaf0b" x="163.933333" y="111.634899" style="fill: #357ba3; stroke: #357ba3"/>
     <use xlink:href="#m5986aaaf0b" x="163.590116" y="115.222675" style="fill: #357ba3; stroke: #357ba3"/>
     <use xlink:href="#m5986aaaf0b" x="128.282035" y="122.845126" style="fill: #357ba3; stroke: #357ba3"/>
     <use xlink:href="#m5986aaaf0b" x="155.909791" y="135.377795" style="fill: #357ba3; stroke: #357ba3"/>
     <use xlink:href="#m5986aaaf0b" x="160.144444" y="114.539074" style="fill: #357ba3; stroke: #357ba3"/>
     <use xlink:href="#m5986aaaf0b" x="148.115046" y="118.356737" style="fill: #357ba3; stroke: #357ba3"/>
     <use xlink:href="#m5986aaaf0b" x="193.591707" y="87.798401" style="fill: #357ba3; stroke: #357ba3"/>
     <use xlink:href="#m5986aaaf0b" x="150.415837" y="101.49754" style="fill: #357ba3; stroke: #357ba3"/>
     <use xlink:href="#m5986aaaf0b" x="168.187656" y="110.843297" style="fill: #357ba3; stroke: #357ba3"/>
     <use xlink:href="#m5986aaaf0b" x="127.730782" y="119.178069" style="fill: #357ba3; stroke: #357ba3"/>
     <use xlink:href="#m5986aaaf0b" x="96.15548" y="137.543312" style="fill: #357ba3; stroke: #357ba3"/>
     <use xlink:href="#m5986aaaf0b" x="199.007327" y="79.91361" style="fill: #357ba3; stroke: #357ba3"/>
     <use xlink:href="#m5986aaaf0b" x="184.23208" y="92.74194" style="fill: #357ba3; stroke: #357ba3"/>
    </g>
   </g>
   <g id="PathCollection_3">
    <defs>
     <path id="m902f88f90f" d="M 0 -5 
L -5 5 
L 5 5 
z
" style="stroke: #4bc2ad"/>
    </defs>
    <g clip-path="url(#p1f1ee5820a)">
     <use xlink:href="#m902f88f90f" x="193.541304" y="97.364283" style="fill: #4bc2ad; stroke: #4bc2ad"/>
     <use xlink:href="#m902f88f90f" x="168.852685" y="87.529211" style="fill: #4bc2ad; stroke: #4bc2ad"/>
     <use xlink:href="#m902f88f90f" x="165.312083" y="111.028811" style="fill: #4bc2ad; stroke: #4bc2ad"/>
     <use xlink:href="#m902f88f90f" x="147.564746" y="103.986526" style="fill: #4bc2ad; stroke: #4bc2ad"/>
     <use xlink:href="#m902f88f90f" x="194.31551" y="94.379861" style="fill: #4bc2ad; stroke: #4bc2ad"/>
     <use xlink:href="#m902f88f90f" x="169.60178" y="92.248326" style="fill: #4bc2ad; stroke: #4bc2ad"/>
     <use xlink:href="#m902f88f90f" x="152.377979" y="90.974405" style="fill: #4bc2ad; stroke: #4bc2ad"/>
     <use xlink:href="#m902f88f90f" x="194.300325" y="94.396956" style="fill: #4bc2ad; stroke: #4bc2ad"/>
     <use xlink:href="#m902f88f90f" x="134.763053" y="112.104297" style="fill: #4bc2ad; stroke: #4bc2ad"/>
     <use xlink:href="#m902f88f90f" x="167.669772" y="107.417799" style="fill: #4bc2ad; stroke: #4bc2ad"/>
     <use xlink:href="#m902f88f90f" x="153.529352" y="88.614742" style="fill: #4bc2ad; stroke: #4bc2ad"/>
     <use xlink:href="#m902f88f90f" x="192.870349" y="93.05936" style="fill: #4bc2ad; stroke: #4bc2ad"/>
    </g>
   </g>
   <g id="matplotlib.axis_1">
    <g id="xtick_1">
     <g id="line2d_2">
      <defs>
       <path id="m7c97f9ba0c" d="M 0 0 
L 0 3.5 
" style="stroke: #000000; stroke-width: 0.8"/>
      </defs>
      <g>
       <use xlink:href="#m7c97f9ba0c" x="99.387751" y="199.077812" style="stroke: #000000; stroke-width: 0.8"/>
      </g>
     </g>
     <g id="text_1">
      <!-- 60 -->
      <g transform="translate(90.480251 216.715625) scale(0.14 -0.14)">
       <defs>
        <path id="DejaVuSans-36" d="M 2113 2584 
Q 1688 2584 1439 2293 
Q 1191 2003 1191 1497 
Q 1191 994 1439 701 
Q 1688 409 2113 409 
Q 2538 409 2786 701 
Q 3034 994 3034 1497 
Q 3034 2003 2786 2293 
Q 2538 2584 2113 2584 
z
M 3366 4563 
L 3366 3988 
Q 3128 4100 2886 4159 
Q 2644 4219 2406 4219 
Q 1781 4219 1451 3797 
Q 1122 3375 1075 2522 
Q 1259 2794 1537 2939 
Q 1816 3084 2150 3084 
Q 2853 3084 3261 2657 
Q 3669 2231 3669 1497 
Q 3669 778 3244 343 
Q 2819 -91 2113 -91 
Q 1303 -91 875 529 
Q 447 1150 447 2328 
Q 447 3434 972 4092 
Q 1497 4750 2381 4750 
Q 2619 4750 2861 4703 
Q 3103 4656 3366 4563 
z
" transform="scale(0.015625)"/>
        <path id="DejaVuSans-30" d="M 2034 4250 
Q 1547 4250 1301 3770 
Q 1056 3291 1056 2328 
Q 1056 1369 1301 889 
Q 1547 409 2034 409 
Q 2525 409 2770 889 
Q 3016 1369 3016 2328 
Q 3016 3291 2770 3770 
Q 2525 4250 2034 4250 
z
M 2034 4750 
Q 2819 4750 3233 4129 
Q 3647 3509 3647 2328 
Q 3647 1150 3233 529 
Q 2819 -91 2034 -91 
Q 1250 -91 836 529 
Q 422 1150 422 2328 
Q 422 3509 836 4129 
Q 1250 4750 2034 4750 
z
" transform="scale(0.015625)"/>
       </defs>
       <use xlink:href="#DejaVuSans-36"/>
       <use xlink:href="#DejaVuSans-30" x="63.623047"/>
      </g>
     </g>
    </g>
    <g id="xtick_2">
     <g id="line2d_3">
      <g>
       <use xlink:href="#m7c97f9ba0c" x="181.219504" y="199.077812" style="stroke: #000000; stroke-width: 0.8"/>
      </g>
     </g>
     <g id="text_2">
      <!-- 80 -->
      <g transform="translate(172.312004 216.715625) scale(0.14 -0.14)">
       <defs>
        <path id="DejaVuSans-38" d="M 2034 2216 
Q 1584 2216 1326 1975 
Q 1069 1734 1069 1313 
Q 1069 891 1326 650 
Q 1584 409 2034 409 
Q 2484 409 2743 651 
Q 3003 894 3003 1313 
Q 3003 1734 2745 1975 
Q 2488 2216 2034 2216 
z
M 1403 2484 
Q 997 2584 770 2862 
Q 544 3141 544 3541 
Q 544 4100 942 4425 
Q 1341 4750 2034 4750 
Q 2731 4750 3128 4425 
Q 3525 4100 3525 3541 
Q 3525 3141 3298 2862 
Q 3072 2584 2669 2484 
Q 3125 2378 3379 2068 
Q 3634 1759 3634 1313 
Q 3634 634 3220 271 
Q 2806 -91 2034 -91 
Q 1263 -91 848 271 
Q 434 634 434 1313 
Q 434 1759 690 2068 
Q 947 2378 1403 2484 
z
M 1172 3481 
Q 1172 3119 1398 2916 
Q 1625 2713 2034 2713 
Q 2441 2713 2670 2916 
Q 2900 3119 2900 3481 
Q 2900 3844 2670 4047 
Q 2441 4250 2034 4250 
Q 1625 4250 1398 4047 
Q 1172 3844 1172 3481 
z
" transform="scale(0.015625)"/>
       </defs>
       <use xlink:href="#DejaVuSans-38"/>
       <use xlink:href="#DejaVuSans-30" x="63.623047"/>
      </g>
     </g>
    </g>
    <g id="xtick_3">
     <g id="line2d_4">
      <g>
       <use xlink:href="#m7c97f9ba0c" x="263.051257" y="199.077812" style="stroke: #000000; stroke-width: 0.8"/>
      </g>
     </g>
     <g id="text_3">
      <!-- 100 -->
      <g transform="translate(249.690007 216.715625) scale(0.14 -0.14)">
       <defs>
        <path id="DejaVuSans-31" d="M 794 531 
L 1825 531 
L 1825 4091 
L 703 3866 
L 703 4441 
L 1819 4666 
L 2450 4666 
L 2450 531 
L 3481 531 
L 3481 0 
L 794 0 
L 794 531 
z
" transform="scale(0.015625)"/>
       </defs>
       <use xlink:href="#DejaVuSans-31"/>
       <use xlink:href="#DejaVuSans-30" x="63.623047"/>
       <use xlink:href="#DejaVuSans-30" x="127.246094"/>
      </g>
     </g>
    </g>
    <g id="text_4">
     <!-- Actual -->
     <g transform="translate(138.831879 234.265) scale(0.14 -0.14)">
      <defs>
       <path id="DejaVuSans-41" d="M 2188 4044 
L 1331 1722 
L 3047 1722 
L 2188 4044 
z
M 1831 4666 
L 2547 4666 
L 4325 0 
L 3669 0 
L 3244 1197 
L 1141 1197 
L 716 0 
L 50 0 
L 1831 4666 
z
" transform="scale(0.015625)"/>
       <path id="DejaVuSans-63" d="M 3122 3366 
L 3122 2828 
Q 2878 2963 2633 3030 
Q 2388 3097 2138 3097 
Q 1578 3097 1268 2742 
Q 959 2388 959 1747 
Q 959 1106 1268 751 
Q 1578 397 2138 397 
Q 2388 397 2633 464 
Q 2878 531 3122 666 
L 3122 134 
Q 2881 22 2623 -34 
Q 2366 -91 2075 -91 
Q 1284 -91 818 406 
Q 353 903 353 1747 
Q 353 2603 823 3093 
Q 1294 3584 2113 3584 
Q 2378 3584 2631 3529 
Q 2884 3475 3122 3366 
z
" transform="scale(0.015625)"/>
       <path id="DejaVuSans-74" d="M 1172 4494 
L 1172 3500 
L 2356 3500 
L 2356 3053 
L 1172 3053 
L 1172 1153 
Q 1172 725 1289 603 
Q 1406 481 1766 481 
L 2356 481 
L 2356 0 
L 1766 0 
Q 1100 0 847 248 
Q 594 497 594 1153 
L 594 3053 
L 172 3053 
L 172 3500 
L 594 3500 
L 594 4494 
L 1172 4494 
z
" transform="scale(0.015625)"/>
       <path id="DejaVuSans-75" d="M 544 1381 
L 544 3500 
L 1119 3500 
L 1119 1403 
Q 1119 906 1312 657 
Q 1506 409 1894 409 
Q 2359 409 2629 706 
Q 2900 1003 2900 1516 
L 2900 3500 
L 3475 3500 
L 3475 0 
L 2900 0 
L 2900 538 
Q 2691 219 2414 64 
Q 2138 -91 1772 -91 
Q 1169 -91 856 284 
Q 544 659 544 1381 
z
M 1991 3584 
L 1991 3584 
z
" transform="scale(0.015625)"/>
       <path id="DejaVuSans-61" d="M 2194 1759 
Q 1497 1759 1228 1600 
Q 959 1441 959 1056 
Q 959 750 1161 570 
Q 1363 391 1709 391 
Q 2188 391 2477 730 
Q 2766 1069 2766 1631 
L 2766 1759 
L 2194 1759 
z
M 3341 1997 
L 3341 0 
L 2766 0 
L 2766 531 
Q 2569 213 2275 61 
Q 1981 -91 1556 -91 
Q 1019 -91 701 211 
Q 384 513 384 1019 
Q 384 1609 779 1909 
Q 1175 2209 1959 2209 
L 2766 2209 
L 2766 2266 
Q 2766 2663 2505 2880 
Q 2244 3097 1772 3097 
Q 1472 3097 1187 3025 
Q 903 2953 641 2809 
L 641 3341 
Q 956 3463 1253 3523 
Q 1550 3584 1831 3584 
Q 2591 3584 2966 3190 
Q 3341 2797 3341 1997 
z
" transform="scale(0.015625)"/>
       <path id="DejaVuSans-6c" d="M 603 4863 
L 1178 4863 
L 1178 0 
L 603 0 
L 603 4863 
z
" transform="scale(0.015625)"/>
      </defs>
      <use xlink:href="#DejaVuSans-41"/>
      <use xlink:href="#DejaVuSans-63" x="66.658203"/>
      <use xlink:href="#DejaVuSans-74" x="121.638672"/>
      <use xlink:href="#DejaVuSans-75" x="160.847656"/>
      <use xlink:href="#DejaVuSans-61" x="224.226562"/>
      <use xlink:href="#DejaVuSans-6c" x="285.505859"/>
     </g>
    </g>
   </g>
   <g id="matplotlib.axis_2">
    <g id="ytick_1">
     <g id="line2d_5">
      <defs>
       <path id="mc82f83f5c4" d="M 0 0 
L -3.5 0 
" style="stroke: #000000; stroke-width: 0.8"/>
      </defs>
      <g>
       <use xlink:href="#mc82f83f5c4" x="58.471875" y="199.077812" style="stroke: #000000; stroke-width: 0.8"/>
      </g>
     </g>
     <g id="text_5">
      <!-- 50 -->
      <g transform="translate(33.656875 204.396719) scale(0.14 -0.14)">
       <defs>
        <path id="DejaVuSans-35" d="M 691 4666 
L 3169 4666 
L 3169 4134 
L 1269 4134 
L 1269 2991 
Q 1406 3038 1543 3061 
Q 1681 3084 1819 3084 
Q 2600 3084 3056 2656 
Q 3513 2228 3513 1497 
Q 3513 744 3044 326 
Q 2575 -91 1722 -91 
Q 1428 -91 1123 -41 
Q 819 9 494 109 
L 494 744 
Q 775 591 1075 516 
Q 1375 441 1709 441 
Q 2250 441 2565 725 
Q 2881 1009 2881 1497 
Q 2881 1984 2565 2268 
Q 2250 2553 1709 2553 
Q 1456 2553 1204 2497 
Q 953 2441 691 2322 
L 691 4666 
z
" transform="scale(0.015625)"/>
       </defs>
       <use xlink:href="#DejaVuSans-35"/>
       <use xlink:href="#DejaVuSans-30" x="63.623047"/>
      </g>
     </g>
    </g>
    <g id="ytick_2">
     <g id="line2d_6">
      <g>
       <use xlink:href="#mc82f83f5c4" x="58.471875" y="164.029812" style="stroke: #000000; stroke-width: 0.8"/>
      </g>
     </g>
     <g id="text_6">
      <!-- 60 -->
      <g transform="translate(33.656875 169.348719) scale(0.14 -0.14)">
       <use xlink:href="#DejaVuSans-36"/>
       <use xlink:href="#DejaVuSans-30" x="63.623047"/>
      </g>
     </g>
    </g>
    <g id="ytick_3">
     <g id="line2d_7">
      <g>
       <use xlink:href="#mc82f83f5c4" x="58.471875" y="128.981812" style="stroke: #000000; stroke-width: 0.8"/>
      </g>
     </g>
     <g id="text_7">
      <!-- 70 -->
      <g transform="translate(33.656875 134.300719) scale(0.14 -0.14)">
       <defs>
        <path id="DejaVuSans-37" d="M 525 4666 
L 3525 4666 
L 3525 4397 
L 1831 0 
L 1172 0 
L 2766 4134 
L 525 4134 
L 525 4666 
z
" transform="scale(0.015625)"/>
       </defs>
       <use xlink:href="#DejaVuSans-37"/>
       <use xlink:href="#DejaVuSans-30" x="63.623047"/>
      </g>
     </g>
    </g>
    <g id="ytick_4">
     <g id="line2d_8">
      <g>
       <use xlink:href="#mc82f83f5c4" x="58.471875" y="93.933812" style="stroke: #000000; stroke-width: 0.8"/>
      </g>
     </g>
     <g id="text_8">
      <!-- 80 -->
      <g transform="translate(33.656875 99.252719) scale(0.14 -0.14)">
       <use xlink:href="#DejaVuSans-38"/>
       <use xlink:href="#DejaVuSans-30" x="63.623047"/>
      </g>
     </g>
    </g>
    <g id="ytick_5">
     <g id="line2d_9">
      <g>
       <use xlink:href="#mc82f83f5c4" x="58.471875" y="58.885812" style="stroke: #000000; stroke-width: 0.8"/>
      </g>
     </g>
     <g id="text_9">
      <!-- 90 -->
      <g transform="translate(33.656875 64.204719) scale(0.14 -0.14)">
       <defs>
        <path id="DejaVuSans-39" d="M 703 97 
L 703 672 
Q 941 559 1184 500 
Q 1428 441 1663 441 
Q 2288 441 2617 861 
Q 2947 1281 2994 2138 
Q 2813 1869 2534 1725 
Q 2256 1581 1919 1581 
Q 1219 1581 811 2004 
Q 403 2428 403 3163 
Q 403 3881 828 4315 
Q 1253 4750 1959 4750 
Q 2769 4750 3195 4129 
Q 3622 3509 3622 2328 
Q 3622 1225 3098 567 
Q 2575 -91 1691 -91 
Q 1453 -91 1209 -44 
Q 966 3 703 97 
z
M 1959 2075 
Q 2384 2075 2632 2365 
Q 2881 2656 2881 3163 
Q 2881 3666 2632 3958 
Q 2384 4250 1959 4250 
Q 1534 4250 1286 3958 
Q 1038 3666 1038 3163 
Q 1038 2656 1286 2365 
Q 1534 2075 1959 2075 
z
" transform="scale(0.015625)"/>
       </defs>
       <use xlink:href="#DejaVuSans-39"/>
       <use xlink:href="#DejaVuSans-30" x="63.623047"/>
      </g>
     </g>
    </g>
    <g id="ytick_6">
     <g id="line2d_10">
      <g>
       <use xlink:href="#mc82f83f5c4" x="58.471875" y="23.837812" style="stroke: #000000; stroke-width: 0.8"/>
      </g>
     </g>
     <g id="text_10">
      <!-- 100 -->
      <g transform="translate(24.749375 29.156719) scale(0.14 -0.14)">
       <use xlink:href="#DejaVuSans-31"/>
       <use xlink:href="#DejaVuSans-30" x="63.623047"/>
       <use xlink:href="#DejaVuSans-30" x="127.246094"/>
      </g>
     </g>
    </g>
    <g id="text_11">
     <!-- Predicted -->
     <g transform="translate(17.837813 144.31625) rotate(-90) scale(0.14 -0.14)">
      <defs>
       <path id="DejaVuSans-50" d="M 1259 4147 
L 1259 2394 
L 2053 2394 
Q 2494 2394 2734 2622 
Q 2975 2850 2975 3272 
Q 2975 3691 2734 3919 
Q 2494 4147 2053 4147 
L 1259 4147 
z
M 628 4666 
L 2053 4666 
Q 2838 4666 3239 4311 
Q 3641 3956 3641 3272 
Q 3641 2581 3239 2228 
Q 2838 1875 2053 1875 
L 1259 1875 
L 1259 0 
L 628 0 
L 628 4666 
z
" transform="scale(0.015625)"/>
       <path id="DejaVuSans-72" d="M 2631 2963 
Q 2534 3019 2420 3045 
Q 2306 3072 2169 3072 
Q 1681 3072 1420 2755 
Q 1159 2438 1159 1844 
L 1159 0 
L 581 0 
L 581 3500 
L 1159 3500 
L 1159 2956 
Q 1341 3275 1631 3429 
Q 1922 3584 2338 3584 
Q 2397 3584 2469 3576 
Q 2541 3569 2628 3553 
L 2631 2963 
z
" transform="scale(0.015625)"/>
       <path id="DejaVuSans-65" d="M 3597 1894 
L 3597 1613 
L 953 1613 
Q 991 1019 1311 708 
Q 1631 397 2203 397 
Q 2534 397 2845 478 
Q 3156 559 3463 722 
L 3463 178 
Q 3153 47 2828 -22 
Q 2503 -91 2169 -91 
Q 1331 -91 842 396 
Q 353 884 353 1716 
Q 353 2575 817 3079 
Q 1281 3584 2069 3584 
Q 2775 3584 3186 3129 
Q 3597 2675 3597 1894 
z
M 3022 2063 
Q 3016 2534 2758 2815 
Q 2500 3097 2075 3097 
Q 1594 3097 1305 2825 
Q 1016 2553 972 2059 
L 3022 2063 
z
" transform="scale(0.015625)"/>
       <path id="DejaVuSans-64" d="M 2906 2969 
L 2906 4863 
L 3481 4863 
L 3481 0 
L 2906 0 
L 2906 525 
Q 2725 213 2448 61 
Q 2172 -91 1784 -91 
Q 1150 -91 751 415 
Q 353 922 353 1747 
Q 353 2572 751 3078 
Q 1150 3584 1784 3584 
Q 2172 3584 2448 3432 
Q 2725 3281 2906 2969 
z
M 947 1747 
Q 947 1113 1208 752 
Q 1469 391 1925 391 
Q 2381 391 2643 752 
Q 2906 1113 2906 1747 
Q 2906 2381 2643 2742 
Q 2381 3103 1925 3103 
Q 1469 3103 1208 2742 
Q 947 2381 947 1747 
z
" transform="scale(0.015625)"/>
       <path id="DejaVuSans-69" d="M 603 3500 
L 1178 3500 
L 1178 0 
L 603 0 
L 603 3500 
z
M 603 4863 
L 1178 4863 
L 1178 4134 
L 603 4134 
L 603 4863 
z
" transform="scale(0.015625)"/>
      </defs>
      <use xlink:href="#DejaVuSans-50"/>
      <use xlink:href="#DejaVuSans-72" x="58.552734"/>
      <use xlink:href="#DejaVuSans-65" x="97.416016"/>
      <use xlink:href="#DejaVuSans-64" x="158.939453"/>
      <use xlink:href="#DejaVuSans-69" x="222.416016"/>
      <use xlink:href="#DejaVuSans-63" x="250.199219"/>
      <use xlink:href="#DejaVuSans-74" x="305.179688"/>
      <use xlink:href="#DejaVuSans-65" x="344.388672"/>
      <use xlink:href="#DejaVuSans-64" x="405.912109"/>
     </g>
    </g>
   </g>
   <g id="patch_3">
    <path d="M 58.471875 199.077812 
L 58.471875 23.837812 
" style="fill: none; stroke: #000000; stroke-width: 0.8; stroke-linejoin: miter; stroke-linecap: square"/>
   </g>
   <g id="patch_4">
    <path d="M 263.051257 199.077812 
L 263.051257 23.837812 
" style="fill: none; stroke: #000000; stroke-width: 0.8; stroke-linejoin: miter; stroke-linecap: square"/>
   </g>
   <g id="patch_5">
    <path d="M 58.471875 199.077812 
L 263.051257 199.077812 
" style="fill: none; stroke: #000000; stroke-width: 0.8; stroke-linejoin: miter; stroke-linecap: square"/>
   </g>
   <g id="patch_6">
    <path d="M 58.471875 23.837812 
L 263.051257 23.837812 
" style="fill: none; stroke: #000000; stroke-width: 0.8; stroke-linejoin: miter; stroke-linecap: square"/>
   </g>
   <g id="text_12">
    <!-- Current model 1 -->
    <g transform="translate(103.77391 17.837812) scale(0.14 -0.14)">
     <defs>
      <path id="DejaVuSans-43" d="M 4122 4306 
L 4122 3641 
Q 3803 3938 3442 4084 
Q 3081 4231 2675 4231 
Q 1875 4231 1450 3742 
Q 1025 3253 1025 2328 
Q 1025 1406 1450 917 
Q 1875 428 2675 428 
Q 3081 428 3442 575 
Q 3803 722 4122 1019 
L 4122 359 
Q 3791 134 3420 21 
Q 3050 -91 2638 -91 
Q 1578 -91 968 557 
Q 359 1206 359 2328 
Q 359 3453 968 4101 
Q 1578 4750 2638 4750 
Q 3056 4750 3426 4639 
Q 3797 4528 4122 4306 
z
" transform="scale(0.015625)"/>
      <path id="DejaVuSans-6e" d="M 3513 2113 
L 3513 0 
L 2938 0 
L 2938 2094 
Q 2938 2591 2744 2837 
Q 2550 3084 2163 3084 
Q 1697 3084 1428 2787 
Q 1159 2491 1159 1978 
L 1159 0 
L 581 0 
L 581 3500 
L 1159 3500 
L 1159 2956 
Q 1366 3272 1645 3428 
Q 1925 3584 2291 3584 
Q 2894 3584 3203 3211 
Q 3513 2838 3513 2113 
z
" transform="scale(0.015625)"/>
      <path id="DejaVuSans-20" transform="scale(0.015625)"/>
      <path id="DejaVuSans-6d" d="M 3328 2828 
Q 3544 3216 3844 3400 
Q 4144 3584 4550 3584 
Q 5097 3584 5394 3201 
Q 5691 2819 5691 2113 
L 5691 0 
L 5113 0 
L 5113 2094 
Q 5113 2597 4934 2840 
Q 4756 3084 4391 3084 
Q 3944 3084 3684 2787 
Q 3425 2491 3425 1978 
L 3425 0 
L 2847 0 
L 2847 2094 
Q 2847 2600 2669 2842 
Q 2491 3084 2119 3084 
Q 1678 3084 1418 2786 
Q 1159 2488 1159 1978 
L 1159 0 
L 581 0 
L 581 3500 
L 1159 3500 
L 1159 2956 
Q 1356 3278 1631 3431 
Q 1906 3584 2284 3584 
Q 2666 3584 2933 3390 
Q 3200 3197 3328 2828 
z
" transform="scale(0.015625)"/>
      <path id="DejaVuSans-6f" d="M 1959 3097 
Q 1497 3097 1228 2736 
Q 959 2375 959 1747 
Q 959 1119 1226 758 
Q 1494 397 1959 397 
Q 2419 397 2687 759 
Q 2956 1122 2956 1747 
Q 2956 2369 2687 2733 
Q 2419 3097 1959 3097 
z
M 1959 3584 
Q 2709 3584 3137 3096 
Q 3566 2609 3566 1747 
Q 3566 888 3137 398 
Q 2709 -91 1959 -91 
Q 1206 -91 779 398 
Q 353 888 353 1747 
Q 353 2609 779 3096 
Q 1206 3584 1959 3584 
z
" transform="scale(0.015625)"/>
     </defs>
     <use xlink:href="#DejaVuSans-43"/>
     <use xlink:href="#DejaVuSans-75" x="69.824219"/>
     <use xlink:href="#DejaVuSans-72" x="133.203125"/>
     <use xlink:href="#DejaVuSans-72" x="172.566406"/>
     <use xlink:href="#DejaVuSans-65" x="211.429688"/>
     <use xlink:href="#DejaVuSans-6e" x="272.953125"/>
     <use xlink:href="#DejaVuSans-74" x="336.332031"/>
     <use xlink:href="#DejaVuSans-20" x="375.541016"/>
     <use xlink:href="#DejaVuSans-6d" x="407.328125"/>
     <use xlink:href="#DejaVuSans-6f" x="504.740234"/>
     <use xlink:href="#DejaVuSans-64" x="565.921875"/>
     <use xlink:href="#DejaVuSans-65" x="629.398438"/>
     <use xlink:href="#DejaVuSans-6c" x="690.921875"/>
     <use xlink:href="#DejaVuSans-20" x="718.705078"/>
     <use xlink:href="#DejaVuSans-31" x="750.492188"/>
    </g>
   </g>
  </g>
  <g id="axes_2">
   <g id="patch_7">
    <path d="M 291.536257 199.077812 
L 342.681103 199.077812 
L 342.681103 23.837812 
L 291.536257 23.837812 
z
" style="fill: #ffffff"/>
   </g>
   <g id="patch_8">
    <path d="M 291.536257 191.112358 
L 291.536257 191.112358 
L 291.536257 184.474479 
L 291.536257 184.474479 
z
" clip-path="url(#pb49be520c0)" style="fill: #3e356b; stroke: #808080; stroke-linejoin: miter"/>
   </g>
   <g id="patch_9">
    <path d="M 291.536257 184.474479 
L 291.536257 184.474479 
L 291.536257 177.8366 
L 291.536257 177.8366 
z
" clip-path="url(#pb49be520c0)" style="fill: #3e356b; stroke: #808080; stroke-linejoin: miter"/>
   </g>
   <g id="patch_10">
    <path d="M 291.536257 177.8366 
L 291.536257 177.8366 
L 291.536257 171.198722 
L 291.536257 171.198722 
z
" clip-path="url(#pb49be520c0)" style="fill: #3e356b; stroke: #808080; stroke-linejoin: miter"/>
   </g>
   <g id="patch_11">
    <path d="M 291.536257 171.198722 
L 293.340308 171.198722 
L 293.340308 164.560843 
L 291.536257 164.560843 
z
" clip-path="url(#pb49be520c0)" style="fill: #3e356b; stroke: #808080; stroke-linejoin: miter"/>
   </g>
   <g id="patch_12">
    <path d="M 291.536257 164.560843 
L 293.340308 164.560843 
L 293.340308 157.922964 
L 291.536257 157.922964 
z
" clip-path="url(#pb49be520c0)" style="fill: #3e356b; stroke: #808080; stroke-linejoin: miter"/>
   </g>
   <g id="patch_13">
    <path d="M 291.536257 157.922964 
L 291.536257 157.922964 
L 291.536257 151.285085 
L 291.536257 151.285085 
z
" clip-path="url(#pb49be520c0)" style="fill: #3e356b; stroke: #808080; stroke-linejoin: miter"/>
   </g>
   <g id="patch_14">
    <path d="M 291.536257 151.285085 
L 295.144359 151.285085 
L 295.144359 144.647206 
L 291.536257 144.647206 
z
" clip-path="url(#pb49be520c0)" style="fill: #3e356b; stroke: #808080; stroke-linejoin: miter"/>
   </g>
   <g id="patch_15">
    <path d="M 291.536257 144.647206 
L 296.94841 144.647206 
L 296.94841 138.009328 
L 291.536257 138.009328 
z
" clip-path="url(#pb49be520c0)" style="fill: #3e356b; stroke: #808080; stroke-linejoin: miter"/>
   </g>
   <g id="patch_16">
    <path d="M 291.536257 138.009328 
L 325.813226 138.009328 
L 325.813226 131.371449 
L 291.536257 131.371449 
z
" clip-path="url(#pb49be520c0)" style="fill: #3e356b; stroke: #808080; stroke-linejoin: miter"/>
   </g>
   <g id="patch_17">
    <path d="M 291.536257 131.371449 
L 314.98892 131.371449 
L 314.98892 124.73357 
L 291.536257 124.73357 
z
" clip-path="url(#pb49be520c0)" style="fill: #3e356b; stroke: #808080; stroke-linejoin: miter"/>
   </g>
   <g id="patch_18">
    <path d="M 291.536257 124.73357 
L 340.245634 124.73357 
L 340.245634 118.095691 
L 291.536257 118.095691 
z
" clip-path="url(#pb49be520c0)" style="fill: #3e356b; stroke: #808080; stroke-linejoin: miter"/>
   </g>
   <g id="patch_19">
    <path d="M 291.536257 118.095691 
L 296.94841 118.095691 
L 296.94841 111.457812 
L 291.536257 111.457812 
z
" clip-path="url(#pb49be520c0)" style="fill: #3e356b; stroke: #808080; stroke-linejoin: miter"/>
   </g>
   <g id="patch_20">
    <path d="M 291.536257 111.457812 
L 296.94841 111.457812 
L 296.94841 104.819934 
L 291.536257 104.819934 
z
" clip-path="url(#pb49be520c0)" style="fill: #3e356b; stroke: #808080; stroke-linejoin: miter"/>
   </g>
   <g id="patch_21">
    <path d="M 291.536257 104.819934 
L 293.340308 104.819934 
L 293.340308 98.182055 
L 291.536257 98.182055 
z
" clip-path="url(#pb49be520c0)" style="fill: #3e356b; stroke: #808080; stroke-linejoin: miter"/>
   </g>
   <g id="patch_22">
    <path d="M 291.536257 98.182055 
L 295.144359 98.182055 
L 295.144359 91.544176 
L 291.536257 91.544176 
z
" clip-path="url(#pb49be520c0)" style="fill: #3e356b; stroke: #808080; stroke-linejoin: miter"/>
   </g>
   <g id="patch_23">
    <path d="M 291.536257 91.544176 
L 291.536257 91.544176 
L 291.536257 84.906297 
L 291.536257 84.906297 
z
" clip-path="url(#pb49be520c0)" style="fill: #3e356b; stroke: #808080; stroke-linejoin: miter"/>
   </g>
   <g id="patch_24">
    <path d="M 291.536257 84.906297 
L 291.536257 84.906297 
L 291.536257 78.268419 
L 291.536257 78.268419 
z
" clip-path="url(#pb49be520c0)" style="fill: #3e356b; stroke: #808080; stroke-linejoin: miter"/>
   </g>
   <g id="patch_25">
    <path d="M 291.536257 78.268419 
L 293.340308 78.268419 
L 293.340308 71.63054 
L 291.536257 71.63054 
z
" clip-path="url(#pb49be520c0)" style="fill: #3e356b; stroke: #808080; stroke-linejoin: miter"/>
   </g>
   <g id="patch_26">
    <path d="M 291.536257 71.63054 
L 291.536257 71.63054 
L 291.536257 64.992661 
L 291.536257 64.992661 
z
" clip-path="url(#pb49be520c0)" style="fill: #3e356b; stroke: #808080; stroke-linejoin: miter"/>
   </g>
   <g id="patch_27">
    <path d="M 291.536257 64.992661 
L 291.536257 64.992661 
L 291.536257 58.354782 
L 291.536257 58.354782 
z
" clip-path="url(#pb49be520c0)" style="fill: #3e356b; stroke: #808080; stroke-linejoin: miter"/>
   </g>
   <g id="patch_28">
    <path d="M 291.536257 58.354782 
L 291.536257 58.354782 
L 291.536257 51.716903 
L 291.536257 51.716903 
z
" clip-path="url(#pb49be520c0)" style="fill: #3e356b; stroke: #808080; stroke-linejoin: miter"/>
   </g>
   <g id="patch_29">
    <path d="M 291.536257 51.716903 
L 291.536257 51.716903 
L 291.536257 45.079025 
L 291.536257 45.079025 
z
" clip-path="url(#pb49be520c0)" style="fill: #3e356b; stroke: #808080; stroke-linejoin: miter"/>
   </g>
   <g id="patch_30">
    <path d="M 291.536257 45.079025 
L 291.536257 45.079025 
L 291.536257 38.441146 
L 291.536257 38.441146 
z
" clip-path="url(#pb49be520c0)" style="fill: #3e356b; stroke: #808080; stroke-linejoin: miter"/>
   </g>
   <g id="patch_31">
    <path d="M 291.536257 38.441146 
L 291.536257 38.441146 
L 291.536257 31.803267 
L 291.536257 31.803267 
z
" clip-path="url(#pb49be520c0)" style="fill: #3e356b; stroke: #808080; stroke-linejoin: miter"/>
   </g>
   <g id="patch_32">
    <path d="M 291.536257 191.112358 
L 293.340308 191.112358 
L 293.340308 184.474479 
L 291.536257 184.474479 
z
" clip-path="url(#pb49be520c0)" style="fill: #357ba3; stroke: #808080; stroke-linejoin: miter"/>
   </g>
   <g id="patch_33">
    <path d="M 291.536257 184.474479 
L 291.536257 184.474479 
L 291.536257 177.8366 
L 291.536257 177.8366 
z
" clip-path="url(#pb49be520c0)" style="fill: #357ba3; stroke: #808080; stroke-linejoin: miter"/>
   </g>
   <g id="patch_34">
    <path d="M 291.536257 177.8366 
L 291.536257 177.8366 
L 291.536257 171.198722 
L 291.536257 171.198722 
z
" clip-path="url(#pb49be520c0)" style="fill: #357ba3; stroke: #808080; stroke-linejoin: miter"/>
   </g>
   <g id="patch_35">
    <path d="M 291.536257 171.198722 
L 291.536257 171.198722 
L 291.536257 164.560843 
L 291.536257 164.560843 
z
" clip-path="url(#pb49be520c0)" style="fill: #357ba3; stroke: #808080; stroke-linejoin: miter"/>
   </g>
   <g id="patch_36">
    <path d="M 291.536257 164.560843 
L 291.536257 164.560843 
L 291.536257 157.922964 
L 291.536257 157.922964 
z
" clip-path="url(#pb49be520c0)" style="fill: #357ba3; stroke: #808080; stroke-linejoin: miter"/>
   </g>
   <g id="patch_37">
    <path d="M 291.536257 157.922964 
L 291.536257 157.922964 
L 291.536257 151.285085 
L 291.536257 151.285085 
z
" clip-path="url(#pb49be520c0)" style="fill: #357ba3; stroke: #808080; stroke-linejoin: miter"/>
   </g>
   <g id="patch_38">
    <path d="M 291.536257 151.285085 
L 298.752461 151.285085 
L 298.752461 144.647206 
L 291.536257 144.647206 
z
" clip-path="url(#pb49be520c0)" style="fill: #357ba3; stroke: #808080; stroke-linejoin: miter"/>
   </g>
   <g id="patch_39">
    <path d="M 291.536257 144.647206 
L 293.340308 144.647206 
L 293.340308 138.009328 
L 291.536257 138.009328 
z
" clip-path="url(#pb49be520c0)" style="fill: #357ba3; stroke: #808080; stroke-linejoin: miter"/>
   </g>
   <g id="patch_40">
    <path d="M 291.536257 138.009328 
L 298.752461 138.009328 
L 298.752461 131.371449 
L 291.536257 131.371449 
z
" clip-path="url(#pb49be520c0)" style="fill: #357ba3; stroke: #808080; stroke-linejoin: miter"/>
   </g>
   <g id="patch_41">
    <path d="M 291.536257 131.371449 
L 293.340308 131.371449 
L 293.340308 124.73357 
L 291.536257 124.73357 
z
" clip-path="url(#pb49be520c0)" style="fill: #357ba3; stroke: #808080; stroke-linejoin: miter"/>
   </g>
   <g id="patch_42">
    <path d="M 291.536257 124.73357 
L 291.536257 124.73357 
L 291.536257 118.095691 
L 291.536257 118.095691 
z
" clip-path="url(#pb49be520c0)" style="fill: #357ba3; stroke: #808080; stroke-linejoin: miter"/>
   </g>
   <g id="patch_43">
    <path d="M 291.536257 118.095691 
L 298.752461 118.095691 
L 298.752461 111.457812 
L 291.536257 111.457812 
z
" clip-path="url(#pb49be520c0)" style="fill: #357ba3; stroke: #808080; stroke-linejoin: miter"/>
   </g>
   <g id="patch_44">
    <path d="M 291.536257 111.457812 
L 291.536257 111.457812 
L 291.536257 104.819934 
L 291.536257 104.819934 
z
" clip-path="url(#pb49be520c0)" style="fill: #357ba3; stroke: #808080; stroke-linejoin: miter"/>
   </g>
   <g id="patch_45">
    <path d="M 291.536257 104.819934 
L 291.536257 104.819934 
L 291.536257 98.182055 
L 291.536257 98.182055 
z
" clip-path="url(#pb49be520c0)" style="fill: #357ba3; stroke: #808080; stroke-linejoin: miter"/>
   </g>
   <g id="patch_46">
    <path d="M 291.536257 98.182055 
L 291.536257 98.182055 
L 291.536257 91.544176 
L 291.536257 91.544176 
z
" clip-path="url(#pb49be520c0)" style="fill: #357ba3; stroke: #808080; stroke-linejoin: miter"/>
   </g>
   <g id="patch_47">
    <path d="M 291.536257 91.544176 
L 291.536257 91.544176 
L 291.536257 84.906297 
L 291.536257 84.906297 
z
" clip-path="url(#pb49be520c0)" style="fill: #357ba3; stroke: #808080; stroke-linejoin: miter"/>
   </g>
   <g id="patch_48">
    <path d="M 291.536257 84.906297 
L 293.340308 84.906297 
L 293.340308 78.268419 
L 291.536257 78.268419 
z
" clip-path="url(#pb49be520c0)" style="fill: #357ba3; stroke: #808080; stroke-linejoin: miter"/>
   </g>
   <g id="patch_49">
    <path d="M 291.536257 78.268419 
L 293.340308 78.268419 
L 293.340308 71.63054 
L 291.536257 71.63054 
z
" clip-path="url(#pb49be520c0)" style="fill: #357ba3; stroke: #808080; stroke-linejoin: miter"/>
   </g>
   <g id="patch_50">
    <path d="M 291.536257 71.63054 
L 293.340308 71.63054 
L 293.340308 64.992661 
L 291.536257 64.992661 
z
" clip-path="url(#pb49be520c0)" style="fill: #357ba3; stroke: #808080; stroke-linejoin: miter"/>
   </g>
   <g id="patch_51">
    <path d="M 291.536257 64.992661 
L 293.340308 64.992661 
L 293.340308 58.354782 
L 291.536257 58.354782 
z
" clip-path="url(#pb49be520c0)" style="fill: #357ba3; stroke: #808080; stroke-linejoin: miter"/>
   </g>
   <g id="patch_52">
    <path d="M 291.536257 58.354782 
L 291.536257 58.354782 
L 291.536257 51.716903 
L 291.536257 51.716903 
z
" clip-path="url(#pb49be520c0)" style="fill: #357ba3; stroke: #808080; stroke-linejoin: miter"/>
   </g>
   <g id="patch_53">
    <path d="M 291.536257 51.716903 
L 291.536257 51.716903 
L 291.536257 45.079025 
L 291.536257 45.079025 
z
" clip-path="url(#pb49be520c0)" style="fill: #357ba3; stroke: #808080; stroke-linejoin: miter"/>
   </g>
   <g id="patch_54">
    <path d="M 291.536257 45.079025 
L 291.536257 45.079025 
L 291.536257 38.441146 
L 291.536257 38.441146 
z
" clip-path="url(#pb49be520c0)" style="fill: #357ba3; stroke: #808080; stroke-linejoin: miter"/>
   </g>
   <g id="patch_55">
    <path d="M 291.536257 38.441146 
L 293.340308 38.441146 
L 293.340308 31.803267 
L 291.536257 31.803267 
z
" clip-path="url(#pb49be520c0)" style="fill: #357ba3; stroke: #808080; stroke-linejoin: miter"/>
   </g>
   <g id="patch_56">
    <path d="M 291.536257 191.112358 
L 291.536257 191.112358 
L 291.536257 184.474479 
L 291.536257 184.474479 
z
" clip-path="url(#pb49be520c0)" style="fill: #4bc2ad; stroke: #808080; stroke-linejoin: miter"/>
   </g>
   <g id="patch_57">
    <path d="M 291.536257 184.474479 
L 291.536257 184.474479 
L 291.536257 177.8366 
L 291.536257 177.8366 
z
" clip-path="url(#pb49be520c0)" style="fill: #4bc2ad; stroke: #808080; stroke-linejoin: miter"/>
   </g>
   <g id="patch_58">
    <path d="M 291.536257 177.8366 
L 293.340308 177.8366 
L 293.340308 171.198722 
L 291.536257 171.198722 
z
" clip-path="url(#pb49be520c0)" style="fill: #4bc2ad; stroke: #808080; stroke-linejoin: miter"/>
   </g>
   <g id="patch_59">
    <path d="M 291.536257 171.198722 
L 295.144359 171.198722 
L 295.144359 164.560843 
L 291.536257 164.560843 
z
" clip-path="url(#pb49be520c0)" style="fill: #4bc2ad; stroke: #808080; stroke-linejoin: miter"/>
   </g>
   <g id="patch_60">
    <path d="M 291.536257 164.560843 
L 291.536257 164.560843 
L 291.536257 157.922964 
L 291.536257 157.922964 
z
" clip-path="url(#pb49be520c0)" style="fill: #4bc2ad; stroke: #808080; stroke-linejoin: miter"/>
   </g>
   <g id="patch_61">
    <path d="M 291.536257 157.922964 
L 293.340308 157.922964 
L 293.340308 151.285085 
L 291.536257 151.285085 
z
" clip-path="url(#pb49be520c0)" style="fill: #4bc2ad; stroke: #808080; stroke-linejoin: miter"/>
   </g>
   <g id="patch_62">
    <path d="M 291.536257 151.285085 
L 291.536257 151.285085 
L 291.536257 144.647206 
L 291.536257 144.647206 
z
" clip-path="url(#pb49be520c0)" style="fill: #4bc2ad; stroke: #808080; stroke-linejoin: miter"/>
   </g>
   <g id="patch_63">
    <path d="M 291.536257 144.647206 
L 293.340308 144.647206 
L 293.340308 138.009328 
L 291.536257 138.009328 
z
" clip-path="url(#pb49be520c0)" style="fill: #4bc2ad; stroke: #808080; stroke-linejoin: miter"/>
   </g>
   <g id="patch_64">
    <path d="M 291.536257 138.009328 
L 293.340308 138.009328 
L 293.340308 131.371449 
L 291.536257 131.371449 
z
" clip-path="url(#pb49be520c0)" style="fill: #4bc2ad; stroke: #808080; stroke-linejoin: miter"/>
   </g>
   <g id="patch_65">
    <path d="M 291.536257 131.371449 
L 291.536257 131.371449 
L 291.536257 124.73357 
L 291.536257 124.73357 
z
" clip-path="url(#pb49be520c0)" style="fill: #4bc2ad; stroke: #808080; stroke-linejoin: miter"/>
   </g>
   <g id="patch_66">
    <path d="M 291.536257 124.73357 
L 291.536257 124.73357 
L 291.536257 118.095691 
L 291.536257 118.095691 
z
" clip-path="url(#pb49be520c0)" style="fill: #4bc2ad; stroke: #808080; stroke-linejoin: miter"/>
   </g>
   <g id="patch_67">
    <path d="M 291.536257 118.095691 
L 291.536257 118.095691 
L 291.536257 111.457812 
L 291.536257 111.457812 
z
" clip-path="url(#pb49be520c0)" style="fill: #4bc2ad; stroke: #808080; stroke-linejoin: miter"/>
   </g>
   <g id="patch_68">
    <path d="M 291.536257 111.457812 
L 291.536257 111.457812 
L 291.536257 104.819934 
L 291.536257 104.819934 
z
" clip-path="url(#pb49be520c0)" style="fill: #4bc2ad; stroke: #808080; stroke-linejoin: miter"/>
   </g>
   <g id="patch_69">
    <path d="M 291.536257 104.819934 
L 291.536257 104.819934 
L 291.536257 98.182055 
L 291.536257 98.182055 
z
" clip-path="url(#pb49be520c0)" style="fill: #4bc2ad; stroke: #808080; stroke-linejoin: miter"/>
   </g>
   <g id="patch_70">
    <path d="M 291.536257 98.182055 
L 291.536257 98.182055 
L 291.536257 91.544176 
L 291.536257 91.544176 
z
" clip-path="url(#pb49be520c0)" style="fill: #4bc2ad; stroke: #808080; stroke-linejoin: miter"/>
   </g>
   <g id="patch_71">
    <path d="M 291.536257 91.544176 
L 293.340308 91.544176 
L 293.340308 84.906297 
L 291.536257 84.906297 
z
" clip-path="url(#pb49be520c0)" style="fill: #4bc2ad; stroke: #808080; stroke-linejoin: miter"/>
   </g>
   <g id="patch_72">
    <path d="M 291.536257 84.906297 
L 291.536257 84.906297 
L 291.536257 78.268419 
L 291.536257 78.268419 
z
" clip-path="url(#pb49be520c0)" style="fill: #4bc2ad; stroke: #808080; stroke-linejoin: miter"/>
   </g>
   <g id="patch_73">
    <path d="M 291.536257 78.268419 
L 293.340308 78.268419 
L 293.340308 71.63054 
L 291.536257 71.63054 
z
" clip-path="url(#pb49be520c0)" style="fill: #4bc2ad; stroke: #808080; stroke-linejoin: miter"/>
   </g>
   <g id="patch_74">
    <path d="M 291.536257 71.63054 
L 293.340308 71.63054 
L 293.340308 64.992661 
L 291.536257 64.992661 
z
" clip-path="url(#pb49be520c0)" style="fill: #4bc2ad; stroke: #808080; stroke-linejoin: miter"/>
   </g>
   <g id="patch_75">
    <path d="M 291.536257 64.992661 
L 291.536257 64.992661 
L 291.536257 58.354782 
L 291.536257 58.354782 
z
" clip-path="url(#pb49be520c0)" style="fill: #4bc2ad; stroke: #808080; stroke-linejoin: miter"/>
   </g>
   <g id="patch_76">
    <path d="M 291.536257 58.354782 
L 293.340308 58.354782 
L 293.340308 51.716903 
L 291.536257 51.716903 
z
" clip-path="url(#pb49be520c0)" style="fill: #4bc2ad; stroke: #808080; stroke-linejoin: miter"/>
   </g>
   <g id="patch_77">
    <path d="M 291.536257 51.716903 
L 291.536257 51.716903 
L 291.536257 45.079025 
L 291.536257 45.079025 
z
" clip-path="url(#pb49be520c0)" style="fill: #4bc2ad; stroke: #808080; stroke-linejoin: miter"/>
   </g>
   <g id="patch_78">
    <path d="M 291.536257 45.079025 
L 291.536257 45.079025 
L 291.536257 38.441146 
L 291.536257 38.441146 
z
" clip-path="url(#pb49be520c0)" style="fill: #4bc2ad; stroke: #808080; stroke-linejoin: miter"/>
   </g>
   <g id="patch_79">
    <path d="M 291.536257 38.441146 
L 295.144359 38.441146 
L 295.144359 31.803267 
L 291.536257 31.803267 
z
" clip-path="url(#pb49be520c0)" style="fill: #4bc2ad; stroke: #808080; stroke-linejoin: miter"/>
   </g>
   <g id="matplotlib.axis_3">
    <g id="xtick_4">
     <g id="line2d_11">
      <g>
       <use xlink:href="#m7c97f9ba0c" x="291.536257" y="199.077812" style="stroke: #000000; stroke-width: 0.8"/>
      </g>
     </g>
     <g id="text_13">
      <!-- 0 -->
      <g transform="translate(287.082507 216.715625) scale(0.14 -0.14)">
       <use xlink:href="#DejaVuSans-30"/>
      </g>
     </g>
    </g>
    <g id="xtick_5">
     <g id="line2d_12">
      <g>
       <use xlink:href="#m7c97f9ba0c" x="336.637532" y="199.077812" style="stroke: #000000; stroke-width: 0.8"/>
      </g>
     </g>
     <g id="text_14">
      <!-- 25 -->
      <g transform="translate(327.730032 216.715625) scale(0.14 -0.14)">
       <defs>
        <path id="DejaVuSans-32" d="M 1228 531 
L 3431 531 
L 3431 0 
L 469 0 
L 469 531 
Q 828 903 1448 1529 
Q 2069 2156 2228 2338 
Q 2531 2678 2651 2914 
Q 2772 3150 2772 3378 
Q 2772 3750 2511 3984 
Q 2250 4219 1831 4219 
Q 1534 4219 1204 4116 
Q 875 4013 500 3803 
L 500 4441 
Q 881 4594 1212 4672 
Q 1544 4750 1819 4750 
Q 2544 4750 2975 4387 
Q 3406 4025 3406 3419 
Q 3406 3131 3298 2873 
Q 3191 2616 2906 2266 
Q 2828 2175 2409 1742 
Q 1991 1309 1228 531 
z
" transform="scale(0.015625)"/>
       </defs>
       <use xlink:href="#DejaVuSans-32"/>
       <use xlink:href="#DejaVuSans-35" x="63.623047"/>
      </g>
     </g>
    </g>
    <g id="text_15">
     <!-- Counts -->
     <g transform="translate(292.674305 234.265) scale(0.14 -0.14)">
      <defs>
       <path id="DejaVuSans-73" d="M 2834 3397 
L 2834 2853 
Q 2591 2978 2328 3040 
Q 2066 3103 1784 3103 
Q 1356 3103 1142 2972 
Q 928 2841 928 2578 
Q 928 2378 1081 2264 
Q 1234 2150 1697 2047 
L 1894 2003 
Q 2506 1872 2764 1633 
Q 3022 1394 3022 966 
Q 3022 478 2636 193 
Q 2250 -91 1575 -91 
Q 1294 -91 989 -36 
Q 684 19 347 128 
L 347 722 
Q 666 556 975 473 
Q 1284 391 1588 391 
Q 1994 391 2212 530 
Q 2431 669 2431 922 
Q 2431 1156 2273 1281 
Q 2116 1406 1581 1522 
L 1381 1569 
Q 847 1681 609 1914 
Q 372 2147 372 2553 
Q 372 3047 722 3315 
Q 1072 3584 1716 3584 
Q 2034 3584 2315 3537 
Q 2597 3491 2834 3397 
z
" transform="scale(0.015625)"/>
      </defs>
      <use xlink:href="#DejaVuSans-43"/>
      <use xlink:href="#DejaVuSans-6f" x="69.824219"/>
      <use xlink:href="#DejaVuSans-75" x="131.005859"/>
      <use xlink:href="#DejaVuSans-6e" x="194.384766"/>
      <use xlink:href="#DejaVuSans-74" x="257.763672"/>
      <use xlink:href="#DejaVuSans-73" x="296.972656"/>
     </g>
    </g>
   </g>
   <g id="matplotlib.axis_4"/>
   <g id="line2d_13">
    <path d="M 291.536257 126.880689 
L 342.681103 126.880689 
" clip-path="url(#pb49be520c0)" style="fill: none; stroke-dasharray: 5.55,2.4; stroke-dashoffset: 0; stroke: #808080; stroke-width: 1.5"/>
   </g>
   <g id="patch_80">
    <path d="M 291.536257 199.077812 
L 291.536257 23.837812 
" style="fill: none; stroke: #000000; stroke-width: 0.8; stroke-linejoin: miter; stroke-linecap: square"/>
   </g>
   <g id="patch_81">
    <path d="M 342.681103 199.077812 
L 342.681103 23.837812 
" style="fill: none; stroke: #000000; stroke-width: 0.8; stroke-linejoin: miter; stroke-linecap: square"/>
   </g>
   <g id="patch_82">
    <path d="M 291.536257 199.077812 
L 342.681103 199.077812 
" style="fill: none; stroke: #000000; stroke-width: 0.8; stroke-linejoin: miter; stroke-linecap: square"/>
   </g>
   <g id="patch_83">
    <path d="M 291.536257 23.837812 
L 342.681103 23.837812 
" style="fill: none; stroke: #000000; stroke-width: 0.8; stroke-linejoin: miter; stroke-linecap: square"/>
   </g>
  </g>
 </g>
 <defs>
  <clipPath id="p1f1ee5820a">
   <rect x="58.471875" y="23.837812" width="204.579382" height="175.24"/>
  </clipPath>
  <clipPath id="pb49be520c0">
   <rect x="291.536257" y="23.837812" width="51.144846" height="175.24"/>
  </clipPath>
 </defs>
</svg>
