<?xml version="1.0" encoding="utf-8" standalone="no"?>
<!DOCTYPE svg PUBLIC "-//W3C//DTD SVG 1.1//EN"
  "http://www.w3.org/Graphics/SVG/1.1/DTD/svg11.dtd">
<svg xmlns:xlink="http://www.w3.org/1999/xlink" width="352.715944pt" height="244.376562pt" viewBox="0 0 352.715944 244.376562" xmlns="http://www.w3.org/2000/svg" version="1.1">
 <metadata>
  <rdf:RDF xmlns:dc="http://purl.org/dc/elements/1.1/" xmlns:cc="http://creativecommons.org/ns#" xmlns:rdf="http://www.w3.org/1999/02/22-rdf-syntax-ns#">
   <cc:Work>
    <dc:type rdf:resource="http://purl.org/dc/dcmitype/StillImage"/>
    <dc:date>2025-02-22T21:50:20.362405</dc:date>
    <dc:format>image/svg+xml</dc:format>
    <dc:creator>
     <cc:Agent>
      <dc:title>Matplotlib v3.10.0, https://matplotlib.org/</dc:title>
     </cc:Agent>
    </dc:creator>
   </cc:Work>
  </rdf:RDF>
 </metadata>
 <defs>
  <style type="text/css">*{stroke-linejoin: round; stroke-linecap: butt}</style>
 </defs>
 <g id="figure_1">
  <g id="patch_1">
   <path d="M 0 244.376562 
L 352.715944 244.376562 
L 352.715944 0 
L 0 0 
z
" style="fill: #ffffff"/>
  </g>
  <g id="axes_1">
   <g id="patch_2">
    <path d="M 58.471875 199.077812 
L 265.301562 199.077812 
L 265.301562 23.837812 
L 58.471875 23.837812 
z
" style="fill: #ffffff"/>
   </g>
   <g id="line2d_1">
    <path d="M 58.471875 199.077812 
L 265.301562 23.837812 
" clip-path="url(#p032aa71fa4)" style="fill: none; stroke-dasharray: 7.4,3.2; stroke-dashoffset: 0; stroke: #808080; stroke-width: 2"/>
   </g>
   <g id="PathCollection_1">
    <defs>
     <path id="mb1c5f6ae5c" d="M 0 5 
C 1.326016 5 2.597899 4.473168 3.535534 3.535534 
C 4.473168 2.597899 5 1.326016 5 0 
C 5 -1.326016 4.473168 -2.597899 3.535534 -3.535534 
C 2.597899 -4.473168 1.326016 -5 0 -5 
C -1.326016 -5 -2.597899 -4.473168 -3.535534 -3.535534 
C -4.473168 -2.597899 -5 -1.326016 -5 0 
C -5 1.326016 -4.473168 2.597899 -3.535534 3.535534 
C -2.597899 4.473168 -1.326016 5 0 5 
z
" style="stroke: #3e356b"/>
    </defs>
    <g clip-path="url(#p032aa71fa4)">
     <use xlink:href="#mb1c5f6ae5c" x="165.758507" y="118.086767" style="fill: #3e356b; stroke: #3e356b"/>
     <use xlink:href="#mb1c5f6ae5c" x="174.83353" y="101.158472" style="fill: #3e356b; stroke: #3e356b"/>
     <use xlink:href="#mb1c5f6ae5c" x="170.267021" y="106.172252" style="fill: #3e356b; stroke: #3e356b"/>
     <use xlink:href="#mb1c5f6ae5c" x="168.417334" y="107.075792" style="fill: #3e356b; stroke: #3e356b"/>
     <use xlink:href="#mb1c5f6ae5c" x="183.662222" y="90.748912" style="fill: #3e356b; stroke: #3e356b"/>
     <use xlink:href="#mb1c5f6ae5c" x="177.164949" y="100.142205" style="fill: #3e356b; stroke: #3e356b"/>
     <use xlink:href="#mb1c5f6ae5c" x="177.664256" y="96.18895" style="fill: #3e356b; stroke: #3e356b"/>
     <use xlink:href="#mb1c5f6ae5c" x="180.653187" y="97.324707" style="fill: #3e356b; stroke: #3e356b"/>
     <use xlink:href="#mb1c5f6ae5c" x="200.55317" y="81.87761" style="fill: #3e356b; stroke: #3e356b"/>
     <use xlink:href="#mb1c5f6ae5c" x="181.559314" y="95.052096" style="fill: #3e356b; stroke: #3e356b"/>
     <use xlink:href="#mb1c5f6ae5c" x="111.281252" y="152.061374" style="fill: #3e356b; stroke: #3e356b"/>
     <use xlink:href="#mb1c5f6ae5c" x="198.918432" y="83.98466" style="fill: #3e356b; stroke: #3e356b"/>
     <use xlink:href="#mb1c5f6ae5c" x="156.20507" y="115.551903" style="fill: #3e356b; stroke: #3e356b"/>
     <use xlink:href="#mb1c5f6ae5c" x="151.006877" y="121.326264" style="fill: #3e356b; stroke: #3e356b"/>
     <use xlink:href="#mb1c5f6ae5c" x="146.469749" y="123.400743" style="fill: #3e356b; stroke: #3e356b"/>
     <use xlink:href="#mb1c5f6ae5c" x="181.090956" y="97.574689" style="fill: #3e356b; stroke: #3e356b"/>
     <use xlink:href="#mb1c5f6ae5c" x="197.523935" y="86.937936" style="fill: #3e356b; stroke: #3e356b"/>
     <use xlink:href="#mb1c5f6ae5c" x="180.166092" y="95.351277" style="fill: #3e356b; stroke: #3e356b"/>
     <use xlink:href="#mb1c5f6ae5c" x="194.756728" y="87.213945" style="fill: #3e356b; stroke: #3e356b"/>
     <use xlink:href="#mb1c5f6ae5c" x="143.947319" y="123.982429" style="fill: #3e356b; stroke: #3e356b"/>
     <use xlink:href="#mb1c5f6ae5c" x="96.569987" y="154.728183" style="fill: #3e356b; stroke: #3e356b"/>
     <use xlink:href="#mb1c5f6ae5c" x="161.17678" y="111.04554" style="fill: #3e356b; stroke: #3e356b"/>
     <use xlink:href="#mb1c5f6ae5c" x="159.55303" y="111.874127" style="fill: #3e356b; stroke: #3e356b"/>
     <use xlink:href="#mb1c5f6ae5c" x="108.321551" y="150.249802" style="fill: #3e356b; stroke: #3e356b"/>
     <use xlink:href="#mb1c5f6ae5c" x="145.957984" y="123.919593" style="fill: #3e356b; stroke: #3e356b"/>
     <use xlink:href="#mb1c5f6ae5c" x="165.093373" y="109.544225" style="fill: #3e356b; stroke: #3e356b"/>
     <use xlink:href="#mb1c5f6ae5c" x="164.34745" y="109.7356" style="fill: #3e356b; stroke: #3e356b"/>
     <use xlink:href="#mb1c5f6ae5c" x="195.07798" y="84.238645" style="fill: #3e356b; stroke: #3e356b"/>
     <use xlink:href="#mb1c5f6ae5c" x="142.127652" y="124.67945" style="fill: #3e356b; stroke: #3e356b"/>
     <use xlink:href="#mb1c5f6ae5c" x="204.113312" y="78.323844" style="fill: #3e356b; stroke: #3e356b"/>
     <use xlink:href="#mb1c5f6ae5c" x="145.644457" y="124.685594" style="fill: #3e356b; stroke: #3e356b"/>
     <use xlink:href="#mb1c5f6ae5c" x="194.695784" y="84.455926" style="fill: #3e356b; stroke: #3e356b"/>
     <use xlink:href="#mb1c5f6ae5c" x="181.512962" y="95.677645" style="fill: #3e356b; stroke: #3e356b"/>
     <use xlink:href="#mb1c5f6ae5c" x="181.356021" y="91.241528" style="fill: #3e356b; stroke: #3e356b"/>
     <use xlink:href="#mb1c5f6ae5c" x="160.934803" y="110.731601" style="fill: #3e356b; stroke: #3e356b"/>
     <use xlink:href="#mb1c5f6ae5c" x="110.598365" y="151.574192" style="fill: #3e356b; stroke: #3e356b"/>
     <use xlink:href="#mb1c5f6ae5c" x="129.049924" y="133.653437" style="fill: #3e356b; stroke: #3e356b"/>
     <use xlink:href="#mb1c5f6ae5c" x="149.513312" y="123.236375" style="fill: #3e356b; stroke: #3e356b"/>
     <use xlink:href="#mb1c5f6ae5c" x="165.387304" y="104.903096" style="fill: #3e356b; stroke: #3e356b"/>
     <use xlink:href="#mb1c5f6ae5c" x="174.178491" y="106.091916" style="fill: #3e356b; stroke: #3e356b"/>
     <use xlink:href="#mb1c5f6ae5c" x="186.166291" y="91.049947" style="fill: #3e356b; stroke: #3e356b"/>
     <use xlink:href="#mb1c5f6ae5c" x="169.394493" y="105.721894" style="fill: #3e356b; stroke: #3e356b"/>
     <use xlink:href="#mb1c5f6ae5c" x="184.761353" y="89.058538" style="fill: #3e356b; stroke: #3e356b"/>
     <use xlink:href="#mb1c5f6ae5c" x="151.42719" y="116.083657" style="fill: #3e356b; stroke: #3e356b"/>
     <use xlink:href="#mb1c5f6ae5c" x="163.956137" y="105.106156" style="fill: #3e356b; stroke: #3e356b"/>
     <use xlink:href="#mb1c5f6ae5c" x="146.46906" y="123.777569" style="fill: #3e356b; stroke: #3e356b"/>
     <use xlink:href="#mb1c5f6ae5c" x="162.070043" y="110.624798" style="fill: #3e356b; stroke: #3e356b"/>
     <use xlink:href="#mb1c5f6ae5c" x="155.924363" y="115.352968" style="fill: #3e356b; stroke: #3e356b"/>
     <use xlink:href="#mb1c5f6ae5c" x="175.466721" y="98.310227" style="fill: #3e356b; stroke: #3e356b"/>
     <use xlink:href="#mb1c5f6ae5c" x="164.746381" y="111.247517" style="fill: #3e356b; stroke: #3e356b"/>
     <use xlink:href="#mb1c5f6ae5c" x="203.407089" y="79.280899" style="fill: #3e356b; stroke: #3e356b"/>
     <use xlink:href="#mb1c5f6ae5c" x="149.101091" y="123.464381" style="fill: #3e356b; stroke: #3e356b"/>
     <use xlink:href="#mb1c5f6ae5c" x="169.711797" y="105.548396" style="fill: #3e356b; stroke: #3e356b"/>
     <use xlink:href="#mb1c5f6ae5c" x="165.064532" y="108.186899" style="fill: #3e356b; stroke: #3e356b"/>
     <use xlink:href="#mb1c5f6ae5c" x="182.607965" y="92.869181" style="fill: #3e356b; stroke: #3e356b"/>
     <use xlink:href="#mb1c5f6ae5c" x="200.267561" y="84.024" style="fill: #3e356b; stroke: #3e356b"/>
     <use xlink:href="#mb1c5f6ae5c" x="190.48065" y="88.696352" style="fill: #3e356b; stroke: #3e356b"/>
     <use xlink:href="#mb1c5f6ae5c" x="165.787171" y="104.238066" style="fill: #3e356b; stroke: #3e356b"/>
     <use xlink:href="#mb1c5f6ae5c" x="179.777298" y="95.078253" style="fill: #3e356b; stroke: #3e356b"/>
     <use xlink:href="#mb1c5f6ae5c" x="97.550142" y="162.9327" style="fill: #3e356b; stroke: #3e356b"/>
     <use xlink:href="#mb1c5f6ae5c" x="191.778275" y="88.435368" style="fill: #3e356b; stroke: #3e356b"/>
     <use xlink:href="#mb1c5f6ae5c" x="177.574947" y="96.536608" style="fill: #3e356b; stroke: #3e356b"/>
     <use xlink:href="#mb1c5f6ae5c" x="161.262809" y="111.658446" style="fill: #3e356b; stroke: #3e356b"/>
     <use xlink:href="#mb1c5f6ae5c" x="164.600218" y="105.005492" style="fill: #3e356b; stroke: #3e356b"/>
     <use xlink:href="#mb1c5f6ae5c" x="187.65492" y="93.212933" style="fill: #3e356b; stroke: #3e356b"/>
     <use xlink:href="#mb1c5f6ae5c" x="199.055983" y="82.267044" style="fill: #3e356b; stroke: #3e356b"/>
     <use xlink:href="#mb1c5f6ae5c" x="151.981453" y="135.880635" style="fill: #3e356b; stroke: #3e356b"/>
     <use xlink:href="#mb1c5f6ae5c" x="165.315468" y="107.288184" style="fill: #3e356b; stroke: #3e356b"/>
     <use xlink:href="#mb1c5f6ae5c" x="109.715594" y="153.014839" style="fill: #3e356b; stroke: #3e356b"/>
     <use xlink:href="#mb1c5f6ae5c" x="177.527855" y="97.459958" style="fill: #3e356b; stroke: #3e356b"/>
     <use xlink:href="#mb1c5f6ae5c" x="174.817951" y="101.331094" style="fill: #3e356b; stroke: #3e356b"/>
     <use xlink:href="#mb1c5f6ae5c" x="185.477306" y="93.196674" style="fill: #3e356b; stroke: #3e356b"/>
     <use xlink:href="#mb1c5f6ae5c" x="186.276634" y="90.817625" style="fill: #3e356b; stroke: #3e356b"/>
     <use xlink:href="#mb1c5f6ae5c" x="160.67639" y="110.839198" style="fill: #3e356b; stroke: #3e356b"/>
     <use xlink:href="#mb1c5f6ae5c" x="164.982306" y="107.123822" style="fill: #3e356b; stroke: #3e356b"/>
     <use xlink:href="#mb1c5f6ae5c" x="183.922541" y="92.43861" style="fill: #3e356b; stroke: #3e356b"/>
    </g>
   </g>
   <g id="PathCollection_2">
    <defs>
     <path id="maa8e1d54a8" d="M -2.5 5 
L 0 2.5 
L 2.5 5 
L 5 2.5 
L 2.5 0 
L 5 -2.5 
L 2.5 -5 
L 0 -2.5 
L -2.5 -5 
L -5 -2.5 
L -2.5 0 
L -5 2.5 
z
" style="stroke: #357ba3"/>
    </defs>
    <g clip-path="url(#p032aa71fa4)">
     <use xlink:href="#maa8e1d54a8" x="189.172721" y="82.663181" style="fill: #357ba3; stroke: #357ba3"/>
     <use xlink:href="#maa8e1d54a8" x="198.303969" y="93.044936" style="fill: #357ba3; stroke: #357ba3"/>
     <use xlink:href="#maa8e1d54a8" x="167.830901" y="107.742264" style="fill: #357ba3; stroke: #357ba3"/>
     <use xlink:href="#maa8e1d54a8" x="205.607687" y="84.859208" style="fill: #357ba3; stroke: #357ba3"/>
     <use xlink:href="#maa8e1d54a8" x="180.019486" y="102.890019" style="fill: #357ba3; stroke: #357ba3"/>
     <use xlink:href="#maa8e1d54a8" x="181.663997" y="96.705216" style="fill: #357ba3; stroke: #357ba3"/>
     <use xlink:href="#maa8e1d54a8" x="198.794094" y="89.591161" style="fill: #357ba3; stroke: #357ba3"/>
     <use xlink:href="#maa8e1d54a8" x="178.675343" y="96.22281" style="fill: #357ba3; stroke: #357ba3"/>
     <use xlink:href="#maa8e1d54a8" x="189.28974" y="88.145546" style="fill: #357ba3; stroke: #357ba3"/>
     <use xlink:href="#maa8e1d54a8" x="169.636645" y="105.808988" style="fill: #357ba3; stroke: #357ba3"/>
     <use xlink:href="#maa8e1d54a8" x="185.6154" y="92.864252" style="fill: #357ba3; stroke: #357ba3"/>
     <use xlink:href="#maa8e1d54a8" x="180.366902" y="103.872848" style="fill: #357ba3; stroke: #357ba3"/>
     <use xlink:href="#maa8e1d54a8" x="178.099324" y="91.004007" style="fill: #357ba3; stroke: #357ba3"/>
     <use xlink:href="#maa8e1d54a8" x="199.79681" y="88.293922" style="fill: #357ba3; stroke: #357ba3"/>
     <use xlink:href="#maa8e1d54a8" x="167.776781" y="106.260171" style="fill: #357ba3; stroke: #357ba3"/>
     <use xlink:href="#maa8e1d54a8" x="204.530869" y="79.573457" style="fill: #357ba3; stroke: #357ba3"/>
     <use xlink:href="#maa8e1d54a8" x="156.981576" y="140.486633" style="fill: #357ba3; stroke: #357ba3"/>
     <use xlink:href="#maa8e1d54a8" x="188.641638" y="88.503249" style="fill: #357ba3; stroke: #357ba3"/>
     <use xlink:href="#maa8e1d54a8" x="128.492607" y="129.967597" style="fill: #357ba3; stroke: #357ba3"/>
     <use xlink:href="#maa8e1d54a8" x="166.855195" y="111.814891" style="fill: #357ba3; stroke: #357ba3"/>
    </g>
   </g>
   <g id="PathCollection_3">
    <defs>
     <path id="m122758919a" d="M 0 -5 
L -5 5 
L 5 5 
z
" style="stroke: #4bc2ad"/>
    </defs>
    <g clip-path="url(#p032aa71fa4)">
     <use xlink:href="#m122758919a" x="195.027022" y="94.713359" style="fill: #4bc2ad; stroke: #4bc2ad"/>
     <use xlink:href="#m122758919a" x="170.066837" y="88.522363" style="fill: #4bc2ad; stroke: #4bc2ad"/>
     <use xlink:href="#m122758919a" x="166.487289" y="108.276584" style="fill: #4bc2ad; stroke: #4bc2ad"/>
     <use xlink:href="#m122758919a" x="148.544738" y="102.898789" style="fill: #4bc2ad; stroke: #4bc2ad"/>
     <use xlink:href="#m122758919a" x="195.809745" y="93.821814" style="fill: #4bc2ad; stroke: #4bc2ad"/>
     <use xlink:href="#m122758919a" x="170.824171" y="92.781094" style="fill: #4bc2ad; stroke: #4bc2ad"/>
     <use xlink:href="#m122758919a" x="153.410915" y="90.761491" style="fill: #4bc2ad; stroke: #4bc2ad"/>
     <use xlink:href="#m122758919a" x="195.794393" y="93.150761" style="fill: #4bc2ad; stroke: #4bc2ad"/>
     <use xlink:href="#m122758919a" x="135.60223" y="110.917864" style="fill: #4bc2ad; stroke: #4bc2ad"/>
     <use xlink:href="#m122758919a" x="168.870913" y="112.34049" style="fill: #4bc2ad; stroke: #4bc2ad"/>
     <use xlink:href="#m122758919a" x="154.574952" y="92.886365" style="fill: #4bc2ad; stroke: #4bc2ad"/>
     <use xlink:href="#m122758919a" x="194.348687" y="89.193353" style="fill: #4bc2ad; stroke: #4bc2ad"/>
    </g>
   </g>
   <g id="matplotlib.axis_1">
    <g id="xtick_1">
     <g id="line2d_2">
      <defs>
       <path id="mde09f1f4f4" d="M 0 0 
L 0 3.5 
" style="stroke: #000000; stroke-width: 0.8"/>
      </defs>
      <g>
       <use xlink:href="#mde09f1f4f4" x="99.837812" y="199.077812" style="stroke: #000000; stroke-width: 0.8"/>
      </g>
     </g>
     <g id="text_1">
      <!-- 60 -->
      <g transform="translate(90.930312 216.715625) scale(0.14 -0.14)">
       <defs>
        <path id="DejaVuSans-36" d="M 2113 2584 
Q 1688 2584 1439 2293 
Q 1191 2003 1191 1497 
Q 1191 994 1439 701 
Q 1688 409 2113 409 
Q 2538 409 2786 701 
Q 3034 994 3034 1497 
Q 3034 2003 2786 2293 
Q 2538 2584 2113 2584 
z
M 3366 4563 
L 3366 3988 
Q 3128 4100 2886 4159 
Q 2644 4219 2406 4219 
Q 1781 4219 1451 3797 
Q 1122 3375 1075 2522 
Q 1259 2794 1537 2939 
Q 1816 3084 2150 3084 
Q 2853 3084 3261 2657 
Q 3669 2231 3669 1497 
Q 3669 778 3244 343 
Q 2819 -91 2113 -91 
Q 1303 -91 875 529 
Q 447 1150 447 2328 
Q 447 3434 972 4092 
Q 1497 4750 2381 4750 
Q 2619 4750 2861 4703 
Q 3103 4656 3366 4563 
z
" transform="scale(0.015625)"/>
        <path id="DejaVuSans-30" d="M 2034 4250 
Q 1547 4250 1301 3770 
Q 1056 3291 1056 2328 
Q 1056 1369 1301 889 
Q 1547 409 2034 409 
Q 2525 409 2770 889 
Q 3016 1369 3016 2328 
Q 3016 3291 2770 3770 
Q 2525 4250 2034 4250 
z
M 2034 4750 
Q 2819 4750 3233 4129 
Q 3647 3509 3647 2328 
Q 3647 1150 3233 529 
Q 2819 -91 2034 -91 
Q 1250 -91 836 529 
Q 422 1150 422 2328 
Q 422 3509 836 4129 
Q 1250 4750 2034 4750 
z
" transform="scale(0.015625)"/>
       </defs>
       <use xlink:href="#DejaVuSans-36"/>
       <use xlink:href="#DejaVuSans-30" transform="translate(63.623047 0)"/>
      </g>
     </g>
    </g>
    <g id="xtick_2">
     <g id="line2d_3">
      <g>
       <use xlink:href="#mde09f1f4f4" x="182.569687" y="199.077812" style="stroke: #000000; stroke-width: 0.8"/>
      </g>
     </g>
     <g id="text_2">
      <!-- 80 -->
      <g transform="translate(173.662187 216.715625) scale(0.14 -0.14)">
       <defs>
        <path id="DejaVuSans-38" d="M 2034 2216 
Q 1584 2216 1326 1975 
Q 1069 1734 1069 1313 
Q 1069 891 1326 650 
Q 1584 409 2034 409 
Q 2484 409 2743 651 
Q 3003 894 3003 1313 
Q 3003 1734 2745 1975 
Q 2488 2216 2034 2216 
z
M 1403 2484 
Q 997 2584 770 2862 
Q 544 3141 544 3541 
Q 544 4100 942 4425 
Q 1341 4750 2034 4750 
Q 2731 4750 3128 4425 
Q 3525 4100 3525 3541 
Q 3525 3141 3298 2862 
Q 3072 2584 2669 2484 
Q 3125 2378 3379 2068 
Q 3634 1759 3634 1313 
Q 3634 634 3220 271 
Q 2806 -91 2034 -91 
Q 1263 -91 848 271 
Q 434 634 434 1313 
Q 434 1759 690 2068 
Q 947 2378 1403 2484 
z
M 1172 3481 
Q 1172 3119 1398 2916 
Q 1625 2713 2034 2713 
Q 2441 2713 2670 2916 
Q 2900 3119 2900 3481 
Q 2900 3844 2670 4047 
Q 2441 4250 2034 4250 
Q 1625 4250 1398 4047 
Q 1172 3844 1172 3481 
z
" transform="scale(0.015625)"/>
       </defs>
       <use xlink:href="#DejaVuSans-38"/>
       <use xlink:href="#DejaVuSans-30" transform="translate(63.623047 0)"/>
      </g>
     </g>
    </g>
    <g id="xtick_3">
     <g id="line2d_4">
      <g>
       <use xlink:href="#mde09f1f4f4" x="265.301562" y="199.077812" style="stroke: #000000; stroke-width: 0.8"/>
      </g>
     </g>
     <g id="text_3">
      <!-- 100 -->
      <g transform="translate(251.940312 216.715625) scale(0.14 -0.14)">
       <defs>
        <path id="DejaVuSans-31" d="M 794 531 
L 1825 531 
L 1825 4091 
L 703 3866 
L 703 4441 
L 1819 4666 
L 2450 4666 
L 2450 531 
L 3481 531 
L 3481 0 
L 794 0 
L 794 531 
z
" transform="scale(0.015625)"/>
       </defs>
       <use xlink:href="#DejaVuSans-31"/>
       <use xlink:href="#DejaVuSans-30" transform="translate(63.623047 0)"/>
       <use xlink:href="#DejaVuSans-30" transform="translate(127.246094 0)"/>
      </g>
     </g>
    </g>
    <g id="text_4">
     <!-- Actual -->
     <g transform="translate(139.957031 234.265) scale(0.14 -0.14)">
      <defs>
       <path id="DejaVuSans-41" d="M 2188 4044 
L 1331 1722 
L 3047 1722 
L 2188 4044 
z
M 1831 4666 
L 2547 4666 
L 4325 0 
L 3669 0 
L 3244 1197 
L 1141 1197 
L 716 0 
L 50 0 
L 1831 4666 
z
" transform="scale(0.015625)"/>
       <path id="DejaVuSans-63" d="M 3122 3366 
L 3122 2828 
Q 2878 2963 2633 3030 
Q 2388 3097 2138 3097 
Q 1578 3097 1268 2742 
Q 959 2388 959 1747 
Q 959 1106 1268 751 
Q 1578 397 2138 397 
Q 2388 397 2633 464 
Q 2878 531 3122 666 
L 3122 134 
Q 2881 22 2623 -34 
Q 2366 -91 2075 -91 
Q 1284 -91 818 406 
Q 353 903 353 1747 
Q 353 2603 823 3093 
Q 1294 3584 2113 3584 
Q 2378 3584 2631 3529 
Q 2884 3475 3122 3366 
z
" transform="scale(0.015625)"/>
       <path id="DejaVuSans-74" d="M 1172 4494 
L 1172 3500 
L 2356 3500 
L 2356 3053 
L 1172 3053 
L 1172 1153 
Q 1172 725 1289 603 
Q 1406 481 1766 481 
L 2356 481 
L 2356 0 
L 1766 0 
Q 1100 0 847 248 
Q 594 497 594 1153 
L 594 3053 
L 172 3053 
L 172 3500 
L 594 3500 
L 594 4494 
L 1172 4494 
z
" transform="scale(0.015625)"/>
       <path id="DejaVuSans-75" d="M 544 1381 
L 544 3500 
L 1119 3500 
L 1119 1403 
Q 1119 906 1312 657 
Q 1506 409 1894 409 
Q 2359 409 2629 706 
Q 2900 1003 2900 1516 
L 2900 3500 
L 3475 3500 
L 3475 0 
L 2900 0 
L 2900 538 
Q 2691 219 2414 64 
Q 2138 -91 1772 -91 
Q 1169 -91 856 284 
Q 544 659 544 1381 
z
M 1991 3584 
L 1991 3584 
z
" transform="scale(0.015625)"/>
       <path id="DejaVuSans-61" d="M 2194 1759 
Q 1497 1759 1228 1600 
Q 959 1441 959 1056 
Q 959 750 1161 570 
Q 1363 391 1709 391 
Q 2188 391 2477 730 
Q 2766 1069 2766 1631 
L 2766 1759 
L 2194 1759 
z
M 3341 1997 
L 3341 0 
L 2766 0 
L 2766 531 
Q 2569 213 2275 61 
Q 1981 -91 1556 -91 
Q 1019 -91 701 211 
Q 384 513 384 1019 
Q 384 1609 779 1909 
Q 1175 2209 1959 2209 
L 2766 2209 
L 2766 2266 
Q 2766 2663 2505 2880 
Q 2244 3097 1772 3097 
Q 1472 3097 1187 3025 
Q 903 2953 641 2809 
L 641 3341 
Q 956 3463 1253 3523 
Q 1550 3584 1831 3584 
Q 2591 3584 2966 3190 
Q 3341 2797 3341 1997 
z
" transform="scale(0.015625)"/>
       <path id="DejaVuSans-6c" d="M 603 4863 
L 1178 4863 
L 1178 0 
L 603 0 
L 603 4863 
z
" transform="scale(0.015625)"/>
      </defs>
      <use xlink:href="#DejaVuSans-41"/>
      <use xlink:href="#DejaVuSans-63" transform="translate(66.658203 0)"/>
      <use xlink:href="#DejaVuSans-74" transform="translate(121.638672 0)"/>
      <use xlink:href="#DejaVuSans-75" transform="translate(160.847656 0)"/>
      <use xlink:href="#DejaVuSans-61" transform="translate(224.226562 0)"/>
      <use xlink:href="#DejaVuSans-6c" transform="translate(285.505859 0)"/>
     </g>
    </g>
   </g>
   <g id="matplotlib.axis_2">
    <g id="ytick_1">
     <g id="line2d_5">
      <defs>
       <path id="m9ac37cbcdf" d="M 0 0 
L -3.5 0 
" style="stroke: #000000; stroke-width: 0.8"/>
      </defs>
      <g>
       <use xlink:href="#m9ac37cbcdf" x="58.471875" y="199.077812" style="stroke: #000000; stroke-width: 0.8"/>
      </g>
     </g>
     <g id="text_5">
      <!-- 50 -->
      <g transform="translate(33.656875 204.396719) scale(0.14 -0.14)">
       <defs>
        <path id="DejaVuSans-35" d="M 691 4666 
L 3169 4666 
L 3169 4134 
L 1269 4134 
L 1269 2991 
Q 1406 3038 1543 3061 
Q 1681 3084 1819 3084 
Q 2600 3084 3056 2656 
Q 3513 2228 3513 1497 
Q 3513 744 3044 326 
Q 2575 -91 1722 -91 
Q 1428 -91 1123 -41 
Q 819 9 494 109 
L 494 744 
Q 775 591 1075 516 
Q 1375 441 1709 441 
Q 2250 441 2565 725 
Q 2881 1009 2881 1497 
Q 2881 1984 2565 2268 
Q 2250 2553 1709 2553 
Q 1456 2553 1204 2497 
Q 953 2441 691 2322 
L 691 4666 
z
" transform="scale(0.015625)"/>
       </defs>
       <use xlink:href="#DejaVuSans-35"/>
       <use xlink:href="#DejaVuSans-30" transform="translate(63.623047 0)"/>
      </g>
     </g>
    </g>
    <g id="ytick_2">
     <g id="line2d_6">
      <g>
       <use xlink:href="#m9ac37cbcdf" x="58.471875" y="164.029812" style="stroke: #000000; stroke-width: 0.8"/>
      </g>
     </g>
     <g id="text_6">
      <!-- 60 -->
      <g transform="translate(33.656875 169.348719) scale(0.14 -0.14)">
       <use xlink:href="#DejaVuSans-36"/>
       <use xlink:href="#DejaVuSans-30" transform="translate(63.623047 0)"/>
      </g>
     </g>
    </g>
    <g id="ytick_3">
     <g id="line2d_7">
      <g>
       <use xlink:href="#m9ac37cbcdf" x="58.471875" y="128.981812" style="stroke: #000000; stroke-width: 0.8"/>
      </g>
     </g>
     <g id="text_7">
      <!-- 70 -->
      <g transform="translate(33.656875 134.300719) scale(0.14 -0.14)">
       <defs>
        <path id="DejaVuSans-37" d="M 525 4666 
L 3525 4666 
L 3525 4397 
L 1831 0 
L 1172 0 
L 2766 4134 
L 525 4134 
L 525 4666 
z
" transform="scale(0.015625)"/>
       </defs>
       <use xlink:href="#DejaVuSans-37"/>
       <use xlink:href="#DejaVuSans-30" transform="translate(63.623047 0)"/>
      </g>
     </g>
    </g>
    <g id="ytick_4">
     <g id="line2d_8">
      <g>
       <use xlink:href="#m9ac37cbcdf" x="58.471875" y="93.933812" style="stroke: #000000; stroke-width: 0.8"/>
      </g>
     </g>
     <g id="text_8">
      <!-- 80 -->
      <g transform="translate(33.656875 99.252719) scale(0.14 -0.14)">
       <use xlink:href="#DejaVuSans-38"/>
       <use xlink:href="#DejaVuSans-30" transform="translate(63.623047 0)"/>
      </g>
     </g>
    </g>
    <g id="ytick_5">
     <g id="line2d_9">
      <g>
       <use xlink:href="#m9ac37cbcdf" x="58.471875" y="58.885812" style="stroke: #000000; stroke-width: 0.8"/>
      </g>
     </g>
     <g id="text_9">
      <!-- 90 -->
      <g transform="translate(33.656875 64.204719) scale(0.14 -0.14)">
       <defs>
        <path id="DejaVuSans-39" d="M 703 97 
L 703 672 
Q 941 559 1184 500 
Q 1428 441 1663 441 
Q 2288 441 2617 861 
Q 2947 1281 2994 2138 
Q 2813 1869 2534 1725 
Q 2256 1581 1919 1581 
Q 1219 1581 811 2004 
Q 403 2428 403 3163 
Q 403 3881 828 4315 
Q 1253 4750 1959 4750 
Q 2769 4750 3195 4129 
Q 3622 3509 3622 2328 
Q 3622 1225 3098 567 
Q 2575 -91 1691 -91 
Q 1453 -91 1209 -44 
Q 966 3 703 97 
z
M 1959 2075 
Q 2384 2075 2632 2365 
Q 2881 2656 2881 3163 
Q 2881 3666 2632 3958 
Q 2384 4250 1959 4250 
Q 1534 4250 1286 3958 
Q 1038 3666 1038 3163 
Q 1038 2656 1286 2365 
Q 1534 2075 1959 2075 
z
" transform="scale(0.015625)"/>
       </defs>
       <use xlink:href="#DejaVuSans-39"/>
       <use xlink:href="#DejaVuSans-30" transform="translate(63.623047 0)"/>
      </g>
     </g>
    </g>
    <g id="ytick_6">
     <g id="line2d_10">
      <g>
       <use xlink:href="#m9ac37cbcdf" x="58.471875" y="23.837812" style="stroke: #000000; stroke-width: 0.8"/>
      </g>
     </g>
     <g id="text_10">
      <!-- 100 -->
      <g transform="translate(24.749375 29.156719) scale(0.14 -0.14)">
       <use xlink:href="#DejaVuSans-31"/>
       <use xlink:href="#DejaVuSans-30" transform="translate(63.623047 0)"/>
       <use xlink:href="#DejaVuSans-30" transform="translate(127.246094 0)"/>
      </g>
     </g>
    </g>
    <g id="text_11">
     <!-- Predicted -->
     <g transform="translate(17.837813 144.31625) rotate(-90) scale(0.14 -0.14)">
      <defs>
       <path id="DejaVuSans-50" d="M 1259 4147 
L 1259 2394 
L 2053 2394 
Q 2494 2394 2734 2622 
Q 2975 2850 2975 3272 
Q 2975 3691 2734 3919 
Q 2494 4147 2053 4147 
L 1259 4147 
z
M 628 4666 
L 2053 4666 
Q 2838 4666 3239 4311 
Q 3641 3956 3641 3272 
Q 3641 2581 3239 2228 
Q 2838 1875 2053 1875 
L 1259 1875 
L 1259 0 
L 628 0 
L 628 4666 
z
" transform="scale(0.015625)"/>
       <path id="DejaVuSans-72" d="M 2631 2963 
Q 2534 3019 2420 3045 
Q 2306 3072 2169 3072 
Q 1681 3072 1420 2755 
Q 1159 2438 1159 1844 
L 1159 0 
L 581 0 
L 581 3500 
L 1159 3500 
L 1159 2956 
Q 1341 3275 1631 3429 
Q 1922 3584 2338 3584 
Q 2397 3584 2469 3576 
Q 2541 3569 2628 3553 
L 2631 2963 
z
" transform="scale(0.015625)"/>
       <path id="DejaVuSans-65" d="M 3597 1894 
L 3597 1613 
L 953 1613 
Q 991 1019 1311 708 
Q 1631 397 2203 397 
Q 2534 397 2845 478 
Q 3156 559 3463 722 
L 3463 178 
Q 3153 47 2828 -22 
Q 2503 -91 2169 -91 
Q 1331 -91 842 396 
Q 353 884 353 1716 
Q 353 2575 817 3079 
Q 1281 3584 2069 3584 
Q 2775 3584 3186 3129 
Q 3597 2675 3597 1894 
z
M 3022 2063 
Q 3016 2534 2758 2815 
Q 2500 3097 2075 3097 
Q 1594 3097 1305 2825 
Q 1016 2553 972 2059 
L 3022 2063 
z
" transform="scale(0.015625)"/>
       <path id="DejaVuSans-64" d="M 2906 2969 
L 2906 4863 
L 3481 4863 
L 3481 0 
L 2906 0 
L 2906 525 
Q 2725 213 2448 61 
Q 2172 -91 1784 -91 
Q 1150 -91 751 415 
Q 353 922 353 1747 
Q 353 2572 751 3078 
Q 1150 3584 1784 3584 
Q 2172 3584 2448 3432 
Q 2725 3281 2906 2969 
z
M 947 1747 
Q 947 1113 1208 752 
Q 1469 391 1925 391 
Q 2381 391 2643 752 
Q 2906 1113 2906 1747 
Q 2906 2381 2643 2742 
Q 2381 3103 1925 3103 
Q 1469 3103 1208 2742 
Q 947 2381 947 1747 
z
" transform="scale(0.015625)"/>
       <path id="DejaVuSans-69" d="M 603 3500 
L 1178 3500 
L 1178 0 
L 603 0 
L 603 3500 
z
M 603 4863 
L 1178 4863 
L 1178 4134 
L 603 4134 
L 603 4863 
z
" transform="scale(0.015625)"/>
      </defs>
      <use xlink:href="#DejaVuSans-50"/>
      <use xlink:href="#DejaVuSans-72" transform="translate(58.552734 0)"/>
      <use xlink:href="#DejaVuSans-65" transform="translate(97.416016 0)"/>
      <use xlink:href="#DejaVuSans-64" transform="translate(158.939453 0)"/>
      <use xlink:href="#DejaVuSans-69" transform="translate(222.416016 0)"/>
      <use xlink:href="#DejaVuSans-63" transform="translate(250.199219 0)"/>
      <use xlink:href="#DejaVuSans-74" transform="translate(305.179688 0)"/>
      <use xlink:href="#DejaVuSans-65" transform="translate(344.388672 0)"/>
      <use xlink:href="#DejaVuSans-64" transform="translate(405.912109 0)"/>
     </g>
    </g>
   </g>
   <g id="patch_3">
    <path d="M 58.471875 199.077812 
L 58.471875 23.837812 
" style="fill: none; stroke: #000000; stroke-width: 0.8; stroke-linejoin: miter; stroke-linecap: square"/>
   </g>
   <g id="patch_4">
    <path d="M 265.301562 199.077812 
L 265.301562 23.837812 
" style="fill: none; stroke: #000000; stroke-width: 0.8; stroke-linejoin: miter; stroke-linecap: square"/>
   </g>
   <g id="patch_5">
    <path d="M 58.471875 199.077812 
L 265.301562 199.077812 
" style="fill: none; stroke: #000000; stroke-width: 0.8; stroke-linejoin: miter; stroke-linecap: square"/>
   </g>
   <g id="patch_6">
    <path d="M 58.471875 23.837812 
L 265.301562 23.837812 
" style="fill: none; stroke: #000000; stroke-width: 0.8; stroke-linejoin: miter; stroke-linecap: square"/>
   </g>
   <g id="text_12">
    <!-- Test MAPE: 5.32% -->
    <g style="fill: #495057" transform="translate(141.20375 192.068212) scale(0.12 -0.12)">
     <defs>
      <path id="DejaVuSans-54" d="M -19 4666 
L 3928 4666 
L 3928 4134 
L 2272 4134 
L 2272 0 
L 1638 0 
L 1638 4134 
L -19 4134 
L -19 4666 
z
" transform="scale(0.015625)"/>
      <path id="DejaVuSans-73" d="M 2834 3397 
L 2834 2853 
Q 2591 2978 2328 3040 
Q 2066 3103 1784 3103 
Q 1356 3103 1142 2972 
Q 928 2841 928 2578 
Q 928 2378 1081 2264 
Q 1234 2150 1697 2047 
L 1894 2003 
Q 2506 1872 2764 1633 
Q 3022 1394 3022 966 
Q 3022 478 2636 193 
Q 2250 -91 1575 -91 
Q 1294 -91 989 -36 
Q 684 19 347 128 
L 347 722 
Q 666 556 975 473 
Q 1284 391 1588 391 
Q 1994 391 2212 530 
Q 2431 669 2431 922 
Q 2431 1156 2273 1281 
Q 2116 1406 1581 1522 
L 1381 1569 
Q 847 1681 609 1914 
Q 372 2147 372 2553 
Q 372 3047 722 3315 
Q 1072 3584 1716 3584 
Q 2034 3584 2315 3537 
Q 2597 3491 2834 3397 
z
" transform="scale(0.015625)"/>
      <path id="DejaVuSans-20" transform="scale(0.015625)"/>
      <path id="DejaVuSans-4d" d="M 628 4666 
L 1569 4666 
L 2759 1491 
L 3956 4666 
L 4897 4666 
L 4897 0 
L 4281 0 
L 4281 4097 
L 3078 897 
L 2444 897 
L 1241 4097 
L 1241 0 
L 628 0 
L 628 4666 
z
" transform="scale(0.015625)"/>
      <path id="DejaVuSans-45" d="M 628 4666 
L 3578 4666 
L 3578 4134 
L 1259 4134 
L 1259 2753 
L 3481 2753 
L 3481 2222 
L 1259 2222 
L 1259 531 
L 3634 531 
L 3634 0 
L 628 0 
L 628 4666 
z
" transform="scale(0.015625)"/>
      <path id="DejaVuSans-3a" d="M 750 794 
L 1409 794 
L 1409 0 
L 750 0 
L 750 794 
z
M 750 3309 
L 1409 3309 
L 1409 2516 
L 750 2516 
L 750 3309 
z
" transform="scale(0.015625)"/>
      <path id="DejaVuSans-2e" d="M 684 794 
L 1344 794 
L 1344 0 
L 684 0 
L 684 794 
z
" transform="scale(0.015625)"/>
      <path id="DejaVuSans-33" d="M 2597 2516 
Q 3050 2419 3304 2112 
Q 3559 1806 3559 1356 
Q 3559 666 3084 287 
Q 2609 -91 1734 -91 
Q 1441 -91 1130 -33 
Q 819 25 488 141 
L 488 750 
Q 750 597 1062 519 
Q 1375 441 1716 441 
Q 2309 441 2620 675 
Q 2931 909 2931 1356 
Q 2931 1769 2642 2001 
Q 2353 2234 1838 2234 
L 1294 2234 
L 1294 2753 
L 1863 2753 
Q 2328 2753 2575 2939 
Q 2822 3125 2822 3475 
Q 2822 3834 2567 4026 
Q 2313 4219 1838 4219 
Q 1578 4219 1281 4162 
Q 984 4106 628 3988 
L 628 4550 
Q 988 4650 1302 4700 
Q 1616 4750 1894 4750 
Q 2613 4750 3031 4423 
Q 3450 4097 3450 3541 
Q 3450 3153 3228 2886 
Q 3006 2619 2597 2516 
z
" transform="scale(0.015625)"/>
      <path id="DejaVuSans-32" d="M 1228 531 
L 3431 531 
L 3431 0 
L 469 0 
L 469 531 
Q 828 903 1448 1529 
Q 2069 2156 2228 2338 
Q 2531 2678 2651 2914 
Q 2772 3150 2772 3378 
Q 2772 3750 2511 3984 
Q 2250 4219 1831 4219 
Q 1534 4219 1204 4116 
Q 875 4013 500 3803 
L 500 4441 
Q 881 4594 1212 4672 
Q 1544 4750 1819 4750 
Q 2544 4750 2975 4387 
Q 3406 4025 3406 3419 
Q 3406 3131 3298 2873 
Q 3191 2616 2906 2266 
Q 2828 2175 2409 1742 
Q 1991 1309 1228 531 
z
" transform="scale(0.015625)"/>
      <path id="DejaVuSans-25" d="M 4653 2053 
Q 4381 2053 4226 1822 
Q 4072 1591 4072 1178 
Q 4072 772 4226 539 
Q 4381 306 4653 306 
Q 4919 306 5073 539 
Q 5228 772 5228 1178 
Q 5228 1588 5073 1820 
Q 4919 2053 4653 2053 
z
M 4653 2450 
Q 5147 2450 5437 2106 
Q 5728 1763 5728 1178 
Q 5728 594 5436 251 
Q 5144 -91 4653 -91 
Q 4153 -91 3862 251 
Q 3572 594 3572 1178 
Q 3572 1766 3864 2108 
Q 4156 2450 4653 2450 
z
M 1428 4353 
Q 1159 4353 1004 4120 
Q 850 3888 850 3481 
Q 850 3069 1003 2837 
Q 1156 2606 1428 2606 
Q 1700 2606 1854 2837 
Q 2009 3069 2009 3481 
Q 2009 3884 1853 4118 
Q 1697 4353 1428 4353 
z
M 4250 4750 
L 4750 4750 
L 1831 -91 
L 1331 -91 
L 4250 4750 
z
M 1428 4750 
Q 1922 4750 2215 4408 
Q 2509 4066 2509 3481 
Q 2509 2891 2217 2550 
Q 1925 2209 1428 2209 
Q 931 2209 642 2551 
Q 353 2894 353 3481 
Q 353 4063 643 4406 
Q 934 4750 1428 4750 
z
" transform="scale(0.015625)"/>
     </defs>
     <use xlink:href="#DejaVuSans-54"/>
     <use xlink:href="#DejaVuSans-65" transform="translate(44.083984 0)"/>
     <use xlink:href="#DejaVuSans-73" transform="translate(105.607422 0)"/>
     <use xlink:href="#DejaVuSans-74" transform="translate(157.707031 0)"/>
     <use xlink:href="#DejaVuSans-20" transform="translate(196.916016 0)"/>
     <use xlink:href="#DejaVuSans-4d" transform="translate(228.703125 0)"/>
     <use xlink:href="#DejaVuSans-41" transform="translate(314.982422 0)"/>
     <use xlink:href="#DejaVuSans-50" transform="translate(383.390625 0)"/>
     <use xlink:href="#DejaVuSans-45" transform="translate(443.693359 0)"/>
     <use xlink:href="#DejaVuSans-3a" transform="translate(506.876953 0)"/>
     <use xlink:href="#DejaVuSans-20" transform="translate(540.568359 0)"/>
     <use xlink:href="#DejaVuSans-35" transform="translate(572.355469 0)"/>
     <use xlink:href="#DejaVuSans-2e" transform="translate(635.978516 0)"/>
     <use xlink:href="#DejaVuSans-33" transform="translate(667.765625 0)"/>
     <use xlink:href="#DejaVuSans-32" transform="translate(731.388672 0)"/>
     <use xlink:href="#DejaVuSans-25" transform="translate(795.011719 0)"/>
    </g>
   </g>
   <g id="text_13">
    <!-- Current model 1 -->
    <g transform="translate(104.899062 17.837812) scale(0.14 -0.14)">
     <defs>
      <path id="DejaVuSans-43" d="M 4122 4306 
L 4122 3641 
Q 3803 3938 3442 4084 
Q 3081 4231 2675 4231 
Q 1875 4231 1450 3742 
Q 1025 3253 1025 2328 
Q 1025 1406 1450 917 
Q 1875 428 2675 428 
Q 3081 428 3442 575 
Q 3803 722 4122 1019 
L 4122 359 
Q 3791 134 3420 21 
Q 3050 -91 2638 -91 
Q 1578 -91 968 557 
Q 359 1206 359 2328 
Q 359 3453 968 4101 
Q 1578 4750 2638 4750 
Q 3056 4750 3426 4639 
Q 3797 4528 4122 4306 
z
" transform="scale(0.015625)"/>
      <path id="DejaVuSans-6e" d="M 3513 2113 
L 3513 0 
L 2938 0 
L 2938 2094 
Q 2938 2591 2744 2837 
Q 2550 3084 2163 3084 
Q 1697 3084 1428 2787 
Q 1159 2491 1159 1978 
L 1159 0 
L 581 0 
L 581 3500 
L 1159 3500 
L 1159 2956 
Q 1366 3272 1645 3428 
Q 1925 3584 2291 3584 
Q 2894 3584 3203 3211 
Q 3513 2838 3513 2113 
z
" transform="scale(0.015625)"/>
      <path id="DejaVuSans-6d" d="M 3328 2828 
Q 3544 3216 3844 3400 
Q 4144 3584 4550 3584 
Q 5097 3584 5394 3201 
Q 5691 2819 5691 2113 
L 5691 0 
L 5113 0 
L 5113 2094 
Q 5113 2597 4934 2840 
Q 4756 3084 4391 3084 
Q 3944 3084 3684 2787 
Q 3425 2491 3425 1978 
L 3425 0 
L 2847 0 
L 2847 2094 
Q 2847 2600 2669 2842 
Q 2491 3084 2119 3084 
Q 1678 3084 1418 2786 
Q 1159 2488 1159 1978 
L 1159 0 
L 581 0 
L 581 3500 
L 1159 3500 
L 1159 2956 
Q 1356 3278 1631 3431 
Q 1906 3584 2284 3584 
Q 2666 3584 2933 3390 
Q 3200 3197 3328 2828 
z
" transform="scale(0.015625)"/>
      <path id="DejaVuSans-6f" d="M 1959 3097 
Q 1497 3097 1228 2736 
Q 959 2375 959 1747 
Q 959 1119 1226 758 
Q 1494 397 1959 397 
Q 2419 397 2687 759 
Q 2956 1122 2956 1747 
Q 2956 2369 2687 2733 
Q 2419 3097 1959 3097 
z
M 1959 3584 
Q 2709 3584 3137 3096 
Q 3566 2609 3566 1747 
Q 3566 888 3137 398 
Q 2709 -91 1959 -91 
Q 1206 -91 779 398 
Q 353 888 353 1747 
Q 353 2609 779 3096 
Q 1206 3584 1959 3584 
z
" transform="scale(0.015625)"/>
     </defs>
     <use xlink:href="#DejaVuSans-43"/>
     <use xlink:href="#DejaVuSans-75" transform="translate(69.824219 0)"/>
     <use xlink:href="#DejaVuSans-72" transform="translate(133.203125 0)"/>
     <use xlink:href="#DejaVuSans-72" transform="translate(172.566406 0)"/>
     <use xlink:href="#DejaVuSans-65" transform="translate(211.429688 0)"/>
     <use xlink:href="#DejaVuSans-6e" transform="translate(272.953125 0)"/>
     <use xlink:href="#DejaVuSans-74" transform="translate(336.332031 0)"/>
     <use xlink:href="#DejaVuSans-20" transform="translate(375.541016 0)"/>
     <use xlink:href="#DejaVuSans-6d" transform="translate(407.328125 0)"/>
     <use xlink:href="#DejaVuSans-6f" transform="translate(504.740234 0)"/>
     <use xlink:href="#DejaVuSans-64" transform="translate(565.921875 0)"/>
     <use xlink:href="#DejaVuSans-65" transform="translate(629.398438 0)"/>
     <use xlink:href="#DejaVuSans-6c" transform="translate(690.921875 0)"/>
     <use xlink:href="#DejaVuSans-20" transform="translate(718.705078 0)"/>
     <use xlink:href="#DejaVuSans-31" transform="translate(750.492188 0)"/>
    </g>
   </g>
  </g>
  <g id="axes_2">
   <g id="patch_7">
    <path d="M 293.786562 199.077812 
L 345.493984 199.077812 
L 345.493984 23.837812 
L 293.786562 23.837812 
z
" style="fill: #ffffff"/>
   </g>
   <g id="patch_8">
    <path d="M 293.786562 191.112358 
L 293.786562 191.112358 
L 293.786562 184.474479 
L 293.786562 184.474479 
z
" clip-path="url(#p640150a51b)" style="fill: #3e356b; stroke: #808080; stroke-linejoin: miter"/>
   </g>
   <g id="patch_9">
    <path d="M 293.786562 184.474479 
L 293.786562 184.474479 
L 293.786562 177.8366 
L 293.786562 177.8366 
z
" clip-path="url(#p640150a51b)" style="fill: #3e356b; stroke: #808080; stroke-linejoin: miter"/>
   </g>
   <g id="patch_10">
    <path d="M 293.786562 177.8366 
L 293.786562 177.8366 
L 293.786562 171.198722 
L 293.786562 171.198722 
z
" clip-path="url(#p640150a51b)" style="fill: #3e356b; stroke: #808080; stroke-linejoin: miter"/>
   </g>
   <g id="patch_11">
    <path d="M 293.786562 171.198722 
L 293.786562 171.198722 
L 293.786562 164.560843 
L 293.786562 164.560843 
z
" clip-path="url(#p640150a51b)" style="fill: #3e356b; stroke: #808080; stroke-linejoin: miter"/>
   </g>
   <g id="patch_12">
    <path d="M 293.786562 164.560843 
L 295.927656 164.560843 
L 295.927656 157.922964 
L 293.786562 157.922964 
z
" clip-path="url(#p640150a51b)" style="fill: #3e356b; stroke: #808080; stroke-linejoin: miter"/>
   </g>
   <g id="patch_13">
    <path d="M 293.786562 157.922964 
L 293.786562 157.922964 
L 293.786562 151.285085 
L 293.786562 151.285085 
z
" clip-path="url(#p640150a51b)" style="fill: #3e356b; stroke: #808080; stroke-linejoin: miter"/>
   </g>
   <g id="patch_14">
    <path d="M 293.786562 151.285085 
L 295.927656 151.285085 
L 295.927656 144.647206 
L 293.786562 144.647206 
z
" clip-path="url(#p640150a51b)" style="fill: #3e356b; stroke: #808080; stroke-linejoin: miter"/>
   </g>
   <g id="patch_15">
    <path d="M 293.786562 144.647206 
L 293.786562 144.647206 
L 293.786562 138.009328 
L 293.786562 138.009328 
z
" clip-path="url(#p640150a51b)" style="fill: #3e356b; stroke: #808080; stroke-linejoin: miter"/>
   </g>
   <g id="patch_16">
    <path d="M 293.786562 138.009328 
L 295.927656 138.009328 
L 295.927656 131.371449 
L 293.786562 131.371449 
z
" clip-path="url(#p640150a51b)" style="fill: #3e356b; stroke: #808080; stroke-linejoin: miter"/>
   </g>
   <g id="patch_17">
    <path d="M 293.786562 131.371449 
L 308.774221 131.371449 
L 308.774221 124.73357 
L 293.786562 124.73357 
z
" clip-path="url(#p640150a51b)" style="fill: #3e356b; stroke: #808080; stroke-linejoin: miter"/>
   </g>
   <g id="patch_18">
    <path d="M 293.786562 124.73357 
L 334.46735 124.73357 
L 334.46735 118.095691 
L 293.786562 118.095691 
z
" clip-path="url(#p640150a51b)" style="fill: #3e356b; stroke: #808080; stroke-linejoin: miter"/>
   </g>
   <g id="patch_19">
    <path d="M 293.786562 118.095691 
L 343.031726 118.095691 
L 343.031726 111.457812 
L 293.786562 111.457812 
z
" clip-path="url(#p640150a51b)" style="fill: #3e356b; stroke: #808080; stroke-linejoin: miter"/>
   </g>
   <g id="patch_20">
    <path d="M 293.786562 111.457812 
L 328.044067 111.457812 
L 328.044067 104.819934 
L 293.786562 104.819934 
z
" clip-path="url(#p640150a51b)" style="fill: #3e356b; stroke: #808080; stroke-linejoin: miter"/>
   </g>
   <g id="patch_21">
    <path d="M 293.786562 104.819934 
L 306.633127 104.819934 
L 306.633127 98.182055 
L 293.786562 98.182055 
z
" clip-path="url(#p640150a51b)" style="fill: #3e356b; stroke: #808080; stroke-linejoin: miter"/>
   </g>
   <g id="patch_22">
    <path d="M 293.786562 98.182055 
L 295.927656 98.182055 
L 295.927656 91.544176 
L 293.786562 91.544176 
z
" clip-path="url(#p640150a51b)" style="fill: #3e356b; stroke: #808080; stroke-linejoin: miter"/>
   </g>
   <g id="patch_23">
    <path d="M 293.786562 91.544176 
L 293.786562 91.544176 
L 293.786562 84.906297 
L 293.786562 84.906297 
z
" clip-path="url(#p640150a51b)" style="fill: #3e356b; stroke: #808080; stroke-linejoin: miter"/>
   </g>
   <g id="patch_24">
    <path d="M 293.786562 84.906297 
L 295.927656 84.906297 
L 295.927656 78.268419 
L 293.786562 78.268419 
z
" clip-path="url(#p640150a51b)" style="fill: #3e356b; stroke: #808080; stroke-linejoin: miter"/>
   </g>
   <g id="patch_25">
    <path d="M 293.786562 78.268419 
L 293.786562 78.268419 
L 293.786562 71.63054 
L 293.786562 71.63054 
z
" clip-path="url(#p640150a51b)" style="fill: #3e356b; stroke: #808080; stroke-linejoin: miter"/>
   </g>
   <g id="patch_26">
    <path d="M 293.786562 71.63054 
L 293.786562 71.63054 
L 293.786562 64.992661 
L 293.786562 64.992661 
z
" clip-path="url(#p640150a51b)" style="fill: #3e356b; stroke: #808080; stroke-linejoin: miter"/>
   </g>
   <g id="patch_27">
    <path d="M 293.786562 64.992661 
L 293.786562 64.992661 
L 293.786562 58.354782 
L 293.786562 58.354782 
z
" clip-path="url(#p640150a51b)" style="fill: #3e356b; stroke: #808080; stroke-linejoin: miter"/>
   </g>
   <g id="patch_28">
    <path d="M 293.786562 58.354782 
L 293.786562 58.354782 
L 293.786562 51.716903 
L 293.786562 51.716903 
z
" clip-path="url(#p640150a51b)" style="fill: #3e356b; stroke: #808080; stroke-linejoin: miter"/>
   </g>
   <g id="patch_29">
    <path d="M 293.786562 51.716903 
L 293.786562 51.716903 
L 293.786562 45.079025 
L 293.786562 45.079025 
z
" clip-path="url(#p640150a51b)" style="fill: #3e356b; stroke: #808080; stroke-linejoin: miter"/>
   </g>
   <g id="patch_30">
    <path d="M 293.786562 45.079025 
L 293.786562 45.079025 
L 293.786562 38.441146 
L 293.786562 38.441146 
z
" clip-path="url(#p640150a51b)" style="fill: #3e356b; stroke: #808080; stroke-linejoin: miter"/>
   </g>
   <g id="patch_31">
    <path d="M 293.786562 38.441146 
L 293.786562 38.441146 
L 293.786562 31.803267 
L 293.786562 31.803267 
z
" clip-path="url(#p640150a51b)" style="fill: #3e356b; stroke: #808080; stroke-linejoin: miter"/>
   </g>
   <g id="patch_32">
    <path d="M 293.786562 191.112358 
L 295.927656 191.112358 
L 295.927656 184.474479 
L 293.786562 184.474479 
z
" clip-path="url(#p640150a51b)" style="fill: #357ba3; stroke: #808080; stroke-linejoin: miter"/>
   </g>
   <g id="patch_33">
    <path d="M 293.786562 184.474479 
L 293.786562 184.474479 
L 293.786562 177.8366 
L 293.786562 177.8366 
z
" clip-path="url(#p640150a51b)" style="fill: #357ba3; stroke: #808080; stroke-linejoin: miter"/>
   </g>
   <g id="patch_34">
    <path d="M 293.786562 177.8366 
L 293.786562 177.8366 
L 293.786562 171.198722 
L 293.786562 171.198722 
z
" clip-path="url(#p640150a51b)" style="fill: #357ba3; stroke: #808080; stroke-linejoin: miter"/>
   </g>
   <g id="patch_35">
    <path d="M 293.786562 171.198722 
L 293.786562 171.198722 
L 293.786562 164.560843 
L 293.786562 164.560843 
z
" clip-path="url(#p640150a51b)" style="fill: #357ba3; stroke: #808080; stroke-linejoin: miter"/>
   </g>
   <g id="patch_36">
    <path d="M 293.786562 164.560843 
L 293.786562 164.560843 
L 293.786562 157.922964 
L 293.786562 157.922964 
z
" clip-path="url(#p640150a51b)" style="fill: #357ba3; stroke: #808080; stroke-linejoin: miter"/>
   </g>
   <g id="patch_37">
    <path d="M 293.786562 157.922964 
L 295.927656 157.922964 
L 295.927656 151.285085 
L 293.786562 151.285085 
z
" clip-path="url(#p640150a51b)" style="fill: #357ba3; stroke: #808080; stroke-linejoin: miter"/>
   </g>
   <g id="patch_38">
    <path d="M 293.786562 151.285085 
L 295.927656 151.285085 
L 295.927656 144.647206 
L 293.786562 144.647206 
z
" clip-path="url(#p640150a51b)" style="fill: #357ba3; stroke: #808080; stroke-linejoin: miter"/>
   </g>
   <g id="patch_39">
    <path d="M 293.786562 144.647206 
L 300.209844 144.647206 
L 300.209844 138.009328 
L 293.786562 138.009328 
z
" clip-path="url(#p640150a51b)" style="fill: #357ba3; stroke: #808080; stroke-linejoin: miter"/>
   </g>
   <g id="patch_40">
    <path d="M 293.786562 138.009328 
L 295.927656 138.009328 
L 295.927656 131.371449 
L 293.786562 131.371449 
z
" clip-path="url(#p640150a51b)" style="fill: #357ba3; stroke: #808080; stroke-linejoin: miter"/>
   </g>
   <g id="patch_41">
    <path d="M 293.786562 131.371449 
L 298.06875 131.371449 
L 298.06875 124.73357 
L 293.786562 124.73357 
z
" clip-path="url(#p640150a51b)" style="fill: #357ba3; stroke: #808080; stroke-linejoin: miter"/>
   </g>
   <g id="patch_42">
    <path d="M 293.786562 124.73357 
L 302.350938 124.73357 
L 302.350938 118.095691 
L 293.786562 118.095691 
z
" clip-path="url(#p640150a51b)" style="fill: #357ba3; stroke: #808080; stroke-linejoin: miter"/>
   </g>
   <g id="patch_43">
    <path d="M 293.786562 118.095691 
L 302.350938 118.095691 
L 302.350938 111.457812 
L 293.786562 111.457812 
z
" clip-path="url(#p640150a51b)" style="fill: #357ba3; stroke: #808080; stroke-linejoin: miter"/>
   </g>
   <g id="patch_44">
    <path d="M 293.786562 111.457812 
L 293.786562 111.457812 
L 293.786562 104.819934 
L 293.786562 104.819934 
z
" clip-path="url(#p640150a51b)" style="fill: #357ba3; stroke: #808080; stroke-linejoin: miter"/>
   </g>
   <g id="patch_45">
    <path d="M 293.786562 104.819934 
L 295.927656 104.819934 
L 295.927656 98.182055 
L 293.786562 98.182055 
z
" clip-path="url(#p640150a51b)" style="fill: #357ba3; stroke: #808080; stroke-linejoin: miter"/>
   </g>
   <g id="patch_46">
    <path d="M 293.786562 98.182055 
L 295.927656 98.182055 
L 295.927656 91.544176 
L 293.786562 91.544176 
z
" clip-path="url(#p640150a51b)" style="fill: #357ba3; stroke: #808080; stroke-linejoin: miter"/>
   </g>
   <g id="patch_47">
    <path d="M 293.786562 91.544176 
L 295.927656 91.544176 
L 295.927656 84.906297 
L 293.786562 84.906297 
z
" clip-path="url(#p640150a51b)" style="fill: #357ba3; stroke: #808080; stroke-linejoin: miter"/>
   </g>
   <g id="patch_48">
    <path d="M 293.786562 84.906297 
L 293.786562 84.906297 
L 293.786562 78.268419 
L 293.786562 78.268419 
z
" clip-path="url(#p640150a51b)" style="fill: #357ba3; stroke: #808080; stroke-linejoin: miter"/>
   </g>
   <g id="patch_49">
    <path d="M 293.786562 78.268419 
L 293.786562 78.268419 
L 293.786562 71.63054 
L 293.786562 71.63054 
z
" clip-path="url(#p640150a51b)" style="fill: #357ba3; stroke: #808080; stroke-linejoin: miter"/>
   </g>
   <g id="patch_50">
    <path d="M 293.786562 71.63054 
L 293.786562 71.63054 
L 293.786562 64.992661 
L 293.786562 64.992661 
z
" clip-path="url(#p640150a51b)" style="fill: #357ba3; stroke: #808080; stroke-linejoin: miter"/>
   </g>
   <g id="patch_51">
    <path d="M 293.786562 64.992661 
L 293.786562 64.992661 
L 293.786562 58.354782 
L 293.786562 58.354782 
z
" clip-path="url(#p640150a51b)" style="fill: #357ba3; stroke: #808080; stroke-linejoin: miter"/>
   </g>
   <g id="patch_52">
    <path d="M 293.786562 58.354782 
L 293.786562 58.354782 
L 293.786562 51.716903 
L 293.786562 51.716903 
z
" clip-path="url(#p640150a51b)" style="fill: #357ba3; stroke: #808080; stroke-linejoin: miter"/>
   </g>
   <g id="patch_53">
    <path d="M 293.786562 51.716903 
L 293.786562 51.716903 
L 293.786562 45.079025 
L 293.786562 45.079025 
z
" clip-path="url(#p640150a51b)" style="fill: #357ba3; stroke: #808080; stroke-linejoin: miter"/>
   </g>
   <g id="patch_54">
    <path d="M 293.786562 45.079025 
L 293.786562 45.079025 
L 293.786562 38.441146 
L 293.786562 38.441146 
z
" clip-path="url(#p640150a51b)" style="fill: #357ba3; stroke: #808080; stroke-linejoin: miter"/>
   </g>
   <g id="patch_55">
    <path d="M 293.786562 38.441146 
L 293.786562 38.441146 
L 293.786562 31.803267 
L 293.786562 31.803267 
z
" clip-path="url(#p640150a51b)" style="fill: #357ba3; stroke: #808080; stroke-linejoin: miter"/>
   </g>
   <g id="patch_56">
    <path d="M 293.786562 191.112358 
L 293.786562 191.112358 
L 293.786562 184.474479 
L 293.786562 184.474479 
z
" clip-path="url(#p640150a51b)" style="fill: #4bc2ad; stroke: #808080; stroke-linejoin: miter"/>
   </g>
   <g id="patch_57">
    <path d="M 293.786562 184.474479 
L 293.786562 184.474479 
L 293.786562 177.8366 
L 293.786562 177.8366 
z
" clip-path="url(#p640150a51b)" style="fill: #4bc2ad; stroke: #808080; stroke-linejoin: miter"/>
   </g>
   <g id="patch_58">
    <path d="M 293.786562 177.8366 
L 293.786562 177.8366 
L 293.786562 171.198722 
L 293.786562 171.198722 
z
" clip-path="url(#p640150a51b)" style="fill: #4bc2ad; stroke: #808080; stroke-linejoin: miter"/>
   </g>
   <g id="patch_59">
    <path d="M 293.786562 171.198722 
L 293.786562 171.198722 
L 293.786562 164.560843 
L 293.786562 164.560843 
z
" clip-path="url(#p640150a51b)" style="fill: #4bc2ad; stroke: #808080; stroke-linejoin: miter"/>
   </g>
   <g id="patch_60">
    <path d="M 293.786562 164.560843 
L 293.786562 164.560843 
L 293.786562 157.922964 
L 293.786562 157.922964 
z
" clip-path="url(#p640150a51b)" style="fill: #4bc2ad; stroke: #808080; stroke-linejoin: miter"/>
   </g>
   <g id="patch_61">
    <path d="M 293.786562 157.922964 
L 293.786562 157.922964 
L 293.786562 151.285085 
L 293.786562 151.285085 
z
" clip-path="url(#p640150a51b)" style="fill: #4bc2ad; stroke: #808080; stroke-linejoin: miter"/>
   </g>
   <g id="patch_62">
    <path d="M 293.786562 151.285085 
L 300.209844 151.285085 
L 300.209844 144.647206 
L 293.786562 144.647206 
z
" clip-path="url(#p640150a51b)" style="fill: #4bc2ad; stroke: #808080; stroke-linejoin: miter"/>
   </g>
   <g id="patch_63">
    <path d="M 293.786562 144.647206 
L 293.786562 144.647206 
L 293.786562 138.009328 
L 293.786562 138.009328 
z
" clip-path="url(#p640150a51b)" style="fill: #4bc2ad; stroke: #808080; stroke-linejoin: miter"/>
   </g>
   <g id="patch_64">
    <path d="M 293.786562 138.009328 
L 298.06875 138.009328 
L 298.06875 131.371449 
L 293.786562 131.371449 
z
" clip-path="url(#p640150a51b)" style="fill: #4bc2ad; stroke: #808080; stroke-linejoin: miter"/>
   </g>
   <g id="patch_65">
    <path d="M 293.786562 131.371449 
L 293.786562 131.371449 
L 293.786562 124.73357 
L 293.786562 124.73357 
z
" clip-path="url(#p640150a51b)" style="fill: #4bc2ad; stroke: #808080; stroke-linejoin: miter"/>
   </g>
   <g id="patch_66">
    <path d="M 293.786562 124.73357 
L 295.927656 124.73357 
L 295.927656 118.095691 
L 293.786562 118.095691 
z
" clip-path="url(#p640150a51b)" style="fill: #4bc2ad; stroke: #808080; stroke-linejoin: miter"/>
   </g>
   <g id="patch_67">
    <path d="M 293.786562 118.095691 
L 293.786562 118.095691 
L 293.786562 111.457812 
L 293.786562 111.457812 
z
" clip-path="url(#p640150a51b)" style="fill: #4bc2ad; stroke: #808080; stroke-linejoin: miter"/>
   </g>
   <g id="patch_68">
    <path d="M 293.786562 111.457812 
L 293.786562 111.457812 
L 293.786562 104.819934 
L 293.786562 104.819934 
z
" clip-path="url(#p640150a51b)" style="fill: #4bc2ad; stroke: #808080; stroke-linejoin: miter"/>
   </g>
   <g id="patch_69">
    <path d="M 293.786562 104.819934 
L 293.786562 104.819934 
L 293.786562 98.182055 
L 293.786562 98.182055 
z
" clip-path="url(#p640150a51b)" style="fill: #4bc2ad; stroke: #808080; stroke-linejoin: miter"/>
   </g>
   <g id="patch_70">
    <path d="M 293.786562 98.182055 
L 293.786562 98.182055 
L 293.786562 91.544176 
L 293.786562 91.544176 
z
" clip-path="url(#p640150a51b)" style="fill: #4bc2ad; stroke: #808080; stroke-linejoin: miter"/>
   </g>
   <g id="patch_71">
    <path d="M 293.786562 91.544176 
L 293.786562 91.544176 
L 293.786562 84.906297 
L 293.786562 84.906297 
z
" clip-path="url(#p640150a51b)" style="fill: #4bc2ad; stroke: #808080; stroke-linejoin: miter"/>
   </g>
   <g id="patch_72">
    <path d="M 293.786562 84.906297 
L 295.927656 84.906297 
L 295.927656 78.268419 
L 293.786562 78.268419 
z
" clip-path="url(#p640150a51b)" style="fill: #4bc2ad; stroke: #808080; stroke-linejoin: miter"/>
   </g>
   <g id="patch_73">
    <path d="M 293.786562 78.268419 
L 293.786562 78.268419 
L 293.786562 71.63054 
L 293.786562 71.63054 
z
" clip-path="url(#p640150a51b)" style="fill: #4bc2ad; stroke: #808080; stroke-linejoin: miter"/>
   </g>
   <g id="patch_74">
    <path d="M 293.786562 71.63054 
L 295.927656 71.63054 
L 295.927656 64.992661 
L 293.786562 64.992661 
z
" clip-path="url(#p640150a51b)" style="fill: #4bc2ad; stroke: #808080; stroke-linejoin: miter"/>
   </g>
   <g id="patch_75">
    <path d="M 293.786562 64.992661 
L 293.786562 64.992661 
L 293.786562 58.354782 
L 293.786562 58.354782 
z
" clip-path="url(#p640150a51b)" style="fill: #4bc2ad; stroke: #808080; stroke-linejoin: miter"/>
   </g>
   <g id="patch_76">
    <path d="M 293.786562 58.354782 
L 295.927656 58.354782 
L 295.927656 51.716903 
L 293.786562 51.716903 
z
" clip-path="url(#p640150a51b)" style="fill: #4bc2ad; stroke: #808080; stroke-linejoin: miter"/>
   </g>
   <g id="patch_77">
    <path d="M 293.786562 51.716903 
L 295.927656 51.716903 
L 295.927656 45.079025 
L 293.786562 45.079025 
z
" clip-path="url(#p640150a51b)" style="fill: #4bc2ad; stroke: #808080; stroke-linejoin: miter"/>
   </g>
   <g id="patch_78">
    <path d="M 293.786562 45.079025 
L 295.927656 45.079025 
L 295.927656 38.441146 
L 293.786562 38.441146 
z
" clip-path="url(#p640150a51b)" style="fill: #4bc2ad; stroke: #808080; stroke-linejoin: miter"/>
   </g>
   <g id="patch_79">
    <path d="M 293.786562 38.441146 
L 295.927656 38.441146 
L 295.927656 31.803267 
L 293.786562 31.803267 
z
" clip-path="url(#p640150a51b)" style="fill: #4bc2ad; stroke: #808080; stroke-linejoin: miter"/>
   </g>
   <g id="matplotlib.axis_3">
    <g id="xtick_4">
     <g id="line2d_11">
      <g>
       <use xlink:href="#mde09f1f4f4" x="293.786562" y="199.077812" style="stroke: #000000; stroke-width: 0.8"/>
      </g>
     </g>
     <g id="text_14">
      <!-- 0 -->
      <g transform="translate(289.332812 216.715625) scale(0.14 -0.14)">
       <use xlink:href="#DejaVuSans-30"/>
      </g>
     </g>
    </g>
    <g id="xtick_5">
     <g id="line2d_12">
      <g>
       <use xlink:href="#mde09f1f4f4" x="336.608444" y="199.077812" style="stroke: #000000; stroke-width: 0.8"/>
      </g>
     </g>
     <g id="text_15">
      <!-- 20 -->
      <g transform="translate(327.700944 216.715625) scale(0.14 -0.14)">
       <use xlink:href="#DejaVuSans-32"/>
       <use xlink:href="#DejaVuSans-30" transform="translate(63.623047 0)"/>
      </g>
     </g>
    </g>
    <g id="text_16">
     <!-- Counts -->
     <g transform="translate(295.205898 234.265) scale(0.14 -0.14)">
      <use xlink:href="#DejaVuSans-43"/>
      <use xlink:href="#DejaVuSans-6f" transform="translate(69.824219 0)"/>
      <use xlink:href="#DejaVuSans-75" transform="translate(131.005859 0)"/>
      <use xlink:href="#DejaVuSans-6e" transform="translate(194.384766 0)"/>
      <use xlink:href="#DejaVuSans-74" transform="translate(257.763672 0)"/>
      <use xlink:href="#DejaVuSans-73" transform="translate(296.972656 0)"/>
     </g>
    </g>
   </g>
   <g id="matplotlib.axis_4"/>
   <g id="line2d_13">
    <path d="M 293.786562 115.995044 
L 345.493984 115.995044 
" clip-path="url(#p640150a51b)" style="fill: none; stroke-dasharray: 5.55,2.4; stroke-dashoffset: 0; stroke: #808080; stroke-width: 1.5"/>
   </g>
   <g id="patch_80">
    <path d="M 293.786562 199.077812 
L 293.786562 23.837812 
" style="fill: none; stroke: #000000; stroke-width: 0.8; stroke-linejoin: miter; stroke-linecap: square"/>
   </g>
   <g id="patch_81">
    <path d="M 345.493984 199.077812 
L 345.493984 23.837812 
" style="fill: none; stroke: #000000; stroke-width: 0.8; stroke-linejoin: miter; stroke-linecap: square"/>
   </g>
   <g id="patch_82">
    <path d="M 293.786562 199.077812 
L 345.493984 199.077812 
" style="fill: none; stroke: #000000; stroke-width: 0.8; stroke-linejoin: miter; stroke-linecap: square"/>
   </g>
   <g id="patch_83">
    <path d="M 293.786562 23.837812 
L 345.493984 23.837812 
" style="fill: none; stroke: #000000; stroke-width: 0.8; stroke-linejoin: miter; stroke-linecap: square"/>
   </g>
  </g>
 </g>
 <defs>
  <clipPath id="p032aa71fa4">
   <rect x="58.471875" y="23.837812" width="206.829687" height="175.24"/>
  </clipPath>
  <clipPath id="p640150a51b">
   <rect x="293.786562" y="23.837812" width="51.707422" height="175.24"/>
  </clipPath>
 </defs>
</svg>
