<?xml version="1.0" encoding="utf-8" standalone="no"?>
<!DOCTYPE svg PUBLIC "-//W3C//DTD SVG 1.1//EN"
  "http://www.w3.org/Graphics/SVG/1.1/DTD/svg11.dtd">
<svg xmlns:xlink="http://www.w3.org/1999/xlink" width="767.15375pt" height="634.940938pt" viewBox="0 0 767.15375 634.940938" xmlns="http://www.w3.org/2000/svg" version="1.1">
 <metadata>
  <rdf:RDF xmlns:dc="http://purl.org/dc/elements/1.1/" xmlns:cc="http://creativecommons.org/ns#" xmlns:rdf="http://www.w3.org/1999/02/22-rdf-syntax-ns#">
   <cc:Work>
    <dc:type rdf:resource="http://purl.org/dc/dcmitype/StillImage"/>
    <dc:date>2025-02-25T02:06:34.079466</dc:date>
    <dc:format>image/svg+xml</dc:format>
    <dc:creator>
     <cc:Agent>
      <dc:title>Matplotlib v3.10.0, https://matplotlib.org/</dc:title>
     </cc:Agent>
    </dc:creator>
   </cc:Work>
  </rdf:RDF>
 </metadata>
 <defs>
  <style type="text/css">*{stroke-linejoin: round; stroke-linecap: butt}</style>
 </defs>
 <g id="figure_1">
  <g id="patch_1">
   <path d="M 0 634.940938 
L 767.15375 634.940938 
L 767.15375 0 
L 0 0 
z
" style="fill: #ffffff"/>
  </g>
  <g id="axes_1">
   <g id="patch_2">
    <path d="M 145.726875 456.837812 
L 686.606875 456.837812 
L 686.606875 17.837813 
L 145.726875 17.837813 
z
" style="fill: #ffffff"/>
   </g>
   <g id="FillBetweenPolyCollection_1">
    <defs>
     <path id="m73a0a45114" d="M 222.995446 -591.391368 
L 222.995446 -581.406477 
L 377.532589 -502.578131 
L 532.069732 -460.872648 
L 686.606875 -443.403686 
L 686.606875 -455.718213 
L 686.606875 -455.718213 
L 532.069732 -476.445123 
L 377.532589 -515.479502 
L 222.995446 -591.391368 
z
" style="stroke: #1f77b4; stroke-opacity: 0.2"/>
    </defs>
    <g clip-path="url(#p5c06ece83a)">
     <use xlink:href="#m73a0a45114" x="0" y="634.940938" style="fill: #1f77b4; fill-opacity: 0.2; stroke: #1f77b4; stroke-opacity: 0.2"/>
    </g>
   </g>
   <g id="FillBetweenPolyCollection_2">
    <defs>
     <path id="md019dc4b89" d="M 222.995446 -438.69166 
L 222.995446 -429.72125 
L 377.532589 -444.598009 
L 532.069732 -456.510152 
L 686.606875 -437.065476 
L 686.606875 -454.334291 
L 686.606875 -454.334291 
L 532.069732 -465.036279 
L 377.532589 -451.783985 
L 222.995446 -438.69166 
z
" style="stroke: #ff7f0e; stroke-opacity: 0.2"/>
    </defs>
    <g clip-path="url(#p5c06ece83a)">
     <use xlink:href="#md019dc4b89" x="0" y="634.940938" style="fill: #ff7f0e; fill-opacity: 0.2; stroke: #ff7f0e; stroke-opacity: 0.2"/>
    </g>
   </g>
   <g id="FillBetweenPolyCollection_3">
    <defs>
     <path id="m61243393bf" d="M 222.995446 -225.163242 
L 222.995446 -213.271424 
L 377.532589 -244.720231 
L 532.069732 -297.308453 
L 686.606875 -325.808715 
L 686.606875 -338.571704 
L 686.606875 -338.571704 
L 532.069732 -308.308176 
L 377.532589 -250.692766 
L 222.995446 -225.163242 
z
" style="stroke: #1f77b4; stroke-opacity: 0.2"/>
    </defs>
    <g clip-path="url(#p5c06ece83a)">
     <use xlink:href="#m61243393bf" x="0" y="634.940938" style="fill: #1f77b4; fill-opacity: 0.2; stroke: #1f77b4; stroke-opacity: 0.2"/>
    </g>
   </g>
   <g id="FillBetweenPolyCollection_4">
    <defs>
     <path id="m71f1d16a20" d="M 222.995446 -469.538682 
L 222.995446 -454.997584 
L 377.532589 -399.358783 
L 532.069732 -390.256659 
L 686.606875 -389.4763 
L 686.606875 -398.589534 
L 686.606875 -398.589534 
L 532.069732 -413.501556 
L 377.532589 -416.081379 
L 222.995446 -469.538682 
z
" style="stroke: #ff7f0e; stroke-opacity: 0.2"/>
    </defs>
    <g clip-path="url(#p5c06ece83a)">
     <use xlink:href="#m71f1d16a20" x="0" y="634.940938" style="fill: #ff7f0e; fill-opacity: 0.2; stroke: #ff7f0e; stroke-opacity: 0.2"/>
    </g>
   </g>
   <g id="FillBetweenPolyCollection_5">
    <defs>
     <path id="m39f4f6b2e5" d="M 222.995446 -432.998525 
L 222.995446 -407.970655 
L 377.532589 -316.318909 
L 532.069732 -327.82632 
L 686.606875 -360.231409 
L 686.606875 -383.950299 
L 686.606875 -383.950299 
L 532.069732 -357.042015 
L 377.532589 -337.562367 
L 222.995446 -432.998525 
z
" style="stroke: #1f77b4; stroke-opacity: 0.2"/>
    </defs>
    <g clip-path="url(#p5c06ece83a)">
     <use xlink:href="#m39f4f6b2e5" x="0" y="634.940938" style="fill: #1f77b4; fill-opacity: 0.2; stroke: #1f77b4; stroke-opacity: 0.2"/>
    </g>
   </g>
   <g id="FillBetweenPolyCollection_6">
    <defs>
     <path id="m0abe0c7299" d="M 222.995446 -384.044235 
L 222.995446 -372.754223 
L 377.532589 -358.978216 
L 532.069732 -364.920353 
L 686.606875 -340.176211 
L 686.606875 -349.802171 
L 686.606875 -349.802171 
L 532.069732 -380.642015 
L 377.532589 -368.010195 
L 222.995446 -384.044235 
z
" style="stroke: #ff7f0e; stroke-opacity: 0.2"/>
    </defs>
    <g clip-path="url(#p5c06ece83a)">
     <use xlink:href="#m0abe0c7299" x="0" y="634.940938" style="fill: #ff7f0e; fill-opacity: 0.2; stroke: #ff7f0e; stroke-opacity: 0.2"/>
    </g>
   </g>
   <g id="FillBetweenPolyCollection_7">
    <defs>
     <path id="me231581bf2" d="M 222.995446 -267.348013 
L 222.995446 -255.95519 
L 377.532589 -306.961257 
L 532.069732 -264.379382 
L 686.606875 -268.753974 
L 686.606875 -289.057388 
L 686.606875 -289.057388 
L 532.069732 -311.306665 
L 377.532589 -322.800672 
L 222.995446 -267.348013 
z
" style="stroke: #1f77b4; stroke-opacity: 0.2"/>
    </defs>
    <g clip-path="url(#p5c06ece83a)">
     <use xlink:href="#me231581bf2" x="0" y="634.940938" style="fill: #1f77b4; fill-opacity: 0.2; stroke: #1f77b4; stroke-opacity: 0.2"/>
    </g>
   </g>
   <g id="FillBetweenPolyCollection_8">
    <defs>
     <path id="m0f9fa114d4" d="M 222.995446 -387.524587 
L 222.995446 -376.918091 
L 377.532589 -403.618463 
L 532.069732 -395.29499 
L 686.606875 -370.128324 
L 686.606875 -378.754534 
L 686.606875 -378.754534 
L 532.069732 -405.047937 
L 377.532589 -412.096693 
L 222.995446 -387.524587 
z
" style="stroke: #ff7f0e; stroke-opacity: 0.2"/>
    </defs>
    <g clip-path="url(#p5c06ece83a)">
     <use xlink:href="#m0f9fa114d4" x="0" y="634.940938" style="fill: #ff7f0e; fill-opacity: 0.2; stroke: #ff7f0e; stroke-opacity: 0.2"/>
    </g>
   </g>
   <g id="FillBetweenPolyCollection_9">
    <defs>
     <path id="m3bfcbcc0c9" d="M 222.995446 -600.333717 
L 222.995446 -591.611629 
L 377.532589 -519.572121 
L 532.069732 -444.237973 
L 686.606875 -421.31179 
L 686.606875 -447.948302 
L 686.606875 -447.948302 
L 532.069732 -462.794782 
L 377.532589 -540.461384 
L 222.995446 -600.333717 
z
" style="stroke: #1f77b4; stroke-opacity: 0.2"/>
    </defs>
    <g clip-path="url(#p5c06ece83a)">
     <use xlink:href="#m3bfcbcc0c9" x="0" y="634.940938" style="fill: #1f77b4; fill-opacity: 0.2; stroke: #1f77b4; stroke-opacity: 0.2"/>
    </g>
   </g>
   <g id="FillBetweenPolyCollection_10">
    <defs>
     <path id="m0bc163f8d4" d="M 222.995446 -440.601113 
L 222.995446 -434.671566 
L 377.532589 -425.085209 
L 532.069732 -417.613147 
L 686.606875 -443.234003 
L 686.606875 -454.817304 
L 686.606875 -454.817304 
L 532.069732 -435.332085 
L 377.532589 -447.892297 
L 222.995446 -440.601113 
z
" style="stroke: #ff7f0e; stroke-opacity: 0.2"/>
    </defs>
    <g clip-path="url(#p5c06ece83a)">
     <use xlink:href="#m0bc163f8d4" x="0" y="634.940938" style="fill: #ff7f0e; fill-opacity: 0.2; stroke: #ff7f0e; stroke-opacity: 0.2"/>
    </g>
   </g>
   <g id="FillBetweenPolyCollection_11">
    <defs>
     <path id="mae6fe31f5c" d="M 222.995446 -230.601477 
L 222.995446 -217.886522 
L 377.532589 -251.395365 
L 532.069732 -298.039743 
L 686.606875 -339.059826 
L 686.606875 -351.225803 
L 686.606875 -351.225803 
L 532.069732 -310.017511 
L 377.532589 -262.071445 
L 222.995446 -230.601477 
z
" style="stroke: #1f77b4; stroke-opacity: 0.2"/>
    </defs>
    <g clip-path="url(#p5c06ece83a)">
     <use xlink:href="#mae6fe31f5c" x="0" y="634.940938" style="fill: #1f77b4; fill-opacity: 0.2; stroke: #1f77b4; stroke-opacity: 0.2"/>
    </g>
   </g>
   <g id="FillBetweenPolyCollection_12">
    <defs>
     <path id="m6634b16eba" d="M 222.995446 -451.701479 
L 222.995446 -445.757592 
L 377.532589 -408.800857 
L 532.069732 -393.561835 
L 686.606875 -416.78344 
L 686.606875 -430.308627 
L 686.606875 -430.308627 
L 532.069732 -421.209601 
L 377.532589 -421.935135 
L 222.995446 -451.701479 
z
" style="stroke: #ff7f0e; stroke-opacity: 0.2"/>
    </defs>
    <g clip-path="url(#p5c06ece83a)">
     <use xlink:href="#m6634b16eba" x="0" y="634.940938" style="fill: #ff7f0e; fill-opacity: 0.2; stroke: #ff7f0e; stroke-opacity: 0.2"/>
    </g>
   </g>
   <g id="patch_3">
    <path d="M -240.615982 456.837812 
L -86.078839 456.837812 
L -86.078839 17.837813 
L -240.615982 17.837813 
z
" clip-path="url(#p5c06ece83a)" style="fill: #808080; opacity: 0.3; stroke: #808080; stroke-linejoin: miter"/>
   </g>
   <g id="patch_4">
    <path d="M -86.078839 456.837812 
L -8.810268 456.837812 
L -8.810268 17.837813 
L -86.078839 17.837813 
z
" clip-path="url(#p5c06ece83a)" style="fill: #90ee90; opacity: 0.3; stroke: #90ee90; stroke-linejoin: miter"/>
   </g>
   <g id="matplotlib.axis_1">
    <g id="xtick_1">
     <g id="line2d_1">
      <defs>
       <path id="m50c2353186" d="M 0 0 
L 0 3.5 
" style="stroke: #000000; stroke-width: 0.8"/>
      </defs>
      <g>
       <use xlink:href="#m50c2353186" x="222.995446" y="456.837812" style="stroke: #000000; stroke-width: 0.8"/>
      </g>
     </g>
     <g id="text_1">
      <!-- 500 -->
      <g transform="translate(196.272946 485.113437) scale(0.28 -0.28)">
       <defs>
        <path id="DejaVuSans-35" d="M 691 4666 
L 3169 4666 
L 3169 4134 
L 1269 4134 
L 1269 2991 
Q 1406 3038 1543 3061 
Q 1681 3084 1819 3084 
Q 2600 3084 3056 2656 
Q 3513 2228 3513 1497 
Q 3513 744 3044 326 
Q 2575 -91 1722 -91 
Q 1428 -91 1123 -41 
Q 819 9 494 109 
L 494 744 
Q 775 591 1075 516 
Q 1375 441 1709 441 
Q 2250 441 2565 725 
Q 2881 1009 2881 1497 
Q 2881 1984 2565 2268 
Q 2250 2553 1709 2553 
Q 1456 2553 1204 2497 
Q 953 2441 691 2322 
L 691 4666 
z
" transform="scale(0.015625)"/>
        <path id="DejaVuSans-30" d="M 2034 4250 
Q 1547 4250 1301 3770 
Q 1056 3291 1056 2328 
Q 1056 1369 1301 889 
Q 1547 409 2034 409 
Q 2525 409 2770 889 
Q 3016 1369 3016 2328 
Q 3016 3291 2770 3770 
Q 2525 4250 2034 4250 
z
M 2034 4750 
Q 2819 4750 3233 4129 
Q 3647 3509 3647 2328 
Q 3647 1150 3233 529 
Q 2819 -91 2034 -91 
Q 1250 -91 836 529 
Q 422 1150 422 2328 
Q 422 3509 836 4129 
Q 1250 4750 2034 4750 
z
" transform="scale(0.015625)"/>
       </defs>
       <use xlink:href="#DejaVuSans-35"/>
       <use xlink:href="#DejaVuSans-30" transform="translate(63.623047 0)"/>
       <use xlink:href="#DejaVuSans-30" transform="translate(127.246094 0)"/>
      </g>
     </g>
    </g>
    <g id="xtick_2">
     <g id="line2d_2">
      <g>
       <use xlink:href="#m50c2353186" x="377.532589" y="456.837812" style="stroke: #000000; stroke-width: 0.8"/>
      </g>
     </g>
     <g id="text_2">
      <!-- 600 -->
      <g transform="translate(350.810089 485.113437) scale(0.28 -0.28)">
       <defs>
        <path id="DejaVuSans-36" d="M 2113 2584 
Q 1688 2584 1439 2293 
Q 1191 2003 1191 1497 
Q 1191 994 1439 701 
Q 1688 409 2113 409 
Q 2538 409 2786 701 
Q 3034 994 3034 1497 
Q 3034 2003 2786 2293 
Q 2538 2584 2113 2584 
z
M 3366 4563 
L 3366 3988 
Q 3128 4100 2886 4159 
Q 2644 4219 2406 4219 
Q 1781 4219 1451 3797 
Q 1122 3375 1075 2522 
Q 1259 2794 1537 2939 
Q 1816 3084 2150 3084 
Q 2853 3084 3261 2657 
Q 3669 2231 3669 1497 
Q 3669 778 3244 343 
Q 2819 -91 2113 -91 
Q 1303 -91 875 529 
Q 447 1150 447 2328 
Q 447 3434 972 4092 
Q 1497 4750 2381 4750 
Q 2619 4750 2861 4703 
Q 3103 4656 3366 4563 
z
" transform="scale(0.015625)"/>
       </defs>
       <use xlink:href="#DejaVuSans-36"/>
       <use xlink:href="#DejaVuSans-30" transform="translate(63.623047 0)"/>
       <use xlink:href="#DejaVuSans-30" transform="translate(127.246094 0)"/>
      </g>
     </g>
    </g>
    <g id="xtick_3">
     <g id="line2d_3">
      <g>
       <use xlink:href="#m50c2353186" x="532.069732" y="456.837812" style="stroke: #000000; stroke-width: 0.8"/>
      </g>
     </g>
     <g id="text_3">
      <!-- 700 -->
      <g transform="translate(505.347232 485.113437) scale(0.28 -0.28)">
       <defs>
        <path id="DejaVuSans-37" d="M 525 4666 
L 3525 4666 
L 3525 4397 
L 1831 0 
L 1172 0 
L 2766 4134 
L 525 4134 
L 525 4666 
z
" transform="scale(0.015625)"/>
       </defs>
       <use xlink:href="#DejaVuSans-37"/>
       <use xlink:href="#DejaVuSans-30" transform="translate(63.623047 0)"/>
       <use xlink:href="#DejaVuSans-30" transform="translate(127.246094 0)"/>
      </g>
     </g>
    </g>
    <g id="xtick_4">
     <g id="line2d_4">
      <g>
       <use xlink:href="#m50c2353186" x="686.606875" y="456.837812" style="stroke: #000000; stroke-width: 0.8"/>
      </g>
     </g>
     <g id="text_4">
      <!-- 800 -->
      <g transform="translate(659.884375 485.113437) scale(0.28 -0.28)">
       <defs>
        <path id="DejaVuSans-38" d="M 2034 2216 
Q 1584 2216 1326 1975 
Q 1069 1734 1069 1313 
Q 1069 891 1326 650 
Q 1584 409 2034 409 
Q 2484 409 2743 651 
Q 3003 894 3003 1313 
Q 3003 1734 2745 1975 
Q 2488 2216 2034 2216 
z
M 1403 2484 
Q 997 2584 770 2862 
Q 544 3141 544 3541 
Q 544 4100 942 4425 
Q 1341 4750 2034 4750 
Q 2731 4750 3128 4425 
Q 3525 4100 3525 3541 
Q 3525 3141 3298 2862 
Q 3072 2584 2669 2484 
Q 3125 2378 3379 2068 
Q 3634 1759 3634 1313 
Q 3634 634 3220 271 
Q 2806 -91 2034 -91 
Q 1263 -91 848 271 
Q 434 634 434 1313 
Q 434 1759 690 2068 
Q 947 2378 1403 2484 
z
M 1172 3481 
Q 1172 3119 1398 2916 
Q 1625 2713 2034 2713 
Q 2441 2713 2670 2916 
Q 2900 3119 2900 3481 
Q 2900 3844 2670 4047 
Q 2441 4250 2034 4250 
Q 1625 4250 1398 4047 
Q 1172 3844 1172 3481 
z
" transform="scale(0.015625)"/>
       </defs>
       <use xlink:href="#DejaVuSans-38"/>
       <use xlink:href="#DejaVuSans-30" transform="translate(63.623047 0)"/>
       <use xlink:href="#DejaVuSans-30" transform="translate(127.246094 0)"/>
      </g>
     </g>
    </g>
    <g id="text_5">
     <!-- Trip time (s) -->
     <g transform="translate(332.403125 516.212188) scale(0.28 -0.28)">
      <defs>
       <path id="DejaVuSans-54" d="M -19 4666 
L 3928 4666 
L 3928 4134 
L 2272 4134 
L 2272 0 
L 1638 0 
L 1638 4134 
L -19 4134 
L -19 4666 
z
" transform="scale(0.015625)"/>
       <path id="DejaVuSans-72" d="M 2631 2963 
Q 2534 3019 2420 3045 
Q 2306 3072 2169 3072 
Q 1681 3072 1420 2755 
Q 1159 2438 1159 1844 
L 1159 0 
L 581 0 
L 581 3500 
L 1159 3500 
L 1159 2956 
Q 1341 3275 1631 3429 
Q 1922 3584 2338 3584 
Q 2397 3584 2469 3576 
Q 2541 3569 2628 3553 
L 2631 2963 
z
" transform="scale(0.015625)"/>
       <path id="DejaVuSans-69" d="M 603 3500 
L 1178 3500 
L 1178 0 
L 603 0 
L 603 3500 
z
M 603 4863 
L 1178 4863 
L 1178 4134 
L 603 4134 
L 603 4863 
z
" transform="scale(0.015625)"/>
       <path id="DejaVuSans-70" d="M 1159 525 
L 1159 -1331 
L 581 -1331 
L 581 3500 
L 1159 3500 
L 1159 2969 
Q 1341 3281 1617 3432 
Q 1894 3584 2278 3584 
Q 2916 3584 3314 3078 
Q 3713 2572 3713 1747 
Q 3713 922 3314 415 
Q 2916 -91 2278 -91 
Q 1894 -91 1617 61 
Q 1341 213 1159 525 
z
M 3116 1747 
Q 3116 2381 2855 2742 
Q 2594 3103 2138 3103 
Q 1681 3103 1420 2742 
Q 1159 2381 1159 1747 
Q 1159 1113 1420 752 
Q 1681 391 2138 391 
Q 2594 391 2855 752 
Q 3116 1113 3116 1747 
z
" transform="scale(0.015625)"/>
       <path id="DejaVuSans-20" transform="scale(0.015625)"/>
       <path id="DejaVuSans-74" d="M 1172 4494 
L 1172 3500 
L 2356 3500 
L 2356 3053 
L 1172 3053 
L 1172 1153 
Q 1172 725 1289 603 
Q 1406 481 1766 481 
L 2356 481 
L 2356 0 
L 1766 0 
Q 1100 0 847 248 
Q 594 497 594 1153 
L 594 3053 
L 172 3053 
L 172 3500 
L 594 3500 
L 594 4494 
L 1172 4494 
z
" transform="scale(0.015625)"/>
       <path id="DejaVuSans-6d" d="M 3328 2828 
Q 3544 3216 3844 3400 
Q 4144 3584 4550 3584 
Q 5097 3584 5394 3201 
Q 5691 2819 5691 2113 
L 5691 0 
L 5113 0 
L 5113 2094 
Q 5113 2597 4934 2840 
Q 4756 3084 4391 3084 
Q 3944 3084 3684 2787 
Q 3425 2491 3425 1978 
L 3425 0 
L 2847 0 
L 2847 2094 
Q 2847 2600 2669 2842 
Q 2491 3084 2119 3084 
Q 1678 3084 1418 2786 
Q 1159 2488 1159 1978 
L 1159 0 
L 581 0 
L 581 3500 
L 1159 3500 
L 1159 2956 
Q 1356 3278 1631 3431 
Q 1906 3584 2284 3584 
Q 2666 3584 2933 3390 
Q 3200 3197 3328 2828 
z
" transform="scale(0.015625)"/>
       <path id="DejaVuSans-65" d="M 3597 1894 
L 3597 1613 
L 953 1613 
Q 991 1019 1311 708 
Q 1631 397 2203 397 
Q 2534 397 2845 478 
Q 3156 559 3463 722 
L 3463 178 
Q 3153 47 2828 -22 
Q 2503 -91 2169 -91 
Q 1331 -91 842 396 
Q 353 884 353 1716 
Q 353 2575 817 3079 
Q 1281 3584 2069 3584 
Q 2775 3584 3186 3129 
Q 3597 2675 3597 1894 
z
M 3022 2063 
Q 3016 2534 2758 2815 
Q 2500 3097 2075 3097 
Q 1594 3097 1305 2825 
Q 1016 2553 972 2059 
L 3022 2063 
z
" transform="scale(0.015625)"/>
       <path id="DejaVuSans-28" d="M 1984 4856 
Q 1566 4138 1362 3434 
Q 1159 2731 1159 2009 
Q 1159 1288 1364 580 
Q 1569 -128 1984 -844 
L 1484 -844 
Q 1016 -109 783 600 
Q 550 1309 550 2009 
Q 550 2706 781 3412 
Q 1013 4119 1484 4856 
L 1984 4856 
z
" transform="scale(0.015625)"/>
       <path id="DejaVuSans-73" d="M 2834 3397 
L 2834 2853 
Q 2591 2978 2328 3040 
Q 2066 3103 1784 3103 
Q 1356 3103 1142 2972 
Q 928 2841 928 2578 
Q 928 2378 1081 2264 
Q 1234 2150 1697 2047 
L 1894 2003 
Q 2506 1872 2764 1633 
Q 3022 1394 3022 966 
Q 3022 478 2636 193 
Q 2250 -91 1575 -91 
Q 1294 -91 989 -36 
Q 684 19 347 128 
L 347 722 
Q 666 556 975 473 
Q 1284 391 1588 391 
Q 1994 391 2212 530 
Q 2431 669 2431 922 
Q 2431 1156 2273 1281 
Q 2116 1406 1581 1522 
L 1381 1569 
Q 847 1681 609 1914 
Q 372 2147 372 2553 
Q 372 3047 722 3315 
Q 1072 3584 1716 3584 
Q 2034 3584 2315 3537 
Q 2597 3491 2834 3397 
z
" transform="scale(0.015625)"/>
       <path id="DejaVuSans-29" d="M 513 4856 
L 1013 4856 
Q 1481 4119 1714 3412 
Q 1947 2706 1947 2009 
Q 1947 1309 1714 600 
Q 1481 -109 1013 -844 
L 513 -844 
Q 928 -128 1133 580 
Q 1338 1288 1338 2009 
Q 1338 2731 1133 3434 
Q 928 4138 513 4856 
z
" transform="scale(0.015625)"/>
      </defs>
      <use xlink:href="#DejaVuSans-54"/>
      <use xlink:href="#DejaVuSans-72" transform="translate(46.333984 0)"/>
      <use xlink:href="#DejaVuSans-69" transform="translate(87.447266 0)"/>
      <use xlink:href="#DejaVuSans-70" transform="translate(115.230469 0)"/>
      <use xlink:href="#DejaVuSans-20" transform="translate(178.707031 0)"/>
      <use xlink:href="#DejaVuSans-74" transform="translate(210.494141 0)"/>
      <use xlink:href="#DejaVuSans-69" transform="translate(249.703125 0)"/>
      <use xlink:href="#DejaVuSans-6d" transform="translate(277.486328 0)"/>
      <use xlink:href="#DejaVuSans-65" transform="translate(374.898438 0)"/>
      <use xlink:href="#DejaVuSans-20" transform="translate(436.421875 0)"/>
      <use xlink:href="#DejaVuSans-28" transform="translate(468.208984 0)"/>
      <use xlink:href="#DejaVuSans-73" transform="translate(507.222656 0)"/>
      <use xlink:href="#DejaVuSans-29" transform="translate(559.322266 0)"/>
     </g>
    </g>
   </g>
   <g id="matplotlib.axis_2">
    <g id="ytick_1">
     <g id="line2d_5">
      <defs>
       <path id="m4ac3e5d94e" d="M 0 0 
L -3.5 0 
" style="stroke: #000000; stroke-width: 0.8"/>
      </defs>
      <g>
       <use xlink:href="#m4ac3e5d94e" x="145.726875" y="396.286088" style="stroke: #000000; stroke-width: 0.8"/>
      </g>
     </g>
     <g id="text_6">
      <!-- 75 -->
      <g transform="translate(103.096875 406.923901) scale(0.28 -0.28)">
       <use xlink:href="#DejaVuSans-37"/>
       <use xlink:href="#DejaVuSans-35" transform="translate(63.623047 0)"/>
      </g>
     </g>
    </g>
    <g id="ytick_2">
     <g id="line2d_6">
      <g>
       <use xlink:href="#m4ac3e5d94e" x="145.726875" y="320.596433" style="stroke: #000000; stroke-width: 0.8"/>
      </g>
     </g>
     <g id="text_7">
      <!-- 80 -->
      <g transform="translate(103.096875 331.234246) scale(0.28 -0.28)">
       <use xlink:href="#DejaVuSans-38"/>
       <use xlink:href="#DejaVuSans-30" transform="translate(63.623047 0)"/>
      </g>
     </g>
    </g>
    <g id="ytick_3">
     <g id="line2d_7">
      <g>
       <use xlink:href="#m4ac3e5d94e" x="145.726875" y="244.906778" style="stroke: #000000; stroke-width: 0.8"/>
      </g>
     </g>
     <g id="text_8">
      <!-- 85 -->
      <g transform="translate(103.096875 255.544591) scale(0.28 -0.28)">
       <use xlink:href="#DejaVuSans-38"/>
       <use xlink:href="#DejaVuSans-35" transform="translate(63.623047 0)"/>
      </g>
     </g>
    </g>
    <g id="ytick_4">
     <g id="line2d_8">
      <g>
       <use xlink:href="#m4ac3e5d94e" x="145.726875" y="169.217123" style="stroke: #000000; stroke-width: 0.8"/>
      </g>
     </g>
     <g id="text_9">
      <!-- 90 -->
      <g transform="translate(103.096875 179.854935) scale(0.28 -0.28)">
       <defs>
        <path id="DejaVuSans-39" d="M 703 97 
L 703 672 
Q 941 559 1184 500 
Q 1428 441 1663 441 
Q 2288 441 2617 861 
Q 2947 1281 2994 2138 
Q 2813 1869 2534 1725 
Q 2256 1581 1919 1581 
Q 1219 1581 811 2004 
Q 403 2428 403 3163 
Q 403 3881 828 4315 
Q 1253 4750 1959 4750 
Q 2769 4750 3195 4129 
Q 3622 3509 3622 2328 
Q 3622 1225 3098 567 
Q 2575 -91 1691 -91 
Q 1453 -91 1209 -44 
Q 966 3 703 97 
z
M 1959 2075 
Q 2384 2075 2632 2365 
Q 2881 2656 2881 3163 
Q 2881 3666 2632 3958 
Q 2384 4250 1959 4250 
Q 1534 4250 1286 3958 
Q 1038 3666 1038 3163 
Q 1038 2656 1286 2365 
Q 1534 2075 1959 2075 
z
" transform="scale(0.015625)"/>
       </defs>
       <use xlink:href="#DejaVuSans-39"/>
       <use xlink:href="#DejaVuSans-30" transform="translate(63.623047 0)"/>
      </g>
     </g>
    </g>
    <g id="ytick_5">
     <g id="line2d_9">
      <g>
       <use xlink:href="#m4ac3e5d94e" x="145.726875" y="93.527468" style="stroke: #000000; stroke-width: 0.8"/>
      </g>
     </g>
     <g id="text_10">
      <!-- 95 -->
      <g transform="translate(103.096875 104.16528) scale(0.28 -0.28)">
       <use xlink:href="#DejaVuSans-39"/>
       <use xlink:href="#DejaVuSans-35" transform="translate(63.623047 0)"/>
      </g>
     </g>
    </g>
    <g id="ytick_6">
     <g id="line2d_10">
      <g>
       <use xlink:href="#m4ac3e5d94e" x="145.726875" y="17.837812" style="stroke: #000000; stroke-width: 0.8"/>
      </g>
     </g>
     <g id="text_11">
      <!-- 100 -->
      <g transform="translate(85.281875 28.475625) scale(0.28 -0.28)">
       <defs>
        <path id="DejaVuSans-31" d="M 794 531 
L 1825 531 
L 1825 4091 
L 703 3866 
L 703 4441 
L 1819 4666 
L 2450 4666 
L 2450 531 
L 3481 531 
L 3481 0 
L 794 0 
L 794 531 
z
" transform="scale(0.015625)"/>
       </defs>
       <use xlink:href="#DejaVuSans-31"/>
       <use xlink:href="#DejaVuSans-30" transform="translate(63.623047 0)"/>
       <use xlink:href="#DejaVuSans-30" transform="translate(127.246094 0)"/>
      </g>
     </g>
    </g>
    <g id="text_12">
     <!-- Charge usage score (%) -->
     <g transform="translate(75.45875 405.011875) rotate(-90) scale(0.28 -0.28)">
      <defs>
       <path id="DejaVuSans-43" d="M 4122 4306 
L 4122 3641 
Q 3803 3938 3442 4084 
Q 3081 4231 2675 4231 
Q 1875 4231 1450 3742 
Q 1025 3253 1025 2328 
Q 1025 1406 1450 917 
Q 1875 428 2675 428 
Q 3081 428 3442 575 
Q 3803 722 4122 1019 
L 4122 359 
Q 3791 134 3420 21 
Q 3050 -91 2638 -91 
Q 1578 -91 968 557 
Q 359 1206 359 2328 
Q 359 3453 968 4101 
Q 1578 4750 2638 4750 
Q 3056 4750 3426 4639 
Q 3797 4528 4122 4306 
z
" transform="scale(0.015625)"/>
       <path id="DejaVuSans-68" d="M 3513 2113 
L 3513 0 
L 2938 0 
L 2938 2094 
Q 2938 2591 2744 2837 
Q 2550 3084 2163 3084 
Q 1697 3084 1428 2787 
Q 1159 2491 1159 1978 
L 1159 0 
L 581 0 
L 581 4863 
L 1159 4863 
L 1159 2956 
Q 1366 3272 1645 3428 
Q 1925 3584 2291 3584 
Q 2894 3584 3203 3211 
Q 3513 2838 3513 2113 
z
" transform="scale(0.015625)"/>
       <path id="DejaVuSans-61" d="M 2194 1759 
Q 1497 1759 1228 1600 
Q 959 1441 959 1056 
Q 959 750 1161 570 
Q 1363 391 1709 391 
Q 2188 391 2477 730 
Q 2766 1069 2766 1631 
L 2766 1759 
L 2194 1759 
z
M 3341 1997 
L 3341 0 
L 2766 0 
L 2766 531 
Q 2569 213 2275 61 
Q 1981 -91 1556 -91 
Q 1019 -91 701 211 
Q 384 513 384 1019 
Q 384 1609 779 1909 
Q 1175 2209 1959 2209 
L 2766 2209 
L 2766 2266 
Q 2766 2663 2505 2880 
Q 2244 3097 1772 3097 
Q 1472 3097 1187 3025 
Q 903 2953 641 2809 
L 641 3341 
Q 956 3463 1253 3523 
Q 1550 3584 1831 3584 
Q 2591 3584 2966 3190 
Q 3341 2797 3341 1997 
z
" transform="scale(0.015625)"/>
       <path id="DejaVuSans-67" d="M 2906 1791 
Q 2906 2416 2648 2759 
Q 2391 3103 1925 3103 
Q 1463 3103 1205 2759 
Q 947 2416 947 1791 
Q 947 1169 1205 825 
Q 1463 481 1925 481 
Q 2391 481 2648 825 
Q 2906 1169 2906 1791 
z
M 3481 434 
Q 3481 -459 3084 -895 
Q 2688 -1331 1869 -1331 
Q 1566 -1331 1297 -1286 
Q 1028 -1241 775 -1147 
L 775 -588 
Q 1028 -725 1275 -790 
Q 1522 -856 1778 -856 
Q 2344 -856 2625 -561 
Q 2906 -266 2906 331 
L 2906 616 
Q 2728 306 2450 153 
Q 2172 0 1784 0 
Q 1141 0 747 490 
Q 353 981 353 1791 
Q 353 2603 747 3093 
Q 1141 3584 1784 3584 
Q 2172 3584 2450 3431 
Q 2728 3278 2906 2969 
L 2906 3500 
L 3481 3500 
L 3481 434 
z
" transform="scale(0.015625)"/>
       <path id="DejaVuSans-75" d="M 544 1381 
L 544 3500 
L 1119 3500 
L 1119 1403 
Q 1119 906 1312 657 
Q 1506 409 1894 409 
Q 2359 409 2629 706 
Q 2900 1003 2900 1516 
L 2900 3500 
L 3475 3500 
L 3475 0 
L 2900 0 
L 2900 538 
Q 2691 219 2414 64 
Q 2138 -91 1772 -91 
Q 1169 -91 856 284 
Q 544 659 544 1381 
z
M 1991 3584 
L 1991 3584 
z
" transform="scale(0.015625)"/>
       <path id="DejaVuSans-63" d="M 3122 3366 
L 3122 2828 
Q 2878 2963 2633 3030 
Q 2388 3097 2138 3097 
Q 1578 3097 1268 2742 
Q 959 2388 959 1747 
Q 959 1106 1268 751 
Q 1578 397 2138 397 
Q 2388 397 2633 464 
Q 2878 531 3122 666 
L 3122 134 
Q 2881 22 2623 -34 
Q 2366 -91 2075 -91 
Q 1284 -91 818 406 
Q 353 903 353 1747 
Q 353 2603 823 3093 
Q 1294 3584 2113 3584 
Q 2378 3584 2631 3529 
Q 2884 3475 3122 3366 
z
" transform="scale(0.015625)"/>
       <path id="DejaVuSans-6f" d="M 1959 3097 
Q 1497 3097 1228 2736 
Q 959 2375 959 1747 
Q 959 1119 1226 758 
Q 1494 397 1959 397 
Q 2419 397 2687 759 
Q 2956 1122 2956 1747 
Q 2956 2369 2687 2733 
Q 2419 3097 1959 3097 
z
M 1959 3584 
Q 2709 3584 3137 3096 
Q 3566 2609 3566 1747 
Q 3566 888 3137 398 
Q 2709 -91 1959 -91 
Q 1206 -91 779 398 
Q 353 888 353 1747 
Q 353 2609 779 3096 
Q 1206 3584 1959 3584 
z
" transform="scale(0.015625)"/>
       <path id="DejaVuSans-25" d="M 4653 2053 
Q 4381 2053 4226 1822 
Q 4072 1591 4072 1178 
Q 4072 772 4226 539 
Q 4381 306 4653 306 
Q 4919 306 5073 539 
Q 5228 772 5228 1178 
Q 5228 1588 5073 1820 
Q 4919 2053 4653 2053 
z
M 4653 2450 
Q 5147 2450 5437 2106 
Q 5728 1763 5728 1178 
Q 5728 594 5436 251 
Q 5144 -91 4653 -91 
Q 4153 -91 3862 251 
Q 3572 594 3572 1178 
Q 3572 1766 3864 2108 
Q 4156 2450 4653 2450 
z
M 1428 4353 
Q 1159 4353 1004 4120 
Q 850 3888 850 3481 
Q 850 3069 1003 2837 
Q 1156 2606 1428 2606 
Q 1700 2606 1854 2837 
Q 2009 3069 2009 3481 
Q 2009 3884 1853 4118 
Q 1697 4353 1428 4353 
z
M 4250 4750 
L 4750 4750 
L 1831 -91 
L 1331 -91 
L 4250 4750 
z
M 1428 4750 
Q 1922 4750 2215 4408 
Q 2509 4066 2509 3481 
Q 2509 2891 2217 2550 
Q 1925 2209 1428 2209 
Q 931 2209 642 2551 
Q 353 2894 353 3481 
Q 353 4063 643 4406 
Q 934 4750 1428 4750 
z
" transform="scale(0.015625)"/>
      </defs>
      <use xlink:href="#DejaVuSans-43"/>
      <use xlink:href="#DejaVuSans-68" transform="translate(69.824219 0)"/>
      <use xlink:href="#DejaVuSans-61" transform="translate(133.203125 0)"/>
      <use xlink:href="#DejaVuSans-72" transform="translate(194.482422 0)"/>
      <use xlink:href="#DejaVuSans-67" transform="translate(233.845703 0)"/>
      <use xlink:href="#DejaVuSans-65" transform="translate(297.322266 0)"/>
      <use xlink:href="#DejaVuSans-20" transform="translate(358.845703 0)"/>
      <use xlink:href="#DejaVuSans-75" transform="translate(390.632812 0)"/>
      <use xlink:href="#DejaVuSans-73" transform="translate(454.011719 0)"/>
      <use xlink:href="#DejaVuSans-61" transform="translate(506.111328 0)"/>
      <use xlink:href="#DejaVuSans-67" transform="translate(567.390625 0)"/>
      <use xlink:href="#DejaVuSans-65" transform="translate(630.867188 0)"/>
      <use xlink:href="#DejaVuSans-20" transform="translate(692.390625 0)"/>
      <use xlink:href="#DejaVuSans-73" transform="translate(724.177734 0)"/>
      <use xlink:href="#DejaVuSans-63" transform="translate(776.277344 0)"/>
      <use xlink:href="#DejaVuSans-6f" transform="translate(831.257812 0)"/>
      <use xlink:href="#DejaVuSans-72" transform="translate(892.439453 0)"/>
      <use xlink:href="#DejaVuSans-65" transform="translate(931.302734 0)"/>
      <use xlink:href="#DejaVuSans-20" transform="translate(992.826172 0)"/>
      <use xlink:href="#DejaVuSans-28" transform="translate(1024.613281 0)"/>
      <use xlink:href="#DejaVuSans-25" transform="translate(1063.626953 0)"/>
      <use xlink:href="#DejaVuSans-29" transform="translate(1158.646484 0)"/>
     </g>
    </g>
   </g>
   <g id="line2d_11">
    <path d="M 222.995446 48.542015 
L 377.532589 125.912121 
L 532.069732 166.282052 
L 686.606875 185.379988 
" clip-path="url(#p5c06ece83a)" style="fill: none; stroke-dasharray: 11.1,4.8; stroke-dashoffset: 0; stroke: #1f77b4; stroke-width: 3"/>
    <defs>
     <path id="m044fd139c6" d="M 0 -3 
L -3 3 
L 3 3 
z
" style="stroke: #1f77b4; stroke-linejoin: miter"/>
    </defs>
    <g clip-path="url(#p5c06ece83a)">
     <use xlink:href="#m044fd139c6" x="222.995446" y="48.542015" style="fill: #1f77b4; stroke: #1f77b4; stroke-linejoin: miter"/>
     <use xlink:href="#m044fd139c6" x="377.532589" y="125.912121" style="fill: #1f77b4; stroke: #1f77b4; stroke-linejoin: miter"/>
     <use xlink:href="#m044fd139c6" x="532.069732" y="166.282052" style="fill: #1f77b4; stroke: #1f77b4; stroke-linejoin: miter"/>
     <use xlink:href="#m044fd139c6" x="686.606875" y="185.379988" style="fill: #1f77b4; stroke: #1f77b4; stroke-linejoin: miter"/>
    </g>
   </g>
   <g id="line2d_12">
    <path d="M 222.995446 200.734482 
L 377.532589 186.74994 
L 532.069732 174.167722 
L 686.606875 189.241054 
" clip-path="url(#p5c06ece83a)" style="fill: none; stroke-dasharray: 19.2,4.8,3,4.8; stroke-dashoffset: 0; stroke: #ff7f0e; stroke-width: 3"/>
    <defs>
     <path id="me494d0d258" d="M -3 3 
L 3 3 
L 3 -3 
L -3 -3 
z
" style="stroke: #ff7f0e; stroke-linejoin: miter"/>
    </defs>
    <g clip-path="url(#p5c06ece83a)">
     <use xlink:href="#me494d0d258" x="222.995446" y="200.734482" style="fill: #ff7f0e; stroke: #ff7f0e; stroke-linejoin: miter"/>
     <use xlink:href="#me494d0d258" x="377.532589" y="186.74994" style="fill: #ff7f0e; stroke: #ff7f0e; stroke-linejoin: miter"/>
     <use xlink:href="#me494d0d258" x="532.069732" y="174.167722" style="fill: #ff7f0e; stroke: #ff7f0e; stroke-linejoin: miter"/>
     <use xlink:href="#me494d0d258" x="686.606875" y="189.241054" style="fill: #ff7f0e; stroke: #ff7f0e; stroke-linejoin: miter"/>
    </g>
   </g>
   <g id="line2d_13">
    <path d="M 222.995446 415.723605 
L 377.532589 387.234439 
L 532.069732 332.132623 
L 686.606875 302.750728 
" clip-path="url(#p5c06ece83a)" style="fill: none; stroke-dasharray: 11.1,4.8; stroke-dashoffset: 0; stroke: #1f77b4; stroke-width: 3"/>
    <g clip-path="url(#p5c06ece83a)">
     <use xlink:href="#m044fd139c6" x="222.995446" y="415.723605" style="fill: #1f77b4; stroke: #1f77b4; stroke-linejoin: miter"/>
     <use xlink:href="#m044fd139c6" x="377.532589" y="387.234439" style="fill: #1f77b4; stroke: #1f77b4; stroke-linejoin: miter"/>
     <use xlink:href="#m044fd139c6" x="532.069732" y="332.132623" style="fill: #1f77b4; stroke: #1f77b4; stroke-linejoin: miter"/>
     <use xlink:href="#m044fd139c6" x="686.606875" y="302.750728" style="fill: #1f77b4; stroke: #1f77b4; stroke-linejoin: miter"/>
    </g>
   </g>
   <g id="line2d_14">
    <path d="M 222.995446 172.672804 
L 377.532589 227.220857 
L 532.069732 233.06183 
L 686.606875 240.908021 
" clip-path="url(#p5c06ece83a)" style="fill: none; stroke-dasharray: 19.2,4.8,3,4.8; stroke-dashoffset: 0; stroke: #ff7f0e; stroke-width: 3"/>
    <g clip-path="url(#p5c06ece83a)">
     <use xlink:href="#me494d0d258" x="222.995446" y="172.672804" style="fill: #ff7f0e; stroke: #ff7f0e; stroke-linejoin: miter"/>
     <use xlink:href="#me494d0d258" x="377.532589" y="227.220857" style="fill: #ff7f0e; stroke: #ff7f0e; stroke-linejoin: miter"/>
     <use xlink:href="#me494d0d258" x="532.069732" y="233.06183" style="fill: #ff7f0e; stroke: #ff7f0e; stroke-linejoin: miter"/>
     <use xlink:href="#me494d0d258" x="686.606875" y="240.908021" style="fill: #ff7f0e; stroke: #ff7f0e; stroke-linejoin: miter"/>
    </g>
   </g>
   <g id="line2d_15">
    <path d="M 222.995446 214.456347 
L 377.532589 308.0003 
L 532.069732 292.50677 
L 686.606875 262.850083 
" clip-path="url(#p5c06ece83a)" style="fill: none; stroke-dasharray: 11.1,4.8; stroke-dashoffset: 0; stroke: #1f77b4; stroke-width: 3"/>
    <g clip-path="url(#p5c06ece83a)">
     <use xlink:href="#m044fd139c6" x="222.995446" y="214.456347" style="fill: #1f77b4; stroke: #1f77b4; stroke-linejoin: miter"/>
     <use xlink:href="#m044fd139c6" x="377.532589" y="308.0003" style="fill: #1f77b4; stroke: #1f77b4; stroke-linejoin: miter"/>
     <use xlink:href="#m044fd139c6" x="532.069732" y="292.50677" style="fill: #1f77b4; stroke: #1f77b4; stroke-linejoin: miter"/>
     <use xlink:href="#m044fd139c6" x="686.606875" y="262.850083" style="fill: #1f77b4; stroke: #1f77b4; stroke-linejoin: miter"/>
    </g>
   </g>
   <g id="line2d_16">
    <path d="M 222.995446 256.541709 
L 377.532589 271.446732 
L 532.069732 262.159754 
L 686.606875 289.951747 
" clip-path="url(#p5c06ece83a)" style="fill: none; stroke-dasharray: 19.2,4.8,3,4.8; stroke-dashoffset: 0; stroke: #ff7f0e; stroke-width: 3"/>
    <g clip-path="url(#p5c06ece83a)">
     <use xlink:href="#me494d0d258" x="222.995446" y="256.541709" style="fill: #ff7f0e; stroke: #ff7f0e; stroke-linejoin: miter"/>
     <use xlink:href="#me494d0d258" x="377.532589" y="271.446732" style="fill: #ff7f0e; stroke: #ff7f0e; stroke-linejoin: miter"/>
     <use xlink:href="#me494d0d258" x="532.069732" y="262.159754" style="fill: #ff7f0e; stroke: #ff7f0e; stroke-linejoin: miter"/>
     <use xlink:href="#me494d0d258" x="686.606875" y="289.951747" style="fill: #ff7f0e; stroke: #ff7f0e; stroke-linejoin: miter"/>
    </g>
   </g>
   <g id="line2d_17">
    <path d="M 222.995446 373.289336 
L 377.532589 320.059973 
L 532.069732 347.097914 
L 686.606875 356.035257 
" clip-path="url(#p5c06ece83a)" style="fill: none; stroke-dasharray: 11.1,4.8; stroke-dashoffset: 0; stroke: #1f77b4; stroke-width: 3"/>
    <g clip-path="url(#p5c06ece83a)">
     <use xlink:href="#m044fd139c6" x="222.995446" y="373.289336" style="fill: #1f77b4; stroke: #1f77b4; stroke-linejoin: miter"/>
     <use xlink:href="#m044fd139c6" x="377.532589" y="320.059973" style="fill: #1f77b4; stroke: #1f77b4; stroke-linejoin: miter"/>
     <use xlink:href="#m044fd139c6" x="532.069732" y="347.097914" style="fill: #1f77b4; stroke: #1f77b4; stroke-linejoin: miter"/>
     <use xlink:href="#m044fd139c6" x="686.606875" y="356.035257" style="fill: #1f77b4; stroke: #1f77b4; stroke-linejoin: miter"/>
    </g>
   </g>
   <g id="line2d_18">
    <path d="M 222.995446 252.719598 
L 377.532589 227.083359 
L 532.069732 234.769474 
L 686.606875 260.499508 
" clip-path="url(#p5c06ece83a)" style="fill: none; stroke-dasharray: 19.2,4.8,3,4.8; stroke-dashoffset: 0; stroke: #ff7f0e; stroke-width: 3"/>
    <g clip-path="url(#p5c06ece83a)">
     <use xlink:href="#me494d0d258" x="222.995446" y="252.719598" style="fill: #ff7f0e; stroke: #ff7f0e; stroke-linejoin: miter"/>
     <use xlink:href="#me494d0d258" x="377.532589" y="227.083359" style="fill: #ff7f0e; stroke: #ff7f0e; stroke-linejoin: miter"/>
     <use xlink:href="#me494d0d258" x="532.069732" y="234.769474" style="fill: #ff7f0e; stroke: #ff7f0e; stroke-linejoin: miter"/>
     <use xlink:href="#me494d0d258" x="686.606875" y="260.499508" style="fill: #ff7f0e; stroke: #ff7f0e; stroke-linejoin: miter"/>
    </g>
   </g>
   <g id="line2d_19">
    <path d="M 222.995446 38.968264 
L 377.532589 104.924185 
L 532.069732 181.42456 
L 686.606875 200.310891 
" clip-path="url(#p5c06ece83a)" style="fill: none; stroke-dasharray: 11.1,4.8; stroke-dashoffset: 0; stroke: #1f77b4; stroke-width: 3"/>
    <g clip-path="url(#p5c06ece83a)">
     <use xlink:href="#m044fd139c6" x="222.995446" y="38.968264" style="fill: #1f77b4; stroke: #1f77b4; stroke-linejoin: miter"/>
     <use xlink:href="#m044fd139c6" x="377.532589" y="104.924185" style="fill: #1f77b4; stroke: #1f77b4; stroke-linejoin: miter"/>
     <use xlink:href="#m044fd139c6" x="532.069732" y="181.42456" style="fill: #1f77b4; stroke: #1f77b4; stroke-linejoin: miter"/>
     <use xlink:href="#m044fd139c6" x="686.606875" y="200.310891" style="fill: #1f77b4; stroke: #1f77b4; stroke-linejoin: miter"/>
    </g>
   </g>
   <g id="line2d_20">
    <path d="M 222.995446 197.304598 
L 377.532589 198.452185 
L 532.069732 208.468322 
L 686.606875 185.915284 
" clip-path="url(#p5c06ece83a)" style="fill: none; stroke-dasharray: 19.2,4.8,3,4.8; stroke-dashoffset: 0; stroke: #ff7f0e; stroke-width: 3"/>
    <g clip-path="url(#p5c06ece83a)">
     <use xlink:href="#me494d0d258" x="222.995446" y="197.304598" style="fill: #ff7f0e; stroke: #ff7f0e; stroke-linejoin: miter"/>
     <use xlink:href="#me494d0d258" x="377.532589" y="198.452185" style="fill: #ff7f0e; stroke: #ff7f0e; stroke-linejoin: miter"/>
     <use xlink:href="#me494d0d258" x="532.069732" y="208.468322" style="fill: #ff7f0e; stroke: #ff7f0e; stroke-linejoin: miter"/>
     <use xlink:href="#me494d0d258" x="686.606875" y="185.915284" style="fill: #ff7f0e; stroke: #ff7f0e; stroke-linejoin: miter"/>
    </g>
   </g>
   <g id="line2d_21">
    <path d="M 222.995446 410.696938 
L 377.532589 378.207533 
L 532.069732 330.91231 
L 686.606875 289.798123 
" clip-path="url(#p5c06ece83a)" style="fill: none; stroke-dasharray: 11.1,4.8; stroke-dashoffset: 0; stroke: #1f77b4; stroke-width: 3"/>
    <g clip-path="url(#p5c06ece83a)">
     <use xlink:href="#m044fd139c6" x="222.995446" y="410.696938" style="fill: #1f77b4; stroke: #1f77b4; stroke-linejoin: miter"/>
     <use xlink:href="#m044fd139c6" x="377.532589" y="378.207533" style="fill: #1f77b4; stroke: #1f77b4; stroke-linejoin: miter"/>
     <use xlink:href="#m044fd139c6" x="532.069732" y="330.91231" style="fill: #1f77b4; stroke: #1f77b4; stroke-linejoin: miter"/>
     <use xlink:href="#m044fd139c6" x="686.606875" y="289.798123" style="fill: #1f77b4; stroke: #1f77b4; stroke-linejoin: miter"/>
    </g>
   </g>
   <g id="line2d_22">
    <path d="M 222.995446 186.211402 
L 377.532589 219.572941 
L 532.069732 227.55522 
L 686.606875 211.394904 
" clip-path="url(#p5c06ece83a)" style="fill: none; stroke-dasharray: 19.2,4.8,3,4.8; stroke-dashoffset: 0; stroke: #ff7f0e; stroke-width: 3"/>
    <g clip-path="url(#p5c06ece83a)">
     <use xlink:href="#me494d0d258" x="222.995446" y="186.211402" style="fill: #ff7f0e; stroke: #ff7f0e; stroke-linejoin: miter"/>
     <use xlink:href="#me494d0d258" x="377.532589" y="219.572941" style="fill: #ff7f0e; stroke: #ff7f0e; stroke-linejoin: miter"/>
     <use xlink:href="#me494d0d258" x="532.069732" y="227.55522" style="fill: #ff7f0e; stroke: #ff7f0e; stroke-linejoin: miter"/>
     <use xlink:href="#me494d0d258" x="686.606875" y="211.394904" style="fill: #ff7f0e; stroke: #ff7f0e; stroke-linejoin: miter"/>
    </g>
   </g>
   <g id="line2d_23">
    <path clip-path="url(#p5c06ece83a)" style="fill: none; stroke-dasharray: 1.85,0.8; stroke-dashoffset: 0; stroke: #000000; stroke-width: 0.5"/>
   </g>
   <g id="line2d_24">
    <path clip-path="url(#p5c06ece83a)" style="fill: none; stroke-dasharray: 1.85,0.8; stroke-dashoffset: 0; stroke: #000000; stroke-width: 0.5"/>
   </g>
   <g id="patch_5">
    <path d="M 145.726875 456.837812 
L 145.726875 17.837812 
" style="fill: none; stroke: #000000; stroke-width: 0.8; stroke-linejoin: miter; stroke-linecap: square"/>
   </g>
   <g id="patch_6">
    <path d="M 686.606875 456.837812 
L 686.606875 17.837812 
" style="fill: none; stroke: #000000; stroke-width: 0.8; stroke-linejoin: miter; stroke-linecap: square"/>
   </g>
   <g id="patch_7">
    <path d="M 145.726875 456.837812 
L 686.606875 456.837812 
" style="fill: none; stroke: #000000; stroke-width: 0.8; stroke-linejoin: miter; stroke-linecap: square"/>
   </g>
   <g id="patch_8">
    <path d="M 145.726875 17.837813 
L 686.606875 17.837813 
" style="fill: none; stroke: #000000; stroke-width: 0.8; stroke-linejoin: miter; stroke-linecap: square"/>
   </g>
   <g id="text_13">
    <!-- // -->
    <g transform="translate(176.276161 463.460312) scale(0.24 -0.24)">
     <defs>
      <path id="DejaVuSans-2f" d="M 1625 4666 
L 2156 4666 
L 531 -594 
L 0 -594 
L 1625 4666 
z
" transform="scale(0.015625)"/>
     </defs>
     <use xlink:href="#DejaVuSans-2f"/>
     <use xlink:href="#DejaVuSans-2f" transform="translate(33.691406 0)"/>
    </g>
   </g>
   <g id="text_14">
    <!-- u -->
    <g style="fill: #555555" transform="translate(207.541732 52.40514) scale(0.14 -0.14)">
     <use xlink:href="#DejaVuSans-75"/>
    </g>
   </g>
   <g id="text_15">
    <!-- u -->
    <g style="fill: #555555" transform="translate(207.541732 204.824676) scale(0.14 -0.14)">
     <use xlink:href="#DejaVuSans-75"/>
    </g>
   </g>
   <g id="text_16">
    <!-- d -->
    <g style="fill: #555555" transform="translate(207.541732 218.77361) scale(0.14 -0.14)">
     <defs>
      <path id="DejaVuSans-64" d="M 2906 2969 
L 2906 4863 
L 3481 4863 
L 3481 0 
L 2906 0 
L 2906 525 
Q 2725 213 2448 61 
Q 2172 -91 1784 -91 
Q 1150 -91 751 415 
Q 353 922 353 1747 
Q 353 2572 751 3078 
Q 1150 3584 1784 3584 
Q 2172 3584 2448 3432 
Q 2725 3281 2906 2969 
z
M 947 1747 
Q 947 1113 1208 752 
Q 1469 391 1925 391 
Q 2381 391 2643 752 
Q 2906 1113 2906 1747 
Q 2906 2381 2643 2742 
Q 2381 3103 1925 3103 
Q 1469 3103 1208 2742 
Q 947 2381 947 1747 
z
" transform="scale(0.015625)"/>
     </defs>
     <use xlink:href="#DejaVuSans-64"/>
    </g>
   </g>
   <g id="text_17">
    <!-- d -->
    <g style="fill: #555555" transform="translate(207.541732 261.086041) scale(0.14 -0.14)">
     <use xlink:href="#DejaVuSans-64"/>
    </g>
   </g>
   <g id="text_18">
    <!-- f -->
    <g style="fill: #555555" transform="translate(207.541732 43.739665) scale(0.14 -0.14)">
     <defs>
      <path id="DejaVuSans-66" d="M 2375 4863 
L 2375 4384 
L 1825 4384 
Q 1516 4384 1395 4259 
Q 1275 4134 1275 3809 
L 1275 3500 
L 2222 3500 
L 2222 3053 
L 1275 3053 
L 1275 0 
L 697 0 
L 697 3053 
L 147 3053 
L 147 3500 
L 697 3500 
L 697 3744 
Q 697 4328 969 4595 
Q 1241 4863 1831 4863 
L 2375 4863 
z
" transform="scale(0.015625)"/>
     </defs>
     <use xlink:href="#DejaVuSans-66"/>
    </g>
   </g>
   <g id="text_19">
    <!-- f -->
    <g style="fill: #555555" transform="translate(207.541732 202.303068) scale(0.14 -0.14)">
     <use xlink:href="#DejaVuSans-66"/>
    </g>
   </g>
   <g id="text_20">
    <!-- u -->
    <g style="fill: #555555" transform="translate(207.541732 420.949143) scale(0.14 -0.14)">
     <use xlink:href="#DejaVuSans-75"/>
    </g>
   </g>
   <g id="text_21">
    <!-- u -->
    <g style="fill: #555555" transform="translate(207.541732 178.125412) scale(0.14 -0.14)">
     <use xlink:href="#DejaVuSans-75"/>
    </g>
   </g>
   <g id="text_22">
    <!-- d -->
    <g style="fill: #555555" transform="translate(207.541732 378.969013) scale(0.14 -0.14)">
     <use xlink:href="#DejaVuSans-64"/>
    </g>
   </g>
   <g id="text_23">
    <!-- d -->
    <g style="fill: #555555" transform="translate(207.541732 258.626344) scale(0.14 -0.14)">
     <use xlink:href="#DejaVuSans-64"/>
    </g>
   </g>
   <g id="text_24">
    <!-- f -->
    <g style="fill: #555555" transform="translate(207.541732 416.830753) scale(0.14 -0.14)">
     <use xlink:href="#DejaVuSans-66"/>
    </g>
   </g>
   <g id="text_25">
    <!-- f -->
    <g style="fill: #555555" transform="translate(207.541732 192.572285) scale(0.14 -0.14)">
     <use xlink:href="#DejaVuSans-66"/>
    </g>
   </g>
   <g id="text_26">
    <g id="patch_9">
     <path d="M 558.977161 77.772675 
L 667.359661 77.772675 
L 667.359661 18.454675 
L 558.977161 18.454675 
L 558.977161 77.772675 
z
" style="fill: none; opacity: 0"/>
    </g>
    <!-- u = uphill -->
    <g style="fill: #555555" transform="translate(562.977161 34.612175) scale(0.16 -0.16)">
     <defs>
      <path id="DejaVuSans-3d" d="M 678 2906 
L 4684 2906 
L 4684 2381 
L 678 2381 
L 678 2906 
z
M 678 1631 
L 4684 1631 
L 4684 1100 
L 678 1100 
L 678 1631 
z
" transform="scale(0.015625)"/>
      <path id="DejaVuSans-6c" d="M 603 4863 
L 1178 4863 
L 1178 0 
L 603 0 
L 603 4863 
z
" transform="scale(0.015625)"/>
     </defs>
     <use xlink:href="#DejaVuSans-75"/>
     <use xlink:href="#DejaVuSans-20" transform="translate(63.378906 0)"/>
     <use xlink:href="#DejaVuSans-3d" transform="translate(95.166016 0)"/>
     <use xlink:href="#DejaVuSans-20" transform="translate(178.955078 0)"/>
     <use xlink:href="#DejaVuSans-75" transform="translate(210.742188 0)"/>
     <use xlink:href="#DejaVuSans-70" transform="translate(274.121094 0)"/>
     <use xlink:href="#DejaVuSans-68" transform="translate(337.597656 0)"/>
     <use xlink:href="#DejaVuSans-69" transform="translate(400.976562 0)"/>
     <use xlink:href="#DejaVuSans-6c" transform="translate(428.759766 0)"/>
     <use xlink:href="#DejaVuSans-6c" transform="translate(456.542969 0)"/>
    </g>
    <!-- d = downhill -->
    <g style="fill: #555555" transform="translate(562.977161 52.528675) scale(0.16 -0.16)">
     <defs>
      <path id="DejaVuSans-77" d="M 269 3500 
L 844 3500 
L 1563 769 
L 2278 3500 
L 2956 3500 
L 3675 769 
L 4391 3500 
L 4966 3500 
L 4050 0 
L 3372 0 
L 2619 2869 
L 1863 0 
L 1184 0 
L 269 3500 
z
" transform="scale(0.015625)"/>
      <path id="DejaVuSans-6e" d="M 3513 2113 
L 3513 0 
L 2938 0 
L 2938 2094 
Q 2938 2591 2744 2837 
Q 2550 3084 2163 3084 
Q 1697 3084 1428 2787 
Q 1159 2491 1159 1978 
L 1159 0 
L 581 0 
L 581 3500 
L 1159 3500 
L 1159 2956 
Q 1366 3272 1645 3428 
Q 1925 3584 2291 3584 
Q 2894 3584 3203 3211 
Q 3513 2838 3513 2113 
z
" transform="scale(0.015625)"/>
     </defs>
     <use xlink:href="#DejaVuSans-64"/>
     <use xlink:href="#DejaVuSans-20" transform="translate(63.476562 0)"/>
     <use xlink:href="#DejaVuSans-3d" transform="translate(95.263672 0)"/>
     <use xlink:href="#DejaVuSans-20" transform="translate(179.052734 0)"/>
     <use xlink:href="#DejaVuSans-64" transform="translate(210.839844 0)"/>
     <use xlink:href="#DejaVuSans-6f" transform="translate(274.316406 0)"/>
     <use xlink:href="#DejaVuSans-77" transform="translate(335.498047 0)"/>
     <use xlink:href="#DejaVuSans-6e" transform="translate(417.285156 0)"/>
     <use xlink:href="#DejaVuSans-68" transform="translate(480.664062 0)"/>
     <use xlink:href="#DejaVuSans-69" transform="translate(544.042969 0)"/>
     <use xlink:href="#DejaVuSans-6c" transform="translate(571.826172 0)"/>
     <use xlink:href="#DejaVuSans-6c" transform="translate(599.609375 0)"/>
    </g>
    <!-- f = flathill -->
    <g style="fill: #555555" transform="translate(562.977161 70.445175) scale(0.16 -0.16)">
     <use xlink:href="#DejaVuSans-66"/>
     <use xlink:href="#DejaVuSans-20" transform="translate(35.205078 0)"/>
     <use xlink:href="#DejaVuSans-3d" transform="translate(66.992188 0)"/>
     <use xlink:href="#DejaVuSans-20" transform="translate(150.78125 0)"/>
     <use xlink:href="#DejaVuSans-66" transform="translate(182.568359 0)"/>
     <use xlink:href="#DejaVuSans-6c" transform="translate(217.773438 0)"/>
     <use xlink:href="#DejaVuSans-61" transform="translate(245.556641 0)"/>
     <use xlink:href="#DejaVuSans-74" transform="translate(306.835938 0)"/>
     <use xlink:href="#DejaVuSans-68" transform="translate(346.044922 0)"/>
     <use xlink:href="#DejaVuSans-69" transform="translate(409.423828 0)"/>
     <use xlink:href="#DejaVuSans-6c" transform="translate(437.207031 0)"/>
     <use xlink:href="#DejaVuSans-6c" transform="translate(464.990234 0)"/>
    </g>
   </g>
  </g>
  <g id="text_27">
   <!-- Avg charge usage score by trip end (defensive): 83.6  -->
   <g style="fill: #1f77b4" transform="translate(7.2 581.597813) scale(0.28 -0.28)">
    <defs>
     <path id="DejaVuSans-41" d="M 2188 4044 
L 1331 1722 
L 3047 1722 
L 2188 4044 
z
M 1831 4666 
L 2547 4666 
L 4325 0 
L 3669 0 
L 3244 1197 
L 1141 1197 
L 716 0 
L 50 0 
L 1831 4666 
z
" transform="scale(0.015625)"/>
     <path id="DejaVuSans-76" d="M 191 3500 
L 800 3500 
L 1894 563 
L 2988 3500 
L 3597 3500 
L 2284 0 
L 1503 0 
L 191 3500 
z
" transform="scale(0.015625)"/>
     <path id="DejaVuSans-62" d="M 3116 1747 
Q 3116 2381 2855 2742 
Q 2594 3103 2138 3103 
Q 1681 3103 1420 2742 
Q 1159 2381 1159 1747 
Q 1159 1113 1420 752 
Q 1681 391 2138 391 
Q 2594 391 2855 752 
Q 3116 1113 3116 1747 
z
M 1159 2969 
Q 1341 3281 1617 3432 
Q 1894 3584 2278 3584 
Q 2916 3584 3314 3078 
Q 3713 2572 3713 1747 
Q 3713 922 3314 415 
Q 2916 -91 2278 -91 
Q 1894 -91 1617 61 
Q 1341 213 1159 525 
L 1159 0 
L 581 0 
L 581 4863 
L 1159 4863 
L 1159 2969 
z
" transform="scale(0.015625)"/>
     <path id="DejaVuSans-79" d="M 2059 -325 
Q 1816 -950 1584 -1140 
Q 1353 -1331 966 -1331 
L 506 -1331 
L 506 -850 
L 844 -850 
Q 1081 -850 1212 -737 
Q 1344 -625 1503 -206 
L 1606 56 
L 191 3500 
L 800 3500 
L 1894 763 
L 2988 3500 
L 3597 3500 
L 2059 -325 
z
" transform="scale(0.015625)"/>
     <path id="DejaVuSans-3a" d="M 750 794 
L 1409 794 
L 1409 0 
L 750 0 
L 750 794 
z
M 750 3309 
L 1409 3309 
L 1409 2516 
L 750 2516 
L 750 3309 
z
" transform="scale(0.015625)"/>
     <path id="DejaVuSans-33" d="M 2597 2516 
Q 3050 2419 3304 2112 
Q 3559 1806 3559 1356 
Q 3559 666 3084 287 
Q 2609 -91 1734 -91 
Q 1441 -91 1130 -33 
Q 819 25 488 141 
L 488 750 
Q 750 597 1062 519 
Q 1375 441 1716 441 
Q 2309 441 2620 675 
Q 2931 909 2931 1356 
Q 2931 1769 2642 2001 
Q 2353 2234 1838 2234 
L 1294 2234 
L 1294 2753 
L 1863 2753 
Q 2328 2753 2575 2939 
Q 2822 3125 2822 3475 
Q 2822 3834 2567 4026 
Q 2313 4219 1838 4219 
Q 1578 4219 1281 4162 
Q 984 4106 628 3988 
L 628 4550 
Q 988 4650 1302 4700 
Q 1616 4750 1894 4750 
Q 2613 4750 3031 4423 
Q 3450 4097 3450 3541 
Q 3450 3153 3228 2886 
Q 3006 2619 2597 2516 
z
" transform="scale(0.015625)"/>
     <path id="DejaVuSans-2e" d="M 684 794 
L 1344 794 
L 1344 0 
L 684 0 
L 684 794 
z
" transform="scale(0.015625)"/>
    </defs>
    <use xlink:href="#DejaVuSans-41"/>
    <use xlink:href="#DejaVuSans-76" transform="translate(62.533203 0)"/>
    <use xlink:href="#DejaVuSans-67" transform="translate(121.712891 0)"/>
    <use xlink:href="#DejaVuSans-20" transform="translate(185.189453 0)"/>
    <use xlink:href="#DejaVuSans-63" transform="translate(216.976562 0)"/>
    <use xlink:href="#DejaVuSans-68" transform="translate(271.957031 0)"/>
    <use xlink:href="#DejaVuSans-61" transform="translate(335.335938 0)"/>
    <use xlink:href="#DejaVuSans-72" transform="translate(396.615234 0)"/>
    <use xlink:href="#DejaVuSans-67" transform="translate(435.978516 0)"/>
    <use xlink:href="#DejaVuSans-65" transform="translate(499.455078 0)"/>
    <use xlink:href="#DejaVuSans-20" transform="translate(560.978516 0)"/>
    <use xlink:href="#DejaVuSans-75" transform="translate(592.765625 0)"/>
    <use xlink:href="#DejaVuSans-73" transform="translate(656.144531 0)"/>
    <use xlink:href="#DejaVuSans-61" transform="translate(708.244141 0)"/>
    <use xlink:href="#DejaVuSans-67" transform="translate(769.523438 0)"/>
    <use xlink:href="#DejaVuSans-65" transform="translate(833 0)"/>
    <use xlink:href="#DejaVuSans-20" transform="translate(894.523438 0)"/>
    <use xlink:href="#DejaVuSans-73" transform="translate(926.310547 0)"/>
    <use xlink:href="#DejaVuSans-63" transform="translate(978.410156 0)"/>
    <use xlink:href="#DejaVuSans-6f" transform="translate(1033.390625 0)"/>
    <use xlink:href="#DejaVuSans-72" transform="translate(1094.572266 0)"/>
    <use xlink:href="#DejaVuSans-65" transform="translate(1133.435547 0)"/>
    <use xlink:href="#DejaVuSans-20" transform="translate(1194.958984 0)"/>
    <use xlink:href="#DejaVuSans-62" transform="translate(1226.746094 0)"/>
    <use xlink:href="#DejaVuSans-79" transform="translate(1290.222656 0)"/>
    <use xlink:href="#DejaVuSans-20" transform="translate(1349.402344 0)"/>
    <use xlink:href="#DejaVuSans-74" transform="translate(1381.189453 0)"/>
    <use xlink:href="#DejaVuSans-72" transform="translate(1420.398438 0)"/>
    <use xlink:href="#DejaVuSans-69" transform="translate(1461.511719 0)"/>
    <use xlink:href="#DejaVuSans-70" transform="translate(1489.294922 0)"/>
    <use xlink:href="#DejaVuSans-20" transform="translate(1552.771484 0)"/>
    <use xlink:href="#DejaVuSans-65" transform="translate(1584.558594 0)"/>
    <use xlink:href="#DejaVuSans-6e" transform="translate(1646.082031 0)"/>
    <use xlink:href="#DejaVuSans-64" transform="translate(1709.460938 0)"/>
    <use xlink:href="#DejaVuSans-20" transform="translate(1772.9375 0)"/>
    <use xlink:href="#DejaVuSans-28" transform="translate(1804.724609 0)"/>
    <use xlink:href="#DejaVuSans-64" transform="translate(1843.738281 0)"/>
    <use xlink:href="#DejaVuSans-65" transform="translate(1907.214844 0)"/>
    <use xlink:href="#DejaVuSans-66" transform="translate(1968.738281 0)"/>
    <use xlink:href="#DejaVuSans-65" transform="translate(2003.943359 0)"/>
    <use xlink:href="#DejaVuSans-6e" transform="translate(2065.466797 0)"/>
    <use xlink:href="#DejaVuSans-73" transform="translate(2128.845703 0)"/>
    <use xlink:href="#DejaVuSans-69" transform="translate(2180.945312 0)"/>
    <use xlink:href="#DejaVuSans-76" transform="translate(2208.728516 0)"/>
    <use xlink:href="#DejaVuSans-65" transform="translate(2267.908203 0)"/>
    <use xlink:href="#DejaVuSans-29" transform="translate(2329.431641 0)"/>
    <use xlink:href="#DejaVuSans-3a" transform="translate(2368.445312 0)"/>
    <use xlink:href="#DejaVuSans-20" transform="translate(2402.136719 0)"/>
    <use xlink:href="#DejaVuSans-38" transform="translate(2433.923828 0)"/>
    <use xlink:href="#DejaVuSans-33" transform="translate(2497.546875 0)"/>
    <use xlink:href="#DejaVuSans-2e" transform="translate(2561.169922 0)"/>
    <use xlink:href="#DejaVuSans-36" transform="translate(2592.957031 0)"/>
    <use xlink:href="#DejaVuSans-20" transform="translate(2656.580078 0)"/>
   </g>
  </g>
  <g id="text_28">
   <!-- Avg charge usage score by trip end (assertive): 86.0 -->
   <g style="fill: #ff7f0e" transform="translate(15.83625 621.917813) scale(0.28 -0.28)">
    <use xlink:href="#DejaVuSans-41"/>
    <use xlink:href="#DejaVuSans-76" transform="translate(62.533203 0)"/>
    <use xlink:href="#DejaVuSans-67" transform="translate(121.712891 0)"/>
    <use xlink:href="#DejaVuSans-20" transform="translate(185.189453 0)"/>
    <use xlink:href="#DejaVuSans-63" transform="translate(216.976562 0)"/>
    <use xlink:href="#DejaVuSans-68" transform="translate(271.957031 0)"/>
    <use xlink:href="#DejaVuSans-61" transform="translate(335.335938 0)"/>
    <use xlink:href="#DejaVuSans-72" transform="translate(396.615234 0)"/>
    <use xlink:href="#DejaVuSans-67" transform="translate(435.978516 0)"/>
    <use xlink:href="#DejaVuSans-65" transform="translate(499.455078 0)"/>
    <use xlink:href="#DejaVuSans-20" transform="translate(560.978516 0)"/>
    <use xlink:href="#DejaVuSans-75" transform="translate(592.765625 0)"/>
    <use xlink:href="#DejaVuSans-73" transform="translate(656.144531 0)"/>
    <use xlink:href="#DejaVuSans-61" transform="translate(708.244141 0)"/>
    <use xlink:href="#DejaVuSans-67" transform="translate(769.523438 0)"/>
    <use xlink:href="#DejaVuSans-65" transform="translate(833 0)"/>
    <use xlink:href="#DejaVuSans-20" transform="translate(894.523438 0)"/>
    <use xlink:href="#DejaVuSans-73" transform="translate(926.310547 0)"/>
    <use xlink:href="#DejaVuSans-63" transform="translate(978.410156 0)"/>
    <use xlink:href="#DejaVuSans-6f" transform="translate(1033.390625 0)"/>
    <use xlink:href="#DejaVuSans-72" transform="translate(1094.572266 0)"/>
    <use xlink:href="#DejaVuSans-65" transform="translate(1133.435547 0)"/>
    <use xlink:href="#DejaVuSans-20" transform="translate(1194.958984 0)"/>
    <use xlink:href="#DejaVuSans-62" transform="translate(1226.746094 0)"/>
    <use xlink:href="#DejaVuSans-79" transform="translate(1290.222656 0)"/>
    <use xlink:href="#DejaVuSans-20" transform="translate(1349.402344 0)"/>
    <use xlink:href="#DejaVuSans-74" transform="translate(1381.189453 0)"/>
    <use xlink:href="#DejaVuSans-72" transform="translate(1420.398438 0)"/>
    <use xlink:href="#DejaVuSans-69" transform="translate(1461.511719 0)"/>
    <use xlink:href="#DejaVuSans-70" transform="translate(1489.294922 0)"/>
    <use xlink:href="#DejaVuSans-20" transform="translate(1552.771484 0)"/>
    <use xlink:href="#DejaVuSans-65" transform="translate(1584.558594 0)"/>
    <use xlink:href="#DejaVuSans-6e" transform="translate(1646.082031 0)"/>
    <use xlink:href="#DejaVuSans-64" transform="translate(1709.460938 0)"/>
    <use xlink:href="#DejaVuSans-20" transform="translate(1772.9375 0)"/>
    <use xlink:href="#DejaVuSans-28" transform="translate(1804.724609 0)"/>
    <use xlink:href="#DejaVuSans-61" transform="translate(1843.738281 0)"/>
    <use xlink:href="#DejaVuSans-73" transform="translate(1905.017578 0)"/>
    <use xlink:href="#DejaVuSans-73" transform="translate(1957.117188 0)"/>
    <use xlink:href="#DejaVuSans-65" transform="translate(2009.216797 0)"/>
    <use xlink:href="#DejaVuSans-72" transform="translate(2070.740234 0)"/>
    <use xlink:href="#DejaVuSans-74" transform="translate(2111.853516 0)"/>
    <use xlink:href="#DejaVuSans-69" transform="translate(2151.0625 0)"/>
    <use xlink:href="#DejaVuSans-76" transform="translate(2178.845703 0)"/>
    <use xlink:href="#DejaVuSans-65" transform="translate(2238.025391 0)"/>
    <use xlink:href="#DejaVuSans-29" transform="translate(2299.548828 0)"/>
    <use xlink:href="#DejaVuSans-3a" transform="translate(2338.5625 0)"/>
    <use xlink:href="#DejaVuSans-20" transform="translate(2372.253906 0)"/>
    <use xlink:href="#DejaVuSans-38" transform="translate(2404.041016 0)"/>
    <use xlink:href="#DejaVuSans-36" transform="translate(2467.664062 0)"/>
    <use xlink:href="#DejaVuSans-2e" transform="translate(2531.287109 0)"/>
    <use xlink:href="#DejaVuSans-30" transform="translate(2563.074219 0)"/>
   </g>
  </g>
 </g>
 <defs>
  <clipPath id="p5c06ece83a">
   <rect x="145.726875" y="17.837813" width="540.88" height="439"/>
  </clipPath>
 </defs>
</svg>
