<?xml version="1.0" encoding="utf-8" standalone="no"?>
<!DOCTYPE svg PUBLIC "-//W3C//DTD SVG 1.1//EN"
  "http://www.w3.org/Graphics/SVG/1.1/DTD/svg11.dtd">
<svg xmlns:xlink="http://www.w3.org/1999/xlink" width="352.684062pt" height="244.376562pt" viewBox="0 0 352.684062 244.376562" xmlns="http://www.w3.org/2000/svg" version="1.1">
 <metadata>
  <rdf:RDF xmlns:dc="http://purl.org/dc/elements/1.1/" xmlns:cc="http://creativecommons.org/ns#" xmlns:rdf="http://www.w3.org/1999/02/22-rdf-syntax-ns#">
   <cc:Work>
    <dc:type rdf:resource="http://purl.org/dc/dcmitype/StillImage"/>
    <dc:date>2025-01-07T06:31:53.019065</dc:date>
    <dc:format>image/svg+xml</dc:format>
    <dc:creator>
     <cc:Agent>
      <dc:title>Matplotlib v3.7.2, https://matplotlib.org/</dc:title>
     </cc:Agent>
    </dc:creator>
   </cc:Work>
  </rdf:RDF>
 </metadata>
 <defs>
  <style type="text/css">*{stroke-linejoin: round; stroke-linecap: butt}</style>
 </defs>
 <g id="figure_1">
  <g id="patch_1">
   <path d="M 0 244.376562 
L 352.684062 244.376562 
L 352.684062 0 
L 0 0 
z
" style="fill: #ffffff"/>
  </g>
  <g id="axes_1">
   <g id="patch_2">
    <path d="M 58.471875 199.077812 
L 264.329344 199.077812 
L 264.329344 23.837812 
L 58.471875 23.837812 
z
" style="fill: #ffffff"/>
   </g>
   <g id="line2d_1">
    <path d="M 58.471875 199.077812 
L 264.329344 23.837812 
" clip-path="url(#p8d67e96a2f)" style="fill: none; stroke-dasharray: 7.4,3.2; stroke-dashoffset: 0; stroke: #808080; stroke-width: 2"/>
   </g>
   <g id="PathCollection_1">
    <defs>
     <path id="mfe100594c5" d="M 0 5 
C 1.326016 5 2.597899 4.473168 3.535534 3.535534 
C 4.473168 2.597899 5 1.326016 5 0 
C 5 -1.326016 4.473168 -2.597899 3.535534 -3.535534 
C 2.597899 -4.473168 1.326016 -5 0 -5 
C -1.326016 -5 -2.597899 -4.473168 -3.535534 -3.535534 
C -4.473168 -2.597899 -5 -1.326016 -5 0 
C -5 1.326016 -4.473168 2.597899 -3.535534 3.535534 
C -2.597899 4.473168 -1.326016 5 0 5 
z
" style="stroke: #51127c"/>
    </defs>
    <g clip-path="url(#p8d67e96a2f)">
     <use xlink:href="#mfe100594c5" x="179.448143" y="97.305318" style="fill: #51127c; stroke: #51127c"/>
     <use xlink:href="#mfe100594c5" x="150.571909" y="120.00536" style="fill: #51127c; stroke: #51127c"/>
     <use xlink:href="#mfe100594c5" x="174.916779" y="99.494629" style="fill: #51127c; stroke: #51127c"/>
     <use xlink:href="#mfe100594c5" x="196.87031" y="83.196672" style="fill: #51127c; stroke: #51127c"/>
     <use xlink:href="#mfe100594c5" x="179.793926" y="98.813445" style="fill: #51127c; stroke: #51127c"/>
     <use xlink:href="#mfe100594c5" x="185.566054" y="92.389637" style="fill: #51127c; stroke: #51127c"/>
     <use xlink:href="#mfe100594c5" x="199.132502" y="82.113476" style="fill: #51127c; stroke: #51127c"/>
     <use xlink:href="#mfe100594c5" x="164.592191" y="109.306401" style="fill: #51127c; stroke: #51127c"/>
     <use xlink:href="#mfe100594c5" x="183.332851" y="92.659461" style="fill: #51127c; stroke: #51127c"/>
     <use xlink:href="#mfe100594c5" x="146.056109" y="122.10131" style="fill: #51127c; stroke: #51127c"/>
     <use xlink:href="#mfe100594c5" x="151.541904" y="115.9726" style="fill: #51127c; stroke: #51127c"/>
     <use xlink:href="#mfe100594c5" x="166.345731" y="107.598697" style="fill: #51127c; stroke: #51127c"/>
     <use xlink:href="#mfe100594c5" x="165.282727" y="106.867887" style="fill: #51127c; stroke: #51127c"/>
     <use xlink:href="#mfe100594c5" x="164.101354" y="112.786242" style="fill: #51127c; stroke: #51127c"/>
     <use xlink:href="#mfe100594c5" x="203.844309" y="75.208968" style="fill: #51127c; stroke: #51127c"/>
     <use xlink:href="#mfe100594c5" x="180.078865" y="95.280297" style="fill: #51127c; stroke: #51127c"/>
     <use xlink:href="#mfe100594c5" x="188.558352" y="88.195422" style="fill: #51127c; stroke: #51127c"/>
     <use xlink:href="#mfe100594c5" x="173.634604" y="107.364354" style="fill: #51127c; stroke: #51127c"/>
     <use xlink:href="#mfe100594c5" x="188.674822" y="85.443183" style="fill: #51127c; stroke: #51127c"/>
     <use xlink:href="#mfe100594c5" x="180.778395" y="94.655391" style="fill: #51127c; stroke: #51127c"/>
     <use xlink:href="#mfe100594c5" x="149.085365" y="119.037314" style="fill: #51127c; stroke: #51127c"/>
     <use xlink:href="#mfe100594c5" x="174.286564" y="103.120273" style="fill: #51127c; stroke: #51127c"/>
     <use xlink:href="#mfe100594c5" x="189.860133" y="87.341324" style="fill: #51127c; stroke: #51127c"/>
     <use xlink:href="#mfe100594c5" x="150.990246" y="119.404269" style="fill: #51127c; stroke: #51127c"/>
     <use xlink:href="#mfe100594c5" x="160.694008" y="110.957992" style="fill: #51127c; stroke: #51127c"/>
     <use xlink:href="#mfe100594c5" x="198.258252" y="81.366907" style="fill: #51127c; stroke: #51127c"/>
     <use xlink:href="#mfe100594c5" x="167.262985" y="107.347344" style="fill: #51127c; stroke: #51127c"/>
     <use xlink:href="#mfe100594c5" x="177.015094" y="97.572771" style="fill: #51127c; stroke: #51127c"/>
     <use xlink:href="#mfe100594c5" x="164.24683" y="107.598697" style="fill: #51127c; stroke: #51127c"/>
     <use xlink:href="#mfe100594c5" x="160.195971" y="110.619423" style="fill: #51127c; stroke: #51127c"/>
     <use xlink:href="#mfe100594c5" x="155.46628" y="114.16126" style="fill: #51127c; stroke: #51127c"/>
     <use xlink:href="#mfe100594c5" x="187.047686" y="92.265496" style="fill: #51127c; stroke: #51127c"/>
     <use xlink:href="#mfe100594c5" x="110.35334" y="154.464593" style="fill: #51127c; stroke: #51127c"/>
     <use xlink:href="#mfe100594c5" x="191.151659" y="86.851679" style="fill: #51127c; stroke: #51127c"/>
     <use xlink:href="#mfe100594c5" x="128.718166" y="136.767654" style="fill: #51127c; stroke: #51127c"/>
     <use xlink:href="#mfe100594c5" x="164.813242" y="107.407448" style="fill: #51127c; stroke: #51127c"/>
     <use xlink:href="#mfe100594c5" x="202.725811" y="75.953482" style="fill: #51127c; stroke: #51127c"/>
     <use xlink:href="#mfe100594c5" x="203.428714" y="76.354359" style="fill: #51127c; stroke: #51127c"/>
     <use xlink:href="#mfe100594c5" x="111.033017" y="154.333539" style="fill: #51127c; stroke: #51127c"/>
     <use xlink:href="#mfe100594c5" x="199.60104" y="80.857105" style="fill: #51127c; stroke: #51127c"/>
     <use xlink:href="#mfe100594c5" x="128.16347" y="137.631991" style="fill: #51127c; stroke: #51127c"/>
     <use xlink:href="#mfe100594c5" x="174.271058" y="101.565611" style="fill: #51127c; stroke: #51127c"/>
     <use xlink:href="#mfe100594c5" x="141.734422" y="128.651959" style="fill: #51127c; stroke: #51127c"/>
     <use xlink:href="#mfe100594c5" x="155.745668" y="114.377204" style="fill: #51127c; stroke: #51127c"/>
     <use xlink:href="#mfe100594c5" x="180.514576" y="94.611324" style="fill: #51127c; stroke: #51127c"/>
     <use xlink:href="#mfe100594c5" x="145.234696" y="122.123549" style="fill: #51127c; stroke: #51127c"/>
     <use xlink:href="#mfe100594c5" x="178.110318" y="95.49487" style="fill: #51127c; stroke: #51127c"/>
     <use xlink:href="#mfe100594c5" x="185.675878" y="91.909127" style="fill: #51127c; stroke: #51127c"/>
     <use xlink:href="#mfe100594c5" x="156.518524" y="115.9726" style="fill: #51127c; stroke: #51127c"/>
     <use xlink:href="#mfe100594c5" x="169.114107" y="105.043316" style="fill: #51127c; stroke: #51127c"/>
     <use xlink:href="#mfe100594c5" x="145.546749" y="128.177276" style="fill: #51127c; stroke: #51127c"/>
     <use xlink:href="#mfe100594c5" x="108.087229" y="155.640412" style="fill: #51127c; stroke: #51127c"/>
     <use xlink:href="#mfe100594c5" x="188.029766" y="88.159913" style="fill: #51127c; stroke: #51127c"/>
     <use xlink:href="#mfe100594c5" x="184.880308" y="92.408842" style="fill: #51127c; stroke: #51127c"/>
     <use xlink:href="#mfe100594c5" x="165.254198" y="106.390371" style="fill: #51127c; stroke: #51127c"/>
     <use xlink:href="#mfe100594c5" x="167.900528" y="108.831625" style="fill: #51127c; stroke: #51127c"/>
     <use xlink:href="#mfe100594c5" x="160.453169" y="109.692536" style="fill: #51127c; stroke: #51127c"/>
     <use xlink:href="#mfe100594c5" x="176.968224" y="98.245167" style="fill: #51127c; stroke: #51127c"/>
     <use xlink:href="#mfe100594c5" x="199.885307" y="80.233861" style="fill: #51127c; stroke: #51127c"/>
     <use xlink:href="#mfe100594c5" x="185.017753" y="92.1729" style="fill: #51127c; stroke: #51127c"/>
     <use xlink:href="#mfe100594c5" x="169.74152" y="104.00313" style="fill: #51127c; stroke: #51127c"/>
     <use xlink:href="#mfe100594c5" x="180.934598" y="94.787636" style="fill: #51127c; stroke: #51127c"/>
     <use xlink:href="#mfe100594c5" x="97.366452" y="161.537761" style="fill: #51127c; stroke: #51127c"/>
     <use xlink:href="#mfe100594c5" x="176.607024" y="97.736579" style="fill: #51127c; stroke: #51127c"/>
     <use xlink:href="#mfe100594c5" x="143.545536" y="128.675827" style="fill: #51127c; stroke: #51127c"/>
     <use xlink:href="#mfe100594c5" x="177.537007" y="98.290572" style="fill: #51127c; stroke: #51127c"/>
     <use xlink:href="#mfe100594c5" x="198.134499" y="82.206407" style="fill: #51127c; stroke: #51127c"/>
     <use xlink:href="#mfe100594c5" x="179.207093" y="96.12668" style="fill: #51127c; stroke: #51127c"/>
     <use xlink:href="#mfe100594c5" x="181.084924" y="95.531754" style="fill: #51127c; stroke: #51127c"/>
     <use xlink:href="#mfe100594c5" x="182.024454" y="94.401504" style="fill: #51127c; stroke: #51127c"/>
     <use xlink:href="#mfe100594c5" x="194.435853" y="85.057283" style="fill: #51127c; stroke: #51127c"/>
     <use xlink:href="#mfe100594c5" x="194.055454" y="84.600818" style="fill: #51127c; stroke: #51127c"/>
     <use xlink:href="#mfe100594c5" x="177.103984" y="97.402343" style="fill: #51127c; stroke: #51127c"/>
     <use xlink:href="#mfe100594c5" x="164.481646" y="107.030403" style="fill: #51127c; stroke: #51127c"/>
     <use xlink:href="#mfe100594c5" x="204.916064" y="75.208968" style="fill: #51127c; stroke: #51127c"/>
     <use xlink:href="#mfe100594c5" x="163.849774" y="109.592088" style="fill: #51127c; stroke: #51127c"/>
    </g>
   </g>
   <g id="PathCollection_2">
    <defs>
     <path id="mfe3f7bfdfa" d="M -2.5 5 
L 0 2.5 
L 2.5 5 
L 5 2.5 
L 2.5 0 
L 5 -2.5 
L 2.5 -5 
L 0 -2.5 
L -2.5 -5 
L -5 -2.5 
L -2.5 0 
L -5 2.5 
z
" style="stroke: #b73779"/>
    </defs>
    <g clip-path="url(#p8d67e96a2f)">
     <use xlink:href="#mfe3f7bfdfa" x="164.563486" y="106.390371" style="fill: #b73779; stroke: #b73779"/>
     <use xlink:href="#mfe3f7bfdfa" x="169.188906" y="103.610684" style="fill: #b73779; stroke: #b73779"/>
     <use xlink:href="#mfe3f7bfdfa" x="197.646679" y="81.180657" style="fill: #b73779; stroke: #b73779"/>
     <use xlink:href="#mfe3f7bfdfa" x="184.167721" y="95.07453" style="fill: #b73779; stroke: #b73779"/>
     <use xlink:href="#mfe3f7bfdfa" x="198.395157" y="80.605355" style="fill: #b73779; stroke: #b73779"/>
     <use xlink:href="#mfe3f7bfdfa" x="160.779632" y="106.023081" style="fill: #b73779; stroke: #b73779"/>
     <use xlink:href="#mfe3f7bfdfa" x="180.980732" y="94.003123" style="fill: #b73779; stroke: #b73779"/>
     <use xlink:href="#mfe3f7bfdfa" x="167.316851" y="107.686248" style="fill: #b73779; stroke: #b73779"/>
     <use xlink:href="#mfe3f7bfdfa" x="109.47472" y="155.640412" style="fill: #b73779; stroke: #b73779"/>
     <use xlink:href="#mfe3f7bfdfa" x="146.055423" y="129.495375" style="fill: #b73779; stroke: #b73779"/>
     <use xlink:href="#mfe3f7bfdfa" x="168.873093" y="107.364354" style="fill: #b73779; stroke: #b73779"/>
     <use xlink:href="#mfe3f7bfdfa" x="159.077891" y="111.838053" style="fill: #b73779; stroke: #b73779"/>
     <use xlink:href="#mfe3f7bfdfa" x="148.675082" y="121.649338" style="fill: #b73779; stroke: #b73779"/>
     <use xlink:href="#mfe3f7bfdfa" x="96.390904" y="158.449316" style="fill: #b73779; stroke: #b73779"/>
     <use xlink:href="#mfe3f7bfdfa" x="161.583072" y="106.006984" style="fill: #b73779; stroke: #b73779"/>
     <use xlink:href="#mfe3f7bfdfa" x="179.59406" y="95.868871" style="fill: #b73779; stroke: #b73779"/>
     <use xlink:href="#mfe3f7bfdfa" x="194.116112" y="85.371313" style="fill: #b73779; stroke: #b73779"/>
     <use xlink:href="#mfe3f7bfdfa" x="164.884741" y="106.713378" style="fill: #b73779; stroke: #b73779"/>
     <use xlink:href="#mfe3f7bfdfa" x="163.460301" y="116.927803" style="fill: #b73779; stroke: #b73779"/>
     <use xlink:href="#mfe3f7bfdfa" x="183.073755" y="94.390686" style="fill: #b73779; stroke: #b73779"/>
    </g>
   </g>
   <g id="PathCollection_3">
    <defs>
     <path id="mb27c374031" d="M 0 -5 
L -5 5 
L 5 5 
z
" style="stroke: #fc8961"/>
    </defs>
    <g clip-path="url(#p8d67e96a2f)">
     <use xlink:href="#mb27c374031" x="194.385135" y="86.315339" style="fill: #fc8961; stroke: #fc8961"/>
     <use xlink:href="#mb27c374031" x="169.542277" y="87.620478" style="fill: #fc8961; stroke: #fc8961"/>
     <use xlink:href="#mb27c374031" x="165.979555" y="110.0658" style="fill: #fc8961; stroke: #fc8961"/>
     <use xlink:href="#mb27c374031" x="148.121344" y="108.010126" style="fill: #fc8961; stroke: #fc8961"/>
     <use xlink:href="#mb27c374031" x="195.164178" y="85.656525" style="fill: #fc8961; stroke: #fc8961"/>
     <use xlink:href="#mb27c374031" x="170.296051" y="88.240542" style="fill: #fc8961; stroke: #fc8961"/>
     <use xlink:href="#mb27c374031" x="152.964647" y="89.221002" style="fill: #fc8961; stroke: #fc8961"/>
     <use xlink:href="#mb27c374031" x="195.148898" y="92.296089" style="fill: #fc8961; stroke: #fc8961"/>
     <use xlink:href="#mb27c374031" x="135.239673" y="108.327113" style="fill: #fc8961; stroke: #fc8961"/>
     <use xlink:href="#mb27c374031" x="168.351974" y="113.3582" style="fill: #fc8961; stroke: #fc8961"/>
     <use xlink:href="#mb27c374031" x="154.123213" y="88.52091" style="fill: #fc8961; stroke: #fc8961"/>
     <use xlink:href="#mb27c374031" x="193.709988" y="90.484065" style="fill: #fc8961; stroke: #fc8961"/>
    </g>
   </g>
   <g id="matplotlib.axis_1">
    <g id="xtick_1">
     <g id="line2d_2">
      <defs>
       <path id="m1af15b4b28" d="M 0 0 
L 0 3.5 
" style="stroke: #000000; stroke-width: 0.8"/>
      </defs>
      <g>
       <use xlink:href="#m1af15b4b28" x="99.643369" y="199.077812" style="stroke: #000000; stroke-width: 0.8"/>
      </g>
     </g>
     <g id="text_1">
      <!-- 60 -->
      <g transform="translate(90.735869 216.715625) scale(0.14 -0.14)">
       <defs>
        <path id="DejaVuSans-36" d="M 2113 2584 
Q 1688 2584 1439 2293 
Q 1191 2003 1191 1497 
Q 1191 994 1439 701 
Q 1688 409 2113 409 
Q 2538 409 2786 701 
Q 3034 994 3034 1497 
Q 3034 2003 2786 2293 
Q 2538 2584 2113 2584 
z
M 3366 4563 
L 3366 3988 
Q 3128 4100 2886 4159 
Q 2644 4219 2406 4219 
Q 1781 4219 1451 3797 
Q 1122 3375 1075 2522 
Q 1259 2794 1537 2939 
Q 1816 3084 2150 3084 
Q 2853 3084 3261 2657 
Q 3669 2231 3669 1497 
Q 3669 778 3244 343 
Q 2819 -91 2113 -91 
Q 1303 -91 875 529 
Q 447 1150 447 2328 
Q 447 3434 972 4092 
Q 1497 4750 2381 4750 
Q 2619 4750 2861 4703 
Q 3103 4656 3366 4563 
z
" transform="scale(0.015625)"/>
        <path id="DejaVuSans-30" d="M 2034 4250 
Q 1547 4250 1301 3770 
Q 1056 3291 1056 2328 
Q 1056 1369 1301 889 
Q 1547 409 2034 409 
Q 2525 409 2770 889 
Q 3016 1369 3016 2328 
Q 3016 3291 2770 3770 
Q 2525 4250 2034 4250 
z
M 2034 4750 
Q 2819 4750 3233 4129 
Q 3647 3509 3647 2328 
Q 3647 1150 3233 529 
Q 2819 -91 2034 -91 
Q 1250 -91 836 529 
Q 422 1150 422 2328 
Q 422 3509 836 4129 
Q 1250 4750 2034 4750 
z
" transform="scale(0.015625)"/>
       </defs>
       <use xlink:href="#DejaVuSans-36"/>
       <use xlink:href="#DejaVuSans-30" x="63.623047"/>
      </g>
     </g>
    </g>
    <g id="xtick_2">
     <g id="line2d_3">
      <g>
       <use xlink:href="#m1af15b4b28" x="181.986357" y="199.077812" style="stroke: #000000; stroke-width: 0.8"/>
      </g>
     </g>
     <g id="text_2">
      <!-- 80 -->
      <g transform="translate(173.078857 216.715625) scale(0.14 -0.14)">
       <defs>
        <path id="DejaVuSans-38" d="M 2034 2216 
Q 1584 2216 1326 1975 
Q 1069 1734 1069 1313 
Q 1069 891 1326 650 
Q 1584 409 2034 409 
Q 2484 409 2743 651 
Q 3003 894 3003 1313 
Q 3003 1734 2745 1975 
Q 2488 2216 2034 2216 
z
M 1403 2484 
Q 997 2584 770 2862 
Q 544 3141 544 3541 
Q 544 4100 942 4425 
Q 1341 4750 2034 4750 
Q 2731 4750 3128 4425 
Q 3525 4100 3525 3541 
Q 3525 3141 3298 2862 
Q 3072 2584 2669 2484 
Q 3125 2378 3379 2068 
Q 3634 1759 3634 1313 
Q 3634 634 3220 271 
Q 2806 -91 2034 -91 
Q 1263 -91 848 271 
Q 434 634 434 1313 
Q 434 1759 690 2068 
Q 947 2378 1403 2484 
z
M 1172 3481 
Q 1172 3119 1398 2916 
Q 1625 2713 2034 2713 
Q 2441 2713 2670 2916 
Q 2900 3119 2900 3481 
Q 2900 3844 2670 4047 
Q 2441 4250 2034 4250 
Q 1625 4250 1398 4047 
Q 1172 3844 1172 3481 
z
" transform="scale(0.015625)"/>
       </defs>
       <use xlink:href="#DejaVuSans-38"/>
       <use xlink:href="#DejaVuSans-30" x="63.623047"/>
      </g>
     </g>
    </g>
    <g id="xtick_3">
     <g id="line2d_4">
      <g>
       <use xlink:href="#m1af15b4b28" x="264.329344" y="199.077812" style="stroke: #000000; stroke-width: 0.8"/>
      </g>
     </g>
     <g id="text_3">
      <!-- 100 -->
      <g transform="translate(250.968094 216.715625) scale(0.14 -0.14)">
       <defs>
        <path id="DejaVuSans-31" d="M 794 531 
L 1825 531 
L 1825 4091 
L 703 3866 
L 703 4441 
L 1819 4666 
L 2450 4666 
L 2450 531 
L 3481 531 
L 3481 0 
L 794 0 
L 794 531 
z
" transform="scale(0.015625)"/>
       </defs>
       <use xlink:href="#DejaVuSans-31"/>
       <use xlink:href="#DejaVuSans-30" x="63.623047"/>
       <use xlink:href="#DejaVuSans-30" x="127.246094"/>
      </g>
     </g>
    </g>
    <g id="text_4">
     <!-- Actual -->
     <g transform="translate(139.470922 234.265) scale(0.14 -0.14)">
      <defs>
       <path id="DejaVuSans-41" d="M 2188 4044 
L 1331 1722 
L 3047 1722 
L 2188 4044 
z
M 1831 4666 
L 2547 4666 
L 4325 0 
L 3669 0 
L 3244 1197 
L 1141 1197 
L 716 0 
L 50 0 
L 1831 4666 
z
" transform="scale(0.015625)"/>
       <path id="DejaVuSans-63" d="M 3122 3366 
L 3122 2828 
Q 2878 2963 2633 3030 
Q 2388 3097 2138 3097 
Q 1578 3097 1268 2742 
Q 959 2388 959 1747 
Q 959 1106 1268 751 
Q 1578 397 2138 397 
Q 2388 397 2633 464 
Q 2878 531 3122 666 
L 3122 134 
Q 2881 22 2623 -34 
Q 2366 -91 2075 -91 
Q 1284 -91 818 406 
Q 353 903 353 1747 
Q 353 2603 823 3093 
Q 1294 3584 2113 3584 
Q 2378 3584 2631 3529 
Q 2884 3475 3122 3366 
z
" transform="scale(0.015625)"/>
       <path id="DejaVuSans-74" d="M 1172 4494 
L 1172 3500 
L 2356 3500 
L 2356 3053 
L 1172 3053 
L 1172 1153 
Q 1172 725 1289 603 
Q 1406 481 1766 481 
L 2356 481 
L 2356 0 
L 1766 0 
Q 1100 0 847 248 
Q 594 497 594 1153 
L 594 3053 
L 172 3053 
L 172 3500 
L 594 3500 
L 594 4494 
L 1172 4494 
z
" transform="scale(0.015625)"/>
       <path id="DejaVuSans-75" d="M 544 1381 
L 544 3500 
L 1119 3500 
L 1119 1403 
Q 1119 906 1312 657 
Q 1506 409 1894 409 
Q 2359 409 2629 706 
Q 2900 1003 2900 1516 
L 2900 3500 
L 3475 3500 
L 3475 0 
L 2900 0 
L 2900 538 
Q 2691 219 2414 64 
Q 2138 -91 1772 -91 
Q 1169 -91 856 284 
Q 544 659 544 1381 
z
M 1991 3584 
L 1991 3584 
z
" transform="scale(0.015625)"/>
       <path id="DejaVuSans-61" d="M 2194 1759 
Q 1497 1759 1228 1600 
Q 959 1441 959 1056 
Q 959 750 1161 570 
Q 1363 391 1709 391 
Q 2188 391 2477 730 
Q 2766 1069 2766 1631 
L 2766 1759 
L 2194 1759 
z
M 3341 1997 
L 3341 0 
L 2766 0 
L 2766 531 
Q 2569 213 2275 61 
Q 1981 -91 1556 -91 
Q 1019 -91 701 211 
Q 384 513 384 1019 
Q 384 1609 779 1909 
Q 1175 2209 1959 2209 
L 2766 2209 
L 2766 2266 
Q 2766 2663 2505 2880 
Q 2244 3097 1772 3097 
Q 1472 3097 1187 3025 
Q 903 2953 641 2809 
L 641 3341 
Q 956 3463 1253 3523 
Q 1550 3584 1831 3584 
Q 2591 3584 2966 3190 
Q 3341 2797 3341 1997 
z
" transform="scale(0.015625)"/>
       <path id="DejaVuSans-6c" d="M 603 4863 
L 1178 4863 
L 1178 0 
L 603 0 
L 603 4863 
z
" transform="scale(0.015625)"/>
      </defs>
      <use xlink:href="#DejaVuSans-41"/>
      <use xlink:href="#DejaVuSans-63" x="66.658203"/>
      <use xlink:href="#DejaVuSans-74" x="121.638672"/>
      <use xlink:href="#DejaVuSans-75" x="160.847656"/>
      <use xlink:href="#DejaVuSans-61" x="224.226562"/>
      <use xlink:href="#DejaVuSans-6c" x="285.505859"/>
     </g>
    </g>
   </g>
   <g id="matplotlib.axis_2">
    <g id="ytick_1">
     <g id="line2d_5">
      <defs>
       <path id="md0f4610d6c" d="M 0 0 
L -3.5 0 
" style="stroke: #000000; stroke-width: 0.8"/>
      </defs>
      <g>
       <use xlink:href="#md0f4610d6c" x="58.471875" y="199.077812" style="stroke: #000000; stroke-width: 0.8"/>
      </g>
     </g>
     <g id="text_5">
      <!-- 50 -->
      <g transform="translate(33.656875 204.396719) scale(0.14 -0.14)">
       <defs>
        <path id="DejaVuSans-35" d="M 691 4666 
L 3169 4666 
L 3169 4134 
L 1269 4134 
L 1269 2991 
Q 1406 3038 1543 3061 
Q 1681 3084 1819 3084 
Q 2600 3084 3056 2656 
Q 3513 2228 3513 1497 
Q 3513 744 3044 326 
Q 2575 -91 1722 -91 
Q 1428 -91 1123 -41 
Q 819 9 494 109 
L 494 744 
Q 775 591 1075 516 
Q 1375 441 1709 441 
Q 2250 441 2565 725 
Q 2881 1009 2881 1497 
Q 2881 1984 2565 2268 
Q 2250 2553 1709 2553 
Q 1456 2553 1204 2497 
Q 953 2441 691 2322 
L 691 4666 
z
" transform="scale(0.015625)"/>
       </defs>
       <use xlink:href="#DejaVuSans-35"/>
       <use xlink:href="#DejaVuSans-30" x="63.623047"/>
      </g>
     </g>
    </g>
    <g id="ytick_2">
     <g id="line2d_6">
      <g>
       <use xlink:href="#md0f4610d6c" x="58.471875" y="164.029812" style="stroke: #000000; stroke-width: 0.8"/>
      </g>
     </g>
     <g id="text_6">
      <!-- 60 -->
      <g transform="translate(33.656875 169.348719) scale(0.14 -0.14)">
       <use xlink:href="#DejaVuSans-36"/>
       <use xlink:href="#DejaVuSans-30" x="63.623047"/>
      </g>
     </g>
    </g>
    <g id="ytick_3">
     <g id="line2d_7">
      <g>
       <use xlink:href="#md0f4610d6c" x="58.471875" y="128.981812" style="stroke: #000000; stroke-width: 0.8"/>
      </g>
     </g>
     <g id="text_7">
      <!-- 70 -->
      <g transform="translate(33.656875 134.300719) scale(0.14 -0.14)">
       <defs>
        <path id="DejaVuSans-37" d="M 525 4666 
L 3525 4666 
L 3525 4397 
L 1831 0 
L 1172 0 
L 2766 4134 
L 525 4134 
L 525 4666 
z
" transform="scale(0.015625)"/>
       </defs>
       <use xlink:href="#DejaVuSans-37"/>
       <use xlink:href="#DejaVuSans-30" x="63.623047"/>
      </g>
     </g>
    </g>
    <g id="ytick_4">
     <g id="line2d_8">
      <g>
       <use xlink:href="#md0f4610d6c" x="58.471875" y="93.933812" style="stroke: #000000; stroke-width: 0.8"/>
      </g>
     </g>
     <g id="text_8">
      <!-- 80 -->
      <g transform="translate(33.656875 99.252719) scale(0.14 -0.14)">
       <use xlink:href="#DejaVuSans-38"/>
       <use xlink:href="#DejaVuSans-30" x="63.623047"/>
      </g>
     </g>
    </g>
    <g id="ytick_5">
     <g id="line2d_9">
      <g>
       <use xlink:href="#md0f4610d6c" x="58.471875" y="58.885812" style="stroke: #000000; stroke-width: 0.8"/>
      </g>
     </g>
     <g id="text_9">
      <!-- 90 -->
      <g transform="translate(33.656875 64.204719) scale(0.14 -0.14)">
       <defs>
        <path id="DejaVuSans-39" d="M 703 97 
L 703 672 
Q 941 559 1184 500 
Q 1428 441 1663 441 
Q 2288 441 2617 861 
Q 2947 1281 2994 2138 
Q 2813 1869 2534 1725 
Q 2256 1581 1919 1581 
Q 1219 1581 811 2004 
Q 403 2428 403 3163 
Q 403 3881 828 4315 
Q 1253 4750 1959 4750 
Q 2769 4750 3195 4129 
Q 3622 3509 3622 2328 
Q 3622 1225 3098 567 
Q 2575 -91 1691 -91 
Q 1453 -91 1209 -44 
Q 966 3 703 97 
z
M 1959 2075 
Q 2384 2075 2632 2365 
Q 2881 2656 2881 3163 
Q 2881 3666 2632 3958 
Q 2384 4250 1959 4250 
Q 1534 4250 1286 3958 
Q 1038 3666 1038 3163 
Q 1038 2656 1286 2365 
Q 1534 2075 1959 2075 
z
" transform="scale(0.015625)"/>
       </defs>
       <use xlink:href="#DejaVuSans-39"/>
       <use xlink:href="#DejaVuSans-30" x="63.623047"/>
      </g>
     </g>
    </g>
    <g id="ytick_6">
     <g id="line2d_10">
      <g>
       <use xlink:href="#md0f4610d6c" x="58.471875" y="23.837812" style="stroke: #000000; stroke-width: 0.8"/>
      </g>
     </g>
     <g id="text_10">
      <!-- 100 -->
      <g transform="translate(24.749375 29.156719) scale(0.14 -0.14)">
       <use xlink:href="#DejaVuSans-31"/>
       <use xlink:href="#DejaVuSans-30" x="63.623047"/>
       <use xlink:href="#DejaVuSans-30" x="127.246094"/>
      </g>
     </g>
    </g>
    <g id="text_11">
     <!-- Predicted -->
     <g transform="translate(17.837813 144.31625) rotate(-90) scale(0.14 -0.14)">
      <defs>
       <path id="DejaVuSans-50" d="M 1259 4147 
L 1259 2394 
L 2053 2394 
Q 2494 2394 2734 2622 
Q 2975 2850 2975 3272 
Q 2975 3691 2734 3919 
Q 2494 4147 2053 4147 
L 1259 4147 
z
M 628 4666 
L 2053 4666 
Q 2838 4666 3239 4311 
Q 3641 3956 3641 3272 
Q 3641 2581 3239 2228 
Q 2838 1875 2053 1875 
L 1259 1875 
L 1259 0 
L 628 0 
L 628 4666 
z
" transform="scale(0.015625)"/>
       <path id="DejaVuSans-72" d="M 2631 2963 
Q 2534 3019 2420 3045 
Q 2306 3072 2169 3072 
Q 1681 3072 1420 2755 
Q 1159 2438 1159 1844 
L 1159 0 
L 581 0 
L 581 3500 
L 1159 3500 
L 1159 2956 
Q 1341 3275 1631 3429 
Q 1922 3584 2338 3584 
Q 2397 3584 2469 3576 
Q 2541 3569 2628 3553 
L 2631 2963 
z
" transform="scale(0.015625)"/>
       <path id="DejaVuSans-65" d="M 3597 1894 
L 3597 1613 
L 953 1613 
Q 991 1019 1311 708 
Q 1631 397 2203 397 
Q 2534 397 2845 478 
Q 3156 559 3463 722 
L 3463 178 
Q 3153 47 2828 -22 
Q 2503 -91 2169 -91 
Q 1331 -91 842 396 
Q 353 884 353 1716 
Q 353 2575 817 3079 
Q 1281 3584 2069 3584 
Q 2775 3584 3186 3129 
Q 3597 2675 3597 1894 
z
M 3022 2063 
Q 3016 2534 2758 2815 
Q 2500 3097 2075 3097 
Q 1594 3097 1305 2825 
Q 1016 2553 972 2059 
L 3022 2063 
z
" transform="scale(0.015625)"/>
       <path id="DejaVuSans-64" d="M 2906 2969 
L 2906 4863 
L 3481 4863 
L 3481 0 
L 2906 0 
L 2906 525 
Q 2725 213 2448 61 
Q 2172 -91 1784 -91 
Q 1150 -91 751 415 
Q 353 922 353 1747 
Q 353 2572 751 3078 
Q 1150 3584 1784 3584 
Q 2172 3584 2448 3432 
Q 2725 3281 2906 2969 
z
M 947 1747 
Q 947 1113 1208 752 
Q 1469 391 1925 391 
Q 2381 391 2643 752 
Q 2906 1113 2906 1747 
Q 2906 2381 2643 2742 
Q 2381 3103 1925 3103 
Q 1469 3103 1208 2742 
Q 947 2381 947 1747 
z
" transform="scale(0.015625)"/>
       <path id="DejaVuSans-69" d="M 603 3500 
L 1178 3500 
L 1178 0 
L 603 0 
L 603 3500 
z
M 603 4863 
L 1178 4863 
L 1178 4134 
L 603 4134 
L 603 4863 
z
" transform="scale(0.015625)"/>
      </defs>
      <use xlink:href="#DejaVuSans-50"/>
      <use xlink:href="#DejaVuSans-72" x="58.552734"/>
      <use xlink:href="#DejaVuSans-65" x="97.416016"/>
      <use xlink:href="#DejaVuSans-64" x="158.939453"/>
      <use xlink:href="#DejaVuSans-69" x="222.416016"/>
      <use xlink:href="#DejaVuSans-63" x="250.199219"/>
      <use xlink:href="#DejaVuSans-74" x="305.179688"/>
      <use xlink:href="#DejaVuSans-65" x="344.388672"/>
      <use xlink:href="#DejaVuSans-64" x="405.912109"/>
     </g>
    </g>
   </g>
   <g id="patch_3">
    <path d="M 58.471875 199.077812 
L 58.471875 23.837812 
" style="fill: none; stroke: #000000; stroke-width: 0.8; stroke-linejoin: miter; stroke-linecap: square"/>
   </g>
   <g id="patch_4">
    <path d="M 264.329344 199.077812 
L 264.329344 23.837812 
" style="fill: none; stroke: #000000; stroke-width: 0.8; stroke-linejoin: miter; stroke-linecap: square"/>
   </g>
   <g id="patch_5">
    <path d="M 58.471875 199.077812 
L 264.329344 199.077812 
" style="fill: none; stroke: #000000; stroke-width: 0.8; stroke-linejoin: miter; stroke-linecap: square"/>
   </g>
   <g id="patch_6">
    <path d="M 58.471875 23.837812 
L 264.329344 23.837812 
" style="fill: none; stroke: #000000; stroke-width: 0.8; stroke-linejoin: miter; stroke-linecap: square"/>
   </g>
   <g id="text_12">
    <!-- Velocity model 2 -->
    <g transform="translate(103.238266 17.837812) scale(0.14 -0.14)">
     <defs>
      <path id="DejaVuSans-56" d="M 1831 0 
L 50 4666 
L 709 4666 
L 2188 738 
L 3669 4666 
L 4325 4666 
L 2547 0 
L 1831 0 
z
" transform="scale(0.015625)"/>
      <path id="DejaVuSans-6f" d="M 1959 3097 
Q 1497 3097 1228 2736 
Q 959 2375 959 1747 
Q 959 1119 1226 758 
Q 1494 397 1959 397 
Q 2419 397 2687 759 
Q 2956 1122 2956 1747 
Q 2956 2369 2687 2733 
Q 2419 3097 1959 3097 
z
M 1959 3584 
Q 2709 3584 3137 3096 
Q 3566 2609 3566 1747 
Q 3566 888 3137 398 
Q 2709 -91 1959 -91 
Q 1206 -91 779 398 
Q 353 888 353 1747 
Q 353 2609 779 3096 
Q 1206 3584 1959 3584 
z
" transform="scale(0.015625)"/>
      <path id="DejaVuSans-79" d="M 2059 -325 
Q 1816 -950 1584 -1140 
Q 1353 -1331 966 -1331 
L 506 -1331 
L 506 -850 
L 844 -850 
Q 1081 -850 1212 -737 
Q 1344 -625 1503 -206 
L 1606 56 
L 191 3500 
L 800 3500 
L 1894 763 
L 2988 3500 
L 3597 3500 
L 2059 -325 
z
" transform="scale(0.015625)"/>
      <path id="DejaVuSans-20" transform="scale(0.015625)"/>
      <path id="DejaVuSans-6d" d="M 3328 2828 
Q 3544 3216 3844 3400 
Q 4144 3584 4550 3584 
Q 5097 3584 5394 3201 
Q 5691 2819 5691 2113 
L 5691 0 
L 5113 0 
L 5113 2094 
Q 5113 2597 4934 2840 
Q 4756 3084 4391 3084 
Q 3944 3084 3684 2787 
Q 3425 2491 3425 1978 
L 3425 0 
L 2847 0 
L 2847 2094 
Q 2847 2600 2669 2842 
Q 2491 3084 2119 3084 
Q 1678 3084 1418 2786 
Q 1159 2488 1159 1978 
L 1159 0 
L 581 0 
L 581 3500 
L 1159 3500 
L 1159 2956 
Q 1356 3278 1631 3431 
Q 1906 3584 2284 3584 
Q 2666 3584 2933 3390 
Q 3200 3197 3328 2828 
z
" transform="scale(0.015625)"/>
      <path id="DejaVuSans-32" d="M 1228 531 
L 3431 531 
L 3431 0 
L 469 0 
L 469 531 
Q 828 903 1448 1529 
Q 2069 2156 2228 2338 
Q 2531 2678 2651 2914 
Q 2772 3150 2772 3378 
Q 2772 3750 2511 3984 
Q 2250 4219 1831 4219 
Q 1534 4219 1204 4116 
Q 875 4013 500 3803 
L 500 4441 
Q 881 4594 1212 4672 
Q 1544 4750 1819 4750 
Q 2544 4750 2975 4387 
Q 3406 4025 3406 3419 
Q 3406 3131 3298 2873 
Q 3191 2616 2906 2266 
Q 2828 2175 2409 1742 
Q 1991 1309 1228 531 
z
" transform="scale(0.015625)"/>
     </defs>
     <use xlink:href="#DejaVuSans-56"/>
     <use xlink:href="#DejaVuSans-65" x="60.658203"/>
     <use xlink:href="#DejaVuSans-6c" x="122.181641"/>
     <use xlink:href="#DejaVuSans-6f" x="149.964844"/>
     <use xlink:href="#DejaVuSans-63" x="211.146484"/>
     <use xlink:href="#DejaVuSans-69" x="266.126953"/>
     <use xlink:href="#DejaVuSans-74" x="293.910156"/>
     <use xlink:href="#DejaVuSans-79" x="333.119141"/>
     <use xlink:href="#DejaVuSans-20" x="392.298828"/>
     <use xlink:href="#DejaVuSans-6d" x="424.085938"/>
     <use xlink:href="#DejaVuSans-6f" x="521.498047"/>
     <use xlink:href="#DejaVuSans-64" x="582.679688"/>
     <use xlink:href="#DejaVuSans-65" x="646.15625"/>
     <use xlink:href="#DejaVuSans-6c" x="707.679688"/>
     <use xlink:href="#DejaVuSans-20" x="735.462891"/>
     <use xlink:href="#DejaVuSans-32" x="767.25"/>
    </g>
   </g>
  </g>
  <g id="axes_2">
   <g id="patch_7">
    <path d="M 292.814344 199.077812 
L 344.278712 199.077812 
L 344.278712 23.837812 
L 292.814344 23.837812 
z
" style="fill: #ffffff"/>
   </g>
   <g id="patch_8">
    <path d="M 292.814344 191.112358 
L 292.814344 191.112358 
L 292.814344 184.474479 
L 292.814344 184.474479 
z
" clip-path="url(#p39ca19f646)" style="fill: #51127c; stroke: #808080; stroke-linejoin: miter"/>
   </g>
   <g id="patch_9">
    <path d="M 292.814344 184.474479 
L 294.564833 184.474479 
L 294.564833 177.8366 
L 292.814344 177.8366 
z
" clip-path="url(#p39ca19f646)" style="fill: #51127c; stroke: #808080; stroke-linejoin: miter"/>
   </g>
   <g id="patch_10">
    <path d="M 292.814344 177.8366 
L 292.814344 177.8366 
L 292.814344 171.198722 
L 292.814344 171.198722 
z
" clip-path="url(#p39ca19f646)" style="fill: #51127c; stroke: #808080; stroke-linejoin: miter"/>
   </g>
   <g id="patch_11">
    <path d="M 292.814344 171.198722 
L 296.315322 171.198722 
L 296.315322 164.560843 
L 292.814344 164.560843 
z
" clip-path="url(#p39ca19f646)" style="fill: #51127c; stroke: #808080; stroke-linejoin: miter"/>
   </g>
   <g id="patch_12">
    <path d="M 292.814344 164.560843 
L 313.820209 164.560843 
L 313.820209 157.922964 
L 292.814344 157.922964 
z
" clip-path="url(#p39ca19f646)" style="fill: #51127c; stroke: #808080; stroke-linejoin: miter"/>
   </g>
   <g id="patch_13">
    <path d="M 292.814344 157.922964 
L 341.828028 157.922964 
L 341.828028 151.285085 
L 292.814344 151.285085 
z
" clip-path="url(#p39ca19f646)" style="fill: #51127c; stroke: #808080; stroke-linejoin: miter"/>
   </g>
   <g id="patch_14">
    <path d="M 292.814344 151.285085 
L 327.824118 151.285085 
L 327.824118 144.647206 
L 292.814344 144.647206 
z
" clip-path="url(#p39ca19f646)" style="fill: #51127c; stroke: #808080; stroke-linejoin: miter"/>
   </g>
   <g id="patch_15">
    <path d="M 292.814344 144.647206 
L 312.06972 144.647206 
L 312.06972 138.009328 
L 292.814344 138.009328 
z
" clip-path="url(#p39ca19f646)" style="fill: #51127c; stroke: #808080; stroke-linejoin: miter"/>
   </g>
   <g id="patch_16">
    <path d="M 292.814344 138.009328 
L 296.315322 138.009328 
L 296.315322 131.371449 
L 292.814344 131.371449 
z
" clip-path="url(#p39ca19f646)" style="fill: #51127c; stroke: #808080; stroke-linejoin: miter"/>
   </g>
   <g id="patch_17">
    <path d="M 292.814344 131.371449 
L 292.814344 131.371449 
L 292.814344 124.73357 
L 292.814344 124.73357 
z
" clip-path="url(#p39ca19f646)" style="fill: #51127c; stroke: #808080; stroke-linejoin: miter"/>
   </g>
   <g id="patch_18">
    <path d="M 292.814344 124.73357 
L 292.814344 124.73357 
L 292.814344 118.095691 
L 292.814344 118.095691 
z
" clip-path="url(#p39ca19f646)" style="fill: #51127c; stroke: #808080; stroke-linejoin: miter"/>
   </g>
   <g id="patch_19">
    <path d="M 292.814344 118.095691 
L 292.814344 118.095691 
L 292.814344 111.457812 
L 292.814344 111.457812 
z
" clip-path="url(#p39ca19f646)" style="fill: #51127c; stroke: #808080; stroke-linejoin: miter"/>
   </g>
   <g id="patch_20">
    <path d="M 292.814344 111.457812 
L 292.814344 111.457812 
L 292.814344 104.819934 
L 292.814344 104.819934 
z
" clip-path="url(#p39ca19f646)" style="fill: #51127c; stroke: #808080; stroke-linejoin: miter"/>
   </g>
   <g id="patch_21">
    <path d="M 292.814344 104.819934 
L 292.814344 104.819934 
L 292.814344 98.182055 
L 292.814344 98.182055 
z
" clip-path="url(#p39ca19f646)" style="fill: #51127c; stroke: #808080; stroke-linejoin: miter"/>
   </g>
   <g id="patch_22">
    <path d="M 292.814344 98.182055 
L 292.814344 98.182055 
L 292.814344 91.544176 
L 292.814344 91.544176 
z
" clip-path="url(#p39ca19f646)" style="fill: #51127c; stroke: #808080; stroke-linejoin: miter"/>
   </g>
   <g id="patch_23">
    <path d="M 292.814344 91.544176 
L 292.814344 91.544176 
L 292.814344 84.906297 
L 292.814344 84.906297 
z
" clip-path="url(#p39ca19f646)" style="fill: #51127c; stroke: #808080; stroke-linejoin: miter"/>
   </g>
   <g id="patch_24">
    <path d="M 292.814344 84.906297 
L 292.814344 84.906297 
L 292.814344 78.268419 
L 292.814344 78.268419 
z
" clip-path="url(#p39ca19f646)" style="fill: #51127c; stroke: #808080; stroke-linejoin: miter"/>
   </g>
   <g id="patch_25">
    <path d="M 292.814344 78.268419 
L 292.814344 78.268419 
L 292.814344 71.63054 
L 292.814344 71.63054 
z
" clip-path="url(#p39ca19f646)" style="fill: #51127c; stroke: #808080; stroke-linejoin: miter"/>
   </g>
   <g id="patch_26">
    <path d="M 292.814344 71.63054 
L 292.814344 71.63054 
L 292.814344 64.992661 
L 292.814344 64.992661 
z
" clip-path="url(#p39ca19f646)" style="fill: #51127c; stroke: #808080; stroke-linejoin: miter"/>
   </g>
   <g id="patch_27">
    <path d="M 292.814344 64.992661 
L 292.814344 64.992661 
L 292.814344 58.354782 
L 292.814344 58.354782 
z
" clip-path="url(#p39ca19f646)" style="fill: #51127c; stroke: #808080; stroke-linejoin: miter"/>
   </g>
   <g id="patch_28">
    <path d="M 292.814344 58.354782 
L 292.814344 58.354782 
L 292.814344 51.716903 
L 292.814344 51.716903 
z
" clip-path="url(#p39ca19f646)" style="fill: #51127c; stroke: #808080; stroke-linejoin: miter"/>
   </g>
   <g id="patch_29">
    <path d="M 292.814344 51.716903 
L 292.814344 51.716903 
L 292.814344 45.079025 
L 292.814344 45.079025 
z
" clip-path="url(#p39ca19f646)" style="fill: #51127c; stroke: #808080; stroke-linejoin: miter"/>
   </g>
   <g id="patch_30">
    <path d="M 292.814344 45.079025 
L 292.814344 45.079025 
L 292.814344 38.441146 
L 292.814344 38.441146 
z
" clip-path="url(#p39ca19f646)" style="fill: #51127c; stroke: #808080; stroke-linejoin: miter"/>
   </g>
   <g id="patch_31">
    <path d="M 292.814344 38.441146 
L 292.814344 38.441146 
L 292.814344 31.803267 
L 292.814344 31.803267 
z
" clip-path="url(#p39ca19f646)" style="fill: #51127c; stroke: #808080; stroke-linejoin: miter"/>
   </g>
   <g id="patch_32">
    <path d="M 292.814344 191.112358 
L 292.814344 191.112358 
L 292.814344 184.474479 
L 292.814344 184.474479 
z
" clip-path="url(#p39ca19f646)" style="fill: #b73779; stroke: #808080; stroke-linejoin: miter"/>
   </g>
   <g id="patch_33">
    <path d="M 292.814344 184.474479 
L 294.564833 184.474479 
L 294.564833 177.8366 
L 292.814344 177.8366 
z
" clip-path="url(#p39ca19f646)" style="fill: #b73779; stroke: #808080; stroke-linejoin: miter"/>
   </g>
   <g id="patch_34">
    <path d="M 292.814344 177.8366 
L 294.564833 177.8366 
L 294.564833 171.198722 
L 292.814344 171.198722 
z
" clip-path="url(#p39ca19f646)" style="fill: #b73779; stroke: #808080; stroke-linejoin: miter"/>
   </g>
   <g id="patch_35">
    <path d="M 292.814344 171.198722 
L 292.814344 171.198722 
L 292.814344 164.560843 
L 292.814344 164.560843 
z
" clip-path="url(#p39ca19f646)" style="fill: #b73779; stroke: #808080; stroke-linejoin: miter"/>
   </g>
   <g id="patch_36">
    <path d="M 292.814344 164.560843 
L 298.06581 164.560843 
L 298.06581 157.922964 
L 292.814344 157.922964 
z
" clip-path="url(#p39ca19f646)" style="fill: #b73779; stroke: #808080; stroke-linejoin: miter"/>
   </g>
   <g id="patch_37">
    <path d="M 292.814344 157.922964 
L 303.317276 157.922964 
L 303.317276 151.285085 
L 292.814344 151.285085 
z
" clip-path="url(#p39ca19f646)" style="fill: #b73779; stroke: #808080; stroke-linejoin: miter"/>
   </g>
   <g id="patch_38">
    <path d="M 292.814344 151.285085 
L 301.566788 151.285085 
L 301.566788 144.647206 
L 292.814344 144.647206 
z
" clip-path="url(#p39ca19f646)" style="fill: #b73779; stroke: #808080; stroke-linejoin: miter"/>
   </g>
   <g id="patch_39">
    <path d="M 292.814344 144.647206 
L 294.564833 144.647206 
L 294.564833 138.009328 
L 292.814344 138.009328 
z
" clip-path="url(#p39ca19f646)" style="fill: #b73779; stroke: #808080; stroke-linejoin: miter"/>
   </g>
   <g id="patch_40">
    <path d="M 292.814344 138.009328 
L 292.814344 138.009328 
L 292.814344 131.371449 
L 292.814344 131.371449 
z
" clip-path="url(#p39ca19f646)" style="fill: #b73779; stroke: #808080; stroke-linejoin: miter"/>
   </g>
   <g id="patch_41">
    <path d="M 292.814344 131.371449 
L 296.315322 131.371449 
L 296.315322 124.73357 
L 292.814344 124.73357 
z
" clip-path="url(#p39ca19f646)" style="fill: #b73779; stroke: #808080; stroke-linejoin: miter"/>
   </g>
   <g id="patch_42">
    <path d="M 292.814344 124.73357 
L 292.814344 124.73357 
L 292.814344 118.095691 
L 292.814344 118.095691 
z
" clip-path="url(#p39ca19f646)" style="fill: #b73779; stroke: #808080; stroke-linejoin: miter"/>
   </g>
   <g id="patch_43">
    <path d="M 292.814344 118.095691 
L 294.564833 118.095691 
L 294.564833 111.457812 
L 292.814344 111.457812 
z
" clip-path="url(#p39ca19f646)" style="fill: #b73779; stroke: #808080; stroke-linejoin: miter"/>
   </g>
   <g id="patch_44">
    <path d="M 292.814344 111.457812 
L 292.814344 111.457812 
L 292.814344 104.819934 
L 292.814344 104.819934 
z
" clip-path="url(#p39ca19f646)" style="fill: #b73779; stroke: #808080; stroke-linejoin: miter"/>
   </g>
   <g id="patch_45">
    <path d="M 292.814344 104.819934 
L 292.814344 104.819934 
L 292.814344 98.182055 
L 292.814344 98.182055 
z
" clip-path="url(#p39ca19f646)" style="fill: #b73779; stroke: #808080; stroke-linejoin: miter"/>
   </g>
   <g id="patch_46">
    <path d="M 292.814344 98.182055 
L 292.814344 98.182055 
L 292.814344 91.544176 
L 292.814344 91.544176 
z
" clip-path="url(#p39ca19f646)" style="fill: #b73779; stroke: #808080; stroke-linejoin: miter"/>
   </g>
   <g id="patch_47">
    <path d="M 292.814344 91.544176 
L 292.814344 91.544176 
L 292.814344 84.906297 
L 292.814344 84.906297 
z
" clip-path="url(#p39ca19f646)" style="fill: #b73779; stroke: #808080; stroke-linejoin: miter"/>
   </g>
   <g id="patch_48">
    <path d="M 292.814344 84.906297 
L 292.814344 84.906297 
L 292.814344 78.268419 
L 292.814344 78.268419 
z
" clip-path="url(#p39ca19f646)" style="fill: #b73779; stroke: #808080; stroke-linejoin: miter"/>
   </g>
   <g id="patch_49">
    <path d="M 292.814344 78.268419 
L 292.814344 78.268419 
L 292.814344 71.63054 
L 292.814344 71.63054 
z
" clip-path="url(#p39ca19f646)" style="fill: #b73779; stroke: #808080; stroke-linejoin: miter"/>
   </g>
   <g id="patch_50">
    <path d="M 292.814344 71.63054 
L 292.814344 71.63054 
L 292.814344 64.992661 
L 292.814344 64.992661 
z
" clip-path="url(#p39ca19f646)" style="fill: #b73779; stroke: #808080; stroke-linejoin: miter"/>
   </g>
   <g id="patch_51">
    <path d="M 292.814344 64.992661 
L 292.814344 64.992661 
L 292.814344 58.354782 
L 292.814344 58.354782 
z
" clip-path="url(#p39ca19f646)" style="fill: #b73779; stroke: #808080; stroke-linejoin: miter"/>
   </g>
   <g id="patch_52">
    <path d="M 292.814344 58.354782 
L 292.814344 58.354782 
L 292.814344 51.716903 
L 292.814344 51.716903 
z
" clip-path="url(#p39ca19f646)" style="fill: #b73779; stroke: #808080; stroke-linejoin: miter"/>
   </g>
   <g id="patch_53">
    <path d="M 292.814344 51.716903 
L 292.814344 51.716903 
L 292.814344 45.079025 
L 292.814344 45.079025 
z
" clip-path="url(#p39ca19f646)" style="fill: #b73779; stroke: #808080; stroke-linejoin: miter"/>
   </g>
   <g id="patch_54">
    <path d="M 292.814344 45.079025 
L 292.814344 45.079025 
L 292.814344 38.441146 
L 292.814344 38.441146 
z
" clip-path="url(#p39ca19f646)" style="fill: #b73779; stroke: #808080; stroke-linejoin: miter"/>
   </g>
   <g id="patch_55">
    <path d="M 292.814344 38.441146 
L 292.814344 38.441146 
L 292.814344 31.803267 
L 292.814344 31.803267 
z
" clip-path="url(#p39ca19f646)" style="fill: #b73779; stroke: #808080; stroke-linejoin: miter"/>
   </g>
   <g id="patch_56">
    <path d="M 292.814344 191.112358 
L 294.564833 191.112358 
L 294.564833 184.474479 
L 292.814344 184.474479 
z
" clip-path="url(#p39ca19f646)" style="fill: #fc8961; stroke: #808080; stroke-linejoin: miter"/>
   </g>
   <g id="patch_57">
    <path d="M 292.814344 184.474479 
L 296.315322 184.474479 
L 296.315322 177.8366 
L 292.814344 177.8366 
z
" clip-path="url(#p39ca19f646)" style="fill: #fc8961; stroke: #808080; stroke-linejoin: miter"/>
   </g>
   <g id="patch_58">
    <path d="M 292.814344 177.8366 
L 292.814344 177.8366 
L 292.814344 171.198722 
L 292.814344 171.198722 
z
" clip-path="url(#p39ca19f646)" style="fill: #fc8961; stroke: #808080; stroke-linejoin: miter"/>
   </g>
   <g id="patch_59">
    <path d="M 292.814344 171.198722 
L 292.814344 171.198722 
L 292.814344 164.560843 
L 292.814344 164.560843 
z
" clip-path="url(#p39ca19f646)" style="fill: #fc8961; stroke: #808080; stroke-linejoin: miter"/>
   </g>
   <g id="patch_60">
    <path d="M 292.814344 164.560843 
L 298.06581 164.560843 
L 298.06581 157.922964 
L 292.814344 157.922964 
z
" clip-path="url(#p39ca19f646)" style="fill: #fc8961; stroke: #808080; stroke-linejoin: miter"/>
   </g>
   <g id="patch_61">
    <path d="M 292.814344 157.922964 
L 292.814344 157.922964 
L 292.814344 151.285085 
L 292.814344 151.285085 
z
" clip-path="url(#p39ca19f646)" style="fill: #fc8961; stroke: #808080; stroke-linejoin: miter"/>
   </g>
   <g id="patch_62">
    <path d="M 292.814344 151.285085 
L 292.814344 151.285085 
L 292.814344 144.647206 
L 292.814344 144.647206 
z
" clip-path="url(#p39ca19f646)" style="fill: #fc8961; stroke: #808080; stroke-linejoin: miter"/>
   </g>
   <g id="patch_63">
    <path d="M 292.814344 144.647206 
L 292.814344 144.647206 
L 292.814344 138.009328 
L 292.814344 138.009328 
z
" clip-path="url(#p39ca19f646)" style="fill: #fc8961; stroke: #808080; stroke-linejoin: miter"/>
   </g>
   <g id="patch_64">
    <path d="M 292.814344 138.009328 
L 292.814344 138.009328 
L 292.814344 131.371449 
L 292.814344 131.371449 
z
" clip-path="url(#p39ca19f646)" style="fill: #fc8961; stroke: #808080; stroke-linejoin: miter"/>
   </g>
   <g id="patch_65">
    <path d="M 292.814344 131.371449 
L 292.814344 131.371449 
L 292.814344 124.73357 
L 292.814344 124.73357 
z
" clip-path="url(#p39ca19f646)" style="fill: #fc8961; stroke: #808080; stroke-linejoin: miter"/>
   </g>
   <g id="patch_66">
    <path d="M 292.814344 124.73357 
L 292.814344 124.73357 
L 292.814344 118.095691 
L 292.814344 118.095691 
z
" clip-path="url(#p39ca19f646)" style="fill: #fc8961; stroke: #808080; stroke-linejoin: miter"/>
   </g>
   <g id="patch_67">
    <path d="M 292.814344 118.095691 
L 292.814344 118.095691 
L 292.814344 111.457812 
L 292.814344 111.457812 
z
" clip-path="url(#p39ca19f646)" style="fill: #fc8961; stroke: #808080; stroke-linejoin: miter"/>
   </g>
   <g id="patch_68">
    <path d="M 292.814344 111.457812 
L 292.814344 111.457812 
L 292.814344 104.819934 
L 292.814344 104.819934 
z
" clip-path="url(#p39ca19f646)" style="fill: #fc8961; stroke: #808080; stroke-linejoin: miter"/>
   </g>
   <g id="patch_69">
    <path d="M 292.814344 104.819934 
L 292.814344 104.819934 
L 292.814344 98.182055 
L 292.814344 98.182055 
z
" clip-path="url(#p39ca19f646)" style="fill: #fc8961; stroke: #808080; stroke-linejoin: miter"/>
   </g>
   <g id="patch_70">
    <path d="M 292.814344 98.182055 
L 294.564833 98.182055 
L 294.564833 91.544176 
L 292.814344 91.544176 
z
" clip-path="url(#p39ca19f646)" style="fill: #fc8961; stroke: #808080; stroke-linejoin: miter"/>
   </g>
   <g id="patch_71">
    <path d="M 292.814344 91.544176 
L 294.564833 91.544176 
L 294.564833 84.906297 
L 292.814344 84.906297 
z
" clip-path="url(#p39ca19f646)" style="fill: #fc8961; stroke: #808080; stroke-linejoin: miter"/>
   </g>
   <g id="patch_72">
    <path d="M 292.814344 84.906297 
L 294.564833 84.906297 
L 294.564833 78.268419 
L 292.814344 78.268419 
z
" clip-path="url(#p39ca19f646)" style="fill: #fc8961; stroke: #808080; stroke-linejoin: miter"/>
   </g>
   <g id="patch_73">
    <path d="M 292.814344 78.268419 
L 292.814344 78.268419 
L 292.814344 71.63054 
L 292.814344 71.63054 
z
" clip-path="url(#p39ca19f646)" style="fill: #fc8961; stroke: #808080; stroke-linejoin: miter"/>
   </g>
   <g id="patch_74">
    <path d="M 292.814344 71.63054 
L 292.814344 71.63054 
L 292.814344 64.992661 
L 292.814344 64.992661 
z
" clip-path="url(#p39ca19f646)" style="fill: #fc8961; stroke: #808080; stroke-linejoin: miter"/>
   </g>
   <g id="patch_75">
    <path d="M 292.814344 64.992661 
L 292.814344 64.992661 
L 292.814344 58.354782 
L 292.814344 58.354782 
z
" clip-path="url(#p39ca19f646)" style="fill: #fc8961; stroke: #808080; stroke-linejoin: miter"/>
   </g>
   <g id="patch_76">
    <path d="M 292.814344 58.354782 
L 292.814344 58.354782 
L 292.814344 51.716903 
L 292.814344 51.716903 
z
" clip-path="url(#p39ca19f646)" style="fill: #fc8961; stroke: #808080; stroke-linejoin: miter"/>
   </g>
   <g id="patch_77">
    <path d="M 292.814344 51.716903 
L 294.564833 51.716903 
L 294.564833 45.079025 
L 292.814344 45.079025 
z
" clip-path="url(#p39ca19f646)" style="fill: #fc8961; stroke: #808080; stroke-linejoin: miter"/>
   </g>
   <g id="patch_78">
    <path d="M 292.814344 45.079025 
L 292.814344 45.079025 
L 292.814344 38.441146 
L 292.814344 38.441146 
z
" clip-path="url(#p39ca19f646)" style="fill: #fc8961; stroke: #808080; stroke-linejoin: miter"/>
   </g>
   <g id="patch_79">
    <path d="M 292.814344 38.441146 
L 296.315322 38.441146 
L 296.315322 31.803267 
L 292.814344 31.803267 
z
" clip-path="url(#p39ca19f646)" style="fill: #fc8961; stroke: #808080; stroke-linejoin: miter"/>
   </g>
   <g id="matplotlib.axis_3">
    <g id="xtick_4">
     <g id="line2d_11">
      <g>
       <use xlink:href="#m1af15b4b28" x="292.814344" y="199.077812" style="stroke: #000000; stroke-width: 0.8"/>
      </g>
     </g>
     <g id="text_13">
      <!-- 0 -->
      <g transform="translate(288.360594 216.715625) scale(0.14 -0.14)">
       <use xlink:href="#DejaVuSans-30"/>
      </g>
     </g>
    </g>
    <g id="xtick_5">
     <g id="line2d_12">
      <g>
       <use xlink:href="#m1af15b4b28" x="336.576562" y="199.077812" style="stroke: #000000; stroke-width: 0.8"/>
      </g>
     </g>
     <g id="text_14">
      <!-- 25 -->
      <g transform="translate(327.669062 216.715625) scale(0.14 -0.14)">
       <use xlink:href="#DejaVuSans-32"/>
       <use xlink:href="#DejaVuSans-35" x="63.623047"/>
      </g>
     </g>
    </g>
    <g id="text_15">
     <!-- Counts -->
     <g transform="translate(294.112153 234.265) scale(0.14 -0.14)">
      <defs>
       <path id="DejaVuSans-43" d="M 4122 4306 
L 4122 3641 
Q 3803 3938 3442 4084 
Q 3081 4231 2675 4231 
Q 1875 4231 1450 3742 
Q 1025 3253 1025 2328 
Q 1025 1406 1450 917 
Q 1875 428 2675 428 
Q 3081 428 3442 575 
Q 3803 722 4122 1019 
L 4122 359 
Q 3791 134 3420 21 
Q 3050 -91 2638 -91 
Q 1578 -91 968 557 
Q 359 1206 359 2328 
Q 359 3453 968 4101 
Q 1578 4750 2638 4750 
Q 3056 4750 3426 4639 
Q 3797 4528 4122 4306 
z
" transform="scale(0.015625)"/>
       <path id="DejaVuSans-6e" d="M 3513 2113 
L 3513 0 
L 2938 0 
L 2938 2094 
Q 2938 2591 2744 2837 
Q 2550 3084 2163 3084 
Q 1697 3084 1428 2787 
Q 1159 2491 1159 1978 
L 1159 0 
L 581 0 
L 581 3500 
L 1159 3500 
L 1159 2956 
Q 1366 3272 1645 3428 
Q 1925 3584 2291 3584 
Q 2894 3584 3203 3211 
Q 3513 2838 3513 2113 
z
" transform="scale(0.015625)"/>
       <path id="DejaVuSans-73" d="M 2834 3397 
L 2834 2853 
Q 2591 2978 2328 3040 
Q 2066 3103 1784 3103 
Q 1356 3103 1142 2972 
Q 928 2841 928 2578 
Q 928 2378 1081 2264 
Q 1234 2150 1697 2047 
L 1894 2003 
Q 2506 1872 2764 1633 
Q 3022 1394 3022 966 
Q 3022 478 2636 193 
Q 2250 -91 1575 -91 
Q 1294 -91 989 -36 
Q 684 19 347 128 
L 347 722 
Q 666 556 975 473 
Q 1284 391 1588 391 
Q 1994 391 2212 530 
Q 2431 669 2431 922 
Q 2431 1156 2273 1281 
Q 2116 1406 1581 1522 
L 1381 1569 
Q 847 1681 609 1914 
Q 372 2147 372 2553 
Q 372 3047 722 3315 
Q 1072 3584 1716 3584 
Q 2034 3584 2315 3537 
Q 2597 3491 2834 3397 
z
" transform="scale(0.015625)"/>
      </defs>
      <use xlink:href="#DejaVuSans-43"/>
      <use xlink:href="#DejaVuSans-6f" x="69.824219"/>
      <use xlink:href="#DejaVuSans-75" x="131.005859"/>
      <use xlink:href="#DejaVuSans-6e" x="194.384766"/>
      <use xlink:href="#DejaVuSans-74" x="257.763672"/>
      <use xlink:href="#DejaVuSans-73" x="296.972656"/>
     </g>
    </g>
   </g>
   <g id="matplotlib.axis_4"/>
   <g id="line2d_13">
    <path d="M 292.814344 152.017242 
L 344.278712 152.017242 
" clip-path="url(#p39ca19f646)" style="fill: none; stroke-dasharray: 5.55,2.4; stroke-dashoffset: 0; stroke: #808080; stroke-width: 1.5"/>
   </g>
   <g id="patch_80">
    <path d="M 292.814344 199.077812 
L 292.814344 23.837812 
" style="fill: none; stroke: #000000; stroke-width: 0.8; stroke-linejoin: miter; stroke-linecap: square"/>
   </g>
   <g id="patch_81">
    <path d="M 344.278712 199.077812 
L 344.278712 23.837812 
" style="fill: none; stroke: #000000; stroke-width: 0.8; stroke-linejoin: miter; stroke-linecap: square"/>
   </g>
   <g id="patch_82">
    <path d="M 292.814344 199.077812 
L 344.278712 199.077812 
" style="fill: none; stroke: #000000; stroke-width: 0.8; stroke-linejoin: miter; stroke-linecap: square"/>
   </g>
   <g id="patch_83">
    <path d="M 292.814344 23.837812 
L 344.278712 23.837812 
" style="fill: none; stroke: #000000; stroke-width: 0.8; stroke-linejoin: miter; stroke-linecap: square"/>
   </g>
  </g>
 </g>
 <defs>
  <clipPath id="p8d67e96a2f">
   <rect x="58.471875" y="23.837812" width="205.857469" height="175.24"/>
  </clipPath>
  <clipPath id="p39ca19f646">
   <rect x="292.814344" y="23.837812" width="51.464367" height="175.24"/>
  </clipPath>
 </defs>
</svg>
